<svg width="18" height="18" viewBox="0 0 18 18" fill="none" xmlns="http://www.w3.org/2000/svg">
<g clip-path="url(#clip0_231_1746)">
<path d="M16.4043 8.31049V14.355C16.4043 15.8944 15.5008 17.1956 14.0562 17.7324C13.6431 17.8862 13.2131 17.9438 12.774 17.9438H8.18951C6.66136 17.9438 5.1332 17.9431 3.60504 17.9438C2.74576 17.9446 1.97431 17.6888 1.30824 17.1457C0.603534 16.5717 0.181974 15.8297 0.0512898 14.9297C0.021078 14.7224 0.0028104 14.5116 0.0028104 14.3023C0 11.3232 0.0021078 8.34492 0 5.36589C0 4.80451 0.0772861 4.25859 0.317575 3.7478C0.839608 2.6391 1.70802 1.95968 2.91368 1.72572C3.16451 1.67724 3.42588 1.66319 3.68233 1.66319C5.84564 1.65827 8.00894 1.66108 10.1723 1.65967C10.4554 1.65897 10.7083 1.72712 10.8924 1.95336C11.0828 2.18592 11.1172 2.45291 11.0083 2.72763C10.9023 2.99461 10.6929 3.14848 10.4069 3.19134C10.3296 3.20258 10.2495 3.20469 10.1708 3.20469C7.93447 3.20469 5.69739 3.19556 3.46101 3.20891C2.73171 3.21312 2.18439 3.57777 1.8099 4.19887C1.61668 4.51926 1.54221 4.86915 1.54291 5.24364C1.54642 8.2578 1.54642 11.2713 1.54361 14.2854C1.54291 14.6402 1.57664 14.9873 1.74526 15.3042C2.11483 15.9983 2.69096 16.3735 3.4856 16.3995C3.52354 16.4009 3.56148 16.4016 3.59942 16.4016C6.69368 16.4016 9.78793 16.408 12.8822 16.3967C13.6965 16.3939 14.3078 16.0159 14.6717 15.2733C14.8101 14.9901 14.8593 14.6873 14.8593 14.3739C14.8579 12.2127 14.8586 10.0515 14.8586 7.89104C14.8586 7.54395 15.0862 7.24324 15.4186 7.14909C15.9006 7.01349 16.3945 7.38376 16.4043 7.88963C16.4064 8.03015 16.4043 8.16997 16.4043 8.31049Z" fill="black"/>
<path d="M17.7891 1.5401C17.4588 0.592995 16.5701 0.0133494 15.5829 0C15.0159 0.0295092 14.4651 0.248018 14.0288 0.711735C11.954 2.91579 9.92907 5.16833 7.88591 7.4019C7.42781 7.90356 6.96831 8.40381 6.51162 8.90687C6.29873 9.14294 6.03104 9.37621 5.87928 9.65865C5.73946 9.91651 5.6678 10.232 5.57365 10.5095C5.36638 11.1201 5.16192 11.7327 4.96309 12.3468C4.81343 12.8098 4.76566 13.2707 5.14084 13.6459C5.60105 14.1068 6.1554 13.9614 6.68657 13.7309C7.31399 13.4583 7.94141 13.1857 8.56743 12.9096C8.8569 12.7824 9.13443 12.677 9.36067 12.4501C9.57285 12.2379 9.77239 12.0145 9.97474 11.7932C10.4307 11.2943 10.886 10.7941 11.342 10.2952C13.1245 8.34619 14.9147 6.4035 16.6944 4.45238C17.09 4.01817 17.5572 3.58607 17.7694 3.0268C17.9493 2.55185 17.9563 2.01927 17.7891 1.5401ZM8.28147 11.3526C7.76014 11.5796 7.23881 11.8079 6.71678 12.0356C6.71467 12.0363 6.71116 12.0348 6.69219 12.032C6.88049 11.4686 7.06808 10.9086 7.2634 10.3254C7.58379 10.6177 7.87748 10.8854 8.17116 11.1531C8.21402 11.1924 8.25758 11.2318 8.29833 11.2732C8.32995 11.3055 8.32855 11.3322 8.28147 11.3526ZM16.0276 2.90385C15.0215 4.00482 14.0098 5.10088 13.0015 6.20045C11.8177 7.49183 10.6359 8.78462 9.45411 10.0774C9.43093 10.1027 9.40704 10.128 9.37542 10.161C9.02342 9.83922 8.68055 9.52656 8.33136 9.20758C10.3317 6.96769 12.3903 4.77909 14.4096 2.55536C14.7833 2.14363 15.2984 1.28365 15.9644 1.6209C16.171 1.72559 16.3192 1.93145 16.3572 2.15909C16.4113 2.47667 16.2286 2.68323 16.0276 2.90385Z" fill="black"/>
</g>
<defs>
<clipPath id="clip0_231_1746">
<rect width="17.91" height="17.9437" fill="white"/>
</clipPath>
</defs>
</svg>
