<svg width="430" height="405" viewBox="0 0 430 405" fill="none" xmlns="http://www.w3.org/2000/svg">
<path d="M35.8798 121.046C45.7534 111.18 41.9594 91.3932 27.4056 76.8507C12.8517 62.3083 -6.95064 58.5172 -16.8243 68.3832C-26.698 78.2491 -22.9039 98.036 -8.35011 112.578C6.20371 127.121 26.0061 130.912 35.8798 121.046Z" fill="#393939"/>
<path d="M375.079 343.38C426.583 291.916 413.095 195 344.954 126.912C276.813 58.8243 179.821 45.3477 128.317 96.8115C76.8133 148.275 90.3004 245.191 158.442 313.279C226.583 381.367 323.575 394.844 375.079 343.38Z" fill="#393939"/>
<path d="M14.8119 263.976C14.8119 264.608 14.3007 265.123 13.6638 265.123C13.0268 265.123 12.5156 264.612 12.5156 263.976C12.5156 263.34 13.0268 262.829 13.6638 262.829C14.3007 262.829 14.8119 263.34 14.8119 263.976Z" fill="#393939"/>
<path d="M22.3739 263.976C22.3739 264.608 21.8627 265.123 21.2258 265.123C20.5888 265.123 20.0776 264.612 20.0776 263.976C20.0776 263.34 20.5888 262.829 21.2258 262.829C21.8627 262.829 22.3739 263.34 22.3739 263.976Z" fill="#393939"/>
<path d="M14.8119 271.374C14.8119 272.007 14.3007 272.521 13.6638 272.521C13.0268 272.521 12.5156 272.011 12.5156 271.374C12.5156 270.738 13.0268 270.227 13.6638 270.227C14.3007 270.227 14.8119 270.738 14.8119 271.374Z" fill="#393939"/>
<path d="M22.3739 271.374C22.3739 272.007 21.8627 272.521 21.2258 272.521C20.5888 272.521 20.0776 272.011 20.0776 271.374C20.0776 270.738 20.5888 270.227 21.2258 270.227C21.8627 270.227 22.3739 270.738 22.3739 271.374Z" fill="#393939"/>
<path d="M30.265 263.976C30.265 264.608 29.7538 265.123 29.1169 265.123C28.4799 265.123 27.9688 264.612 27.9688 263.976C27.9688 263.34 28.4799 262.829 29.1169 262.829C29.7538 262.829 30.265 263.34 30.265 263.976Z" fill="#393939"/>
<path d="M37.827 263.976C37.827 264.608 37.3158 265.123 36.6789 265.123C36.0419 265.123 35.5308 264.612 35.5308 263.976C35.5308 263.34 36.0419 262.829 36.6789 262.829C37.3158 262.829 37.827 263.34 37.827 263.976Z" fill="#393939"/>
<path d="M29.1208 272.521C29.7549 272.521 30.2689 272.008 30.2689 271.374C30.2689 270.741 29.7549 270.227 29.1208 270.227C28.4867 270.227 27.9727 270.741 27.9727 271.374C27.9727 272.008 28.4867 272.521 29.1208 272.521Z" fill="#393939"/>
<path d="M36.6833 272.521C37.3174 272.521 37.8314 272.008 37.8314 271.374C37.8314 270.741 37.3174 270.227 36.6833 270.227C36.0492 270.227 35.5352 270.741 35.5352 271.374C35.5352 272.008 36.0492 272.521 36.6833 272.521Z" fill="#393939"/>
<path d="M45.722 263.976C45.722 264.608 45.2109 265.123 44.5739 265.123C43.937 265.123 43.4258 264.612 43.4258 263.976C43.4258 263.34 43.937 262.829 44.5739 262.829C45.2109 262.829 45.722 263.34 45.722 263.976Z" fill="#393939"/>
<path d="M53.284 263.976C53.284 264.608 52.7728 265.123 52.1359 265.123C51.499 265.123 50.9878 264.612 50.9878 263.976C50.9878 263.34 51.499 262.829 52.1359 262.829C52.7728 262.829 53.284 263.34 53.284 263.976Z" fill="#393939"/>
<path d="M44.5739 272.521C45.208 272.521 45.722 272.008 45.722 271.374C45.722 270.741 45.208 270.227 44.5739 270.227C43.9398 270.227 43.4258 270.741 43.4258 271.374C43.4258 272.008 43.9398 272.521 44.5739 272.521Z" fill="#393939"/>
<path d="M52.1359 272.521C52.77 272.521 53.284 272.008 53.284 271.374C53.284 270.741 52.77 270.227 52.1359 270.227C51.5018 270.227 50.9878 270.741 50.9878 271.374C50.9878 272.008 51.5018 272.521 52.1359 272.521Z" fill="#393939"/>
<path d="M14.8119 278.854C14.8119 279.486 14.3007 280.001 13.6638 280.001C13.0268 280.001 12.5156 279.49 12.5156 278.854C12.5156 278.217 13.0268 277.706 13.6638 277.706C14.3007 277.706 14.8119 278.217 14.8119 278.854Z" fill="#393939"/>
<path d="M22.3739 278.854C22.3739 279.486 21.8627 280.001 21.2258 280.001C20.5888 280.001 20.0776 279.49 20.0776 278.854C20.0776 278.217 20.5888 277.706 21.2258 277.706C21.8627 277.706 22.3739 278.217 22.3739 278.854Z" fill="#393939"/>
<path d="M14.8119 286.252C14.8119 286.884 14.3007 287.399 13.6638 287.399C13.0268 287.399 12.5156 286.888 12.5156 286.252C12.5156 285.615 13.0268 285.104 13.6638 285.104C14.3007 285.104 14.8119 285.615 14.8119 286.252Z" fill="#393939"/>
<path d="M22.3739 286.252C22.3739 286.884 21.8627 287.399 21.2258 287.399C20.5888 287.399 20.0776 286.888 20.0776 286.252C20.0776 285.615 20.5888 285.104 21.2258 285.104C21.8627 285.104 22.3739 285.615 22.3739 286.252Z" fill="#393939"/>
<path d="M29.1213 280.001C29.7554 280.001 30.2694 279.487 30.2694 278.854C30.2694 278.22 29.7554 277.706 29.1213 277.706C28.4872 277.706 27.9731 278.22 27.9731 278.854C27.9731 279.487 28.4872 280.001 29.1213 280.001Z" fill="#393939"/>
<path d="M36.6833 280.001C37.3174 280.001 37.8314 279.487 37.8314 278.854C37.8314 278.22 37.3174 277.706 36.6833 277.706C36.0492 277.706 35.5352 278.22 35.5352 278.854C35.5352 279.487 36.0492 280.001 36.6833 280.001Z" fill="#393939"/>
<path d="M30.265 286.252C30.265 286.884 29.7538 287.399 29.1169 287.399C28.4799 287.399 27.9688 286.888 27.9688 286.252C27.9688 285.615 28.4799 285.104 29.1169 285.104C29.7538 285.104 30.265 285.615 30.265 286.252Z" fill="#393939"/>
<path d="M37.827 286.252C37.827 286.884 37.3158 287.399 36.6789 287.399C36.0419 287.399 35.5308 286.888 35.5308 286.252C35.5308 285.615 36.0419 285.104 36.6789 285.104C37.3158 285.104 37.827 285.615 37.827 286.252Z" fill="#393939"/>
<path d="M44.5739 280.001C45.208 280.001 45.722 279.487 45.722 278.854C45.722 278.22 45.208 277.706 44.5739 277.706C43.9398 277.706 43.4258 278.22 43.4258 278.854C43.4258 279.487 43.9398 280.001 44.5739 280.001Z" fill="#393939"/>
<path d="M52.1359 280.001C52.77 280.001 53.284 279.487 53.284 278.854C53.284 278.22 52.77 277.706 52.1359 277.706C51.5018 277.706 50.9878 278.22 50.9878 278.854C50.9878 279.487 51.5018 280.001 52.1359 280.001Z" fill="#393939"/>
<path d="M45.722 286.252C45.722 286.884 45.2109 287.399 44.5739 287.399C43.937 287.399 43.4258 286.888 43.4258 286.252C43.4258 285.615 43.937 285.104 44.5739 285.104C45.2109 285.104 45.722 285.615 45.722 286.252Z" fill="#393939"/>
<path d="M53.284 286.252C53.284 286.884 52.7728 287.399 52.1359 287.399C51.499 287.399 50.9878 286.888 50.9878 286.252C50.9878 285.615 51.499 285.104 52.1359 285.104C52.7728 285.104 53.284 285.615 53.284 286.252Z" fill="#393939"/>
<path d="M14.8119 293.735C14.8119 294.367 14.3007 294.882 13.6638 294.882C13.0268 294.882 12.5156 294.372 12.5156 293.735C12.5156 293.099 13.0268 292.588 13.6638 292.588C14.3007 292.588 14.8119 293.099 14.8119 293.735Z" fill="#393939"/>
<path d="M22.3739 293.735C22.3739 294.367 21.8627 294.882 21.2258 294.882C20.5888 294.882 20.0776 294.372 20.0776 293.735C20.0776 293.099 20.5888 292.588 21.2258 292.588C21.8627 292.588 22.3739 293.099 22.3739 293.735Z" fill="#393939"/>
<path d="M14.8119 301.133C14.8119 301.766 14.3007 302.28 13.6638 302.28C13.0268 302.28 12.5156 301.77 12.5156 301.133C12.5156 300.497 13.0268 299.986 13.6638 299.986C14.3007 299.986 14.8119 300.497 14.8119 301.133Z" fill="#393939"/>
<path d="M22.3739 301.133C22.3739 301.766 21.8627 302.28 21.2258 302.28C20.5888 302.28 20.0776 301.77 20.0776 301.133C20.0776 300.497 20.5888 299.986 21.2258 299.986C21.8627 299.986 22.3739 300.497 22.3739 301.133Z" fill="#393939"/>
<path d="M30.265 293.735C30.265 294.367 29.7538 294.882 29.1169 294.882C28.4799 294.882 27.9688 294.372 27.9688 293.735C27.9688 293.099 28.4799 292.588 29.1169 292.588C29.7538 292.588 30.265 293.099 30.265 293.735Z" fill="#393939"/>
<path d="M37.827 293.735C37.827 294.367 37.3158 294.882 36.6789 294.882C36.0419 294.882 35.5308 294.372 35.5308 293.735C35.5308 293.099 36.0419 292.588 36.6789 292.588C37.3158 292.588 37.827 293.099 37.827 293.735Z" fill="#393939"/>
<path d="M30.265 301.133C30.265 301.766 29.7538 302.28 29.1169 302.28C28.4799 302.28 27.9688 301.77 27.9688 301.133C27.9688 300.497 28.4799 299.986 29.1169 299.986C29.7538 299.986 30.265 300.497 30.265 301.133Z" fill="#393939"/>
<path d="M37.827 301.133C37.827 301.766 37.3158 302.28 36.6789 302.28C36.0419 302.28 35.5308 301.77 35.5308 301.133C35.5308 300.497 36.0419 299.986 36.6789 299.986C37.3158 299.986 37.827 300.497 37.827 301.133Z" fill="#393939"/>
<path d="M45.722 293.735C45.722 294.367 45.2109 294.882 44.5739 294.882C43.937 294.882 43.4258 294.372 43.4258 293.735C43.4258 293.099 43.937 292.588 44.5739 292.588C45.2109 292.588 45.722 293.099 45.722 293.735Z" fill="#393939"/>
<path d="M53.284 293.735C53.284 294.367 52.7728 294.882 52.1359 294.882C51.499 294.882 50.9878 294.372 50.9878 293.735C50.9878 293.099 51.499 292.588 52.1359 292.588C52.7728 292.588 53.284 293.099 53.284 293.735Z" fill="#393939"/>
<path d="M45.722 301.133C45.722 301.766 45.2109 302.28 44.5739 302.28C43.937 302.28 43.4258 301.77 43.4258 301.133C43.4258 300.497 43.937 299.986 44.5739 299.986C45.2109 299.986 45.722 300.497 45.722 301.133Z" fill="#393939"/>
<path d="M53.284 301.133C53.284 301.766 52.7728 302.28 52.1359 302.28C51.499 302.28 50.9878 301.77 50.9878 301.133C50.9878 300.497 51.499 299.986 52.1359 299.986C52.7728 299.986 53.284 300.497 53.284 301.133Z" fill="#393939"/>
<path d="M61.2684 263.976C61.2684 264.608 60.7572 265.123 60.1203 265.123C59.4834 265.123 58.9722 264.612 58.9722 263.976C58.9722 263.34 59.4834 262.829 60.1203 262.829C60.7572 262.829 61.2684 263.34 61.2684 263.976Z" fill="#393939"/>
<path d="M68.8304 263.976C68.8304 264.608 68.3192 265.123 67.6823 265.123C67.0453 265.123 66.5342 264.612 66.5342 263.976C66.5342 263.34 67.0453 262.829 67.6823 262.829C68.3192 262.829 68.8304 263.34 68.8304 263.976Z" fill="#393939"/>
<path d="M60.1242 272.521C60.7583 272.521 61.2723 272.008 61.2723 271.374C61.2723 270.741 60.7583 270.227 60.1242 270.227C59.4901 270.227 58.9761 270.741 58.9761 271.374C58.9761 272.008 59.4901 272.521 60.1242 272.521Z" fill="#393939"/>
<path d="M67.6867 272.521C68.3208 272.521 68.8348 272.008 68.8348 271.374C68.8348 270.741 68.3208 270.227 67.6867 270.227C67.0526 270.227 66.5386 270.741 66.5386 271.374C66.5386 272.008 67.0526 272.521 67.6867 272.521Z" fill="#393939"/>
<path d="M76.7255 263.976C76.7255 264.608 76.2143 265.123 75.5773 265.123C74.9404 265.123 74.4292 264.612 74.4292 263.976C74.4292 263.34 74.9404 262.829 75.5773 262.829C76.2143 262.829 76.7255 263.34 76.7255 263.976Z" fill="#393939"/>
<path d="M84.2874 263.976C84.2874 264.608 83.7763 265.123 83.1393 265.123C82.5024 265.123 81.9912 264.612 81.9912 263.976C81.9912 263.34 82.5024 262.829 83.1393 262.829C83.7763 262.829 84.2874 263.34 84.2874 263.976Z" fill="#393939"/>
<path d="M75.5773 272.521C76.2114 272.521 76.7255 272.008 76.7255 271.374C76.7255 270.741 76.2114 270.227 75.5773 270.227C74.9432 270.227 74.4292 270.741 74.4292 271.374C74.4292 272.008 74.9432 272.521 75.5773 272.521Z" fill="#393939"/>
<path d="M83.1393 272.521C83.7734 272.521 84.2874 272.008 84.2874 271.374C84.2874 270.741 83.7734 270.227 83.1393 270.227C82.5053 270.227 81.9912 270.741 81.9912 271.374C81.9912 272.008 82.5053 272.521 83.1393 272.521Z" fill="#393939"/>
<path d="M92.1786 263.976C92.1786 264.608 91.6674 265.123 91.0305 265.123C90.3935 265.123 89.8823 264.612 89.8823 263.976C89.8823 263.34 90.3935 262.829 91.0305 262.829C91.6674 262.829 92.1786 263.34 92.1786 263.976Z" fill="#393939"/>
<path d="M99.7406 263.976C99.7406 264.608 99.2294 265.123 98.5924 265.123C97.9555 265.123 97.4443 264.612 97.4443 263.976C97.4443 263.34 97.9555 262.829 98.5924 262.829C99.2294 262.829 99.7406 263.34 99.7406 263.976Z" fill="#393939"/>
<path d="M91.0343 272.521C91.6684 272.521 92.1825 272.008 92.1825 271.374C92.1825 270.741 91.6684 270.227 91.0343 270.227C90.4002 270.227 89.8862 270.741 89.8862 271.374C89.8862 272.008 90.4002 272.521 91.0343 272.521Z" fill="#393939"/>
<path d="M98.5969 272.521C99.231 272.521 99.745 272.008 99.745 271.374C99.745 270.741 99.231 270.227 98.5969 270.227C97.9628 270.227 97.4487 270.741 97.4487 271.374C97.4487 272.008 97.9628 272.521 98.5969 272.521Z" fill="#393939"/>
<path d="M60.1247 280.001C60.7588 280.001 61.2728 279.487 61.2728 278.854C61.2728 278.22 60.7588 277.706 60.1247 277.706C59.4906 277.706 58.9766 278.22 58.9766 278.854C58.9766 279.487 59.4906 280.001 60.1247 280.001Z" fill="#393939"/>
<path d="M67.6867 280.001C68.3208 280.001 68.8348 279.487 68.8348 278.854C68.8348 278.22 68.3208 277.706 67.6867 277.706C67.0526 277.706 66.5386 278.22 66.5386 278.854C66.5386 279.487 67.0526 280.001 67.6867 280.001Z" fill="#393939"/>
<path d="M61.2684 286.252C61.2684 286.884 60.7572 287.399 60.1203 287.399C59.4834 287.399 58.9722 286.888 58.9722 286.252C58.9722 285.615 59.4834 285.104 60.1203 285.104C60.7572 285.104 61.2684 285.615 61.2684 286.252Z" fill="#393939"/>
<path d="M68.8304 286.252C68.8304 286.884 68.3192 287.399 67.6823 287.399C67.0453 287.399 66.5342 286.888 66.5342 286.252C66.5342 285.615 67.0453 285.104 67.6823 285.104C68.3192 285.104 68.8304 285.615 68.8304 286.252Z" fill="#393939"/>
<path d="M75.5773 280.001C76.2114 280.001 76.7255 279.487 76.7255 278.854C76.7255 278.22 76.2114 277.706 75.5773 277.706C74.9432 277.706 74.4292 278.22 74.4292 278.854C74.4292 279.487 74.9432 280.001 75.5773 280.001Z" fill="#393939"/>
<path d="M83.1393 280.001C83.7734 280.001 84.2874 279.487 84.2874 278.854C84.2874 278.22 83.7734 277.706 83.1393 277.706C82.5053 277.706 81.9912 278.22 81.9912 278.854C81.9912 279.487 82.5053 280.001 83.1393 280.001Z" fill="#393939"/>
<path d="M76.7255 286.252C76.7255 286.884 76.2143 287.399 75.5773 287.399C74.9404 287.399 74.4292 286.888 74.4292 286.252C74.4292 285.615 74.9404 285.104 75.5773 285.104C76.2143 285.104 76.7255 285.615 76.7255 286.252Z" fill="#393939"/>
<path d="M84.2874 286.252C84.2874 286.884 83.7763 287.399 83.1393 287.399C82.5024 287.399 81.9912 286.888 81.9912 286.252C81.9912 285.615 82.5024 285.104 83.1393 285.104C83.7763 285.104 84.2874 285.615 84.2874 286.252Z" fill="#393939"/>
<path d="M91.0348 280.001C91.6689 280.001 92.183 279.487 92.183 278.854C92.183 278.22 91.6689 277.706 91.0348 277.706C90.4007 277.706 89.8867 278.22 89.8867 278.854C89.8867 279.487 90.4007 280.001 91.0348 280.001Z" fill="#393939"/>
<path d="M98.5969 280.001C99.231 280.001 99.745 279.487 99.745 278.854C99.745 278.22 99.231 277.706 98.5969 277.706C97.9628 277.706 97.4487 278.22 97.4487 278.854C97.4487 279.487 97.9628 280.001 98.5969 280.001Z" fill="#393939"/>
<path d="M92.1786 286.252C92.1786 286.884 91.6674 287.399 91.0305 287.399C90.3935 287.399 89.8823 286.888 89.8823 286.252C89.8823 285.615 90.3935 285.104 91.0305 285.104C91.6674 285.104 92.1786 285.615 92.1786 286.252Z" fill="#393939"/>
<path d="M99.7406 286.252C99.7406 286.884 99.2294 287.399 98.5924 287.399C97.9555 287.399 97.4443 286.888 97.4443 286.252C97.4443 285.615 97.9555 285.104 98.5924 285.104C99.2294 285.104 99.7406 285.615 99.7406 286.252Z" fill="#393939"/>
<path d="M61.2684 293.735C61.2684 294.367 60.7572 294.882 60.1203 294.882C59.4834 294.882 58.9722 294.372 58.9722 293.735C58.9722 293.099 59.4834 292.588 60.1203 292.588C60.7572 292.588 61.2684 293.099 61.2684 293.735Z" fill="#393939"/>
<path d="M68.8304 293.735C68.8304 294.367 68.3192 294.882 67.6823 294.882C67.0453 294.882 66.5342 294.372 66.5342 293.735C66.5342 293.099 67.0453 292.588 67.6823 292.588C68.3192 292.588 68.8304 293.099 68.8304 293.735Z" fill="#393939"/>
<path d="M61.2684 301.133C61.2684 301.766 60.7572 302.28 60.1203 302.28C59.4834 302.28 58.9722 301.77 58.9722 301.133C58.9722 300.497 59.4834 299.986 60.1203 299.986C60.7572 299.986 61.2684 300.497 61.2684 301.133Z" fill="#393939"/>
<path d="M68.8304 301.133C68.8304 301.766 68.3192 302.28 67.6823 302.28C67.0453 302.28 66.5342 301.77 66.5342 301.133C66.5342 300.497 67.0453 299.986 67.6823 299.986C68.3192 299.986 68.8304 300.497 68.8304 301.133Z" fill="#393939"/>
<path d="M76.7255 293.735C76.7255 294.367 76.2143 294.882 75.5773 294.882C74.9404 294.882 74.4292 294.372 74.4292 293.735C74.4292 293.099 74.9404 292.588 75.5773 292.588C76.2143 292.588 76.7255 293.099 76.7255 293.735Z" fill="#393939"/>
<path d="M84.2874 293.735C84.2874 294.367 83.7763 294.882 83.1393 294.882C82.5024 294.882 81.9912 294.372 81.9912 293.735C81.9912 293.099 82.5024 292.588 83.1393 292.588C83.7763 292.588 84.2874 293.099 84.2874 293.735Z" fill="#393939"/>
<path d="M76.7255 301.133C76.7255 301.766 76.2143 302.28 75.5773 302.28C74.9404 302.28 74.4292 301.77 74.4292 301.133C74.4292 300.497 74.9404 299.986 75.5773 299.986C76.2143 299.986 76.7255 300.497 76.7255 301.133Z" fill="#393939"/>
<path d="M84.2874 301.133C84.2874 301.766 83.7763 302.28 83.1393 302.28C82.5024 302.28 81.9912 301.77 81.9912 301.133C81.9912 300.497 82.5024 299.986 83.1393 299.986C83.7763 299.986 84.2874 300.497 84.2874 301.133Z" fill="#393939"/>
<path d="M92.1786 293.735C92.1786 294.367 91.6674 294.882 91.0305 294.882C90.3935 294.882 89.8823 294.372 89.8823 293.735C89.8823 293.099 90.3935 292.588 91.0305 292.588C91.6674 292.588 92.1786 293.099 92.1786 293.735Z" fill="#393939"/>
<path d="M99.7406 293.735C99.7406 294.367 99.2294 294.882 98.5924 294.882C97.9555 294.882 97.4443 294.372 97.4443 293.735C97.4443 293.099 97.9555 292.588 98.5924 292.588C99.2294 292.588 99.7406 293.099 99.7406 293.735Z" fill="#393939"/>
<path d="M92.1786 301.133C92.1786 301.766 91.6674 302.28 91.0305 302.28C90.3935 302.28 89.8823 301.77 89.8823 301.133C89.8823 300.497 90.3935 299.986 91.0305 299.986C91.6674 299.986 92.1786 300.497 92.1786 301.133Z" fill="#393939"/>
<path d="M99.7406 301.133C99.7406 301.766 99.2294 302.28 98.5924 302.28C97.9555 302.28 97.4443 301.77 97.4443 301.133C97.4443 300.497 97.9555 299.986 98.5924 299.986C99.2294 299.986 99.7406 300.497 99.7406 301.133Z" fill="#393939"/>
<path d="M14.8119 308.864C14.8119 309.496 14.3007 310.011 13.6638 310.011C13.0268 310.011 12.5156 309.5 12.5156 308.864C12.5156 308.227 13.0268 307.717 13.6638 307.717C14.3007 307.717 14.8119 308.227 14.8119 308.864Z" fill="#393939"/>
<path d="M22.3739 308.864C22.3739 309.496 21.8627 310.011 21.2258 310.011C20.5888 310.011 20.0776 309.5 20.0776 308.864C20.0776 308.227 20.5888 307.717 21.2258 307.717C21.8627 307.717 22.3739 308.227 22.3739 308.864Z" fill="#393939"/>
<path d="M14.8119 316.262C14.8119 316.894 14.3007 317.409 13.6638 317.409C13.0268 317.409 12.5156 316.899 12.5156 316.262C12.5156 315.626 13.0268 315.115 13.6638 315.115C14.3007 315.115 14.8119 315.626 14.8119 316.262Z" fill="#393939"/>
<path d="M22.3739 316.262C22.3739 316.894 21.8627 317.409 21.2258 317.409C20.5888 317.409 20.0776 316.899 20.0776 316.262C20.0776 315.626 20.5888 315.115 21.2258 315.115C21.8627 315.115 22.3739 315.626 22.3739 316.262Z" fill="#393939"/>
<path d="M30.265 308.864C30.265 309.496 29.7538 310.011 29.1169 310.011C28.4799 310.011 27.9688 309.5 27.9688 308.864C27.9688 308.227 28.4799 307.717 29.1169 307.717C29.7538 307.717 30.265 308.227 30.265 308.864Z" fill="#393939"/>
<path d="M37.827 308.864C37.827 309.496 37.3158 310.011 36.6789 310.011C36.0419 310.011 35.5308 309.5 35.5308 308.864C35.5308 308.227 36.0419 307.717 36.6789 307.717C37.3158 307.717 37.827 308.227 37.827 308.864Z" fill="#393939"/>
<path d="M30.265 316.262C30.265 316.894 29.7538 317.409 29.1169 317.409C28.4799 317.409 27.9688 316.899 27.9688 316.262C27.9688 315.626 28.4799 315.115 29.1169 315.115C29.7538 315.115 30.265 315.626 30.265 316.262Z" fill="#393939"/>
<path d="M37.827 316.262C37.827 316.894 37.3158 317.409 36.6789 317.409C36.0419 317.409 35.5308 316.899 35.5308 316.262C35.5308 315.626 36.0419 315.115 36.6789 315.115C37.3158 315.115 37.827 315.626 37.827 316.262Z" fill="#393939"/>
<path d="M45.722 308.864C45.722 309.496 45.2109 310.011 44.5739 310.011C43.937 310.011 43.4258 309.5 43.4258 308.864C43.4258 308.227 43.937 307.717 44.5739 307.717C45.2109 307.717 45.722 308.227 45.722 308.864Z" fill="#393939"/>
<path d="M53.284 308.864C53.284 309.496 52.7728 310.011 52.1359 310.011C51.499 310.011 50.9878 309.5 50.9878 308.864C50.9878 308.227 51.499 307.717 52.1359 307.717C52.7728 307.717 53.284 308.227 53.284 308.864Z" fill="#393939"/>
<path d="M45.722 316.262C45.722 316.894 45.2109 317.409 44.5739 317.409C43.937 317.409 43.4258 316.899 43.4258 316.262C43.4258 315.626 43.937 315.115 44.5739 315.115C45.2109 315.115 45.722 315.626 45.722 316.262Z" fill="#393939"/>
<path d="M53.284 316.262C53.284 316.894 52.7728 317.409 52.1359 317.409C51.499 317.409 50.9878 316.899 50.9878 316.262C50.9878 315.626 51.499 315.115 52.1359 315.115C52.7728 315.115 53.284 315.626 53.284 316.262Z" fill="#393939"/>
<path d="M14.8119 323.741C14.8119 324.374 14.3007 324.889 13.6638 324.889C13.0268 324.889 12.5156 324.378 12.5156 323.741C12.5156 323.105 13.0268 322.594 13.6638 322.594C14.3007 322.594 14.8119 323.105 14.8119 323.741Z" fill="#393939"/>
<path d="M22.3739 323.741C22.3739 324.374 21.8627 324.889 21.2258 324.889C20.5888 324.889 20.0776 324.378 20.0776 323.741C20.0776 323.105 20.5888 322.594 21.2258 322.594C21.8627 322.594 22.3739 323.105 22.3739 323.741Z" fill="#393939"/>
<path d="M14.8119 331.14C14.8119 331.772 14.3007 332.287 13.6638 332.287C13.0268 332.287 12.5156 331.776 12.5156 331.14C12.5156 330.503 13.0268 329.992 13.6638 329.992C14.3007 329.992 14.8119 330.503 14.8119 331.14Z" fill="#393939"/>
<path d="M22.3739 331.14C22.3739 331.772 21.8627 332.287 21.2258 332.287C20.5888 332.287 20.0776 331.776 20.0776 331.14C20.0776 330.503 20.5888 329.992 21.2258 329.992C21.8627 329.992 22.3739 330.503 22.3739 331.14Z" fill="#393939"/>
<path d="M29.1208 324.889C29.7549 324.889 30.2689 324.375 30.2689 323.741C30.2689 323.108 29.7549 322.594 29.1208 322.594C28.4867 322.594 27.9727 323.108 27.9727 323.741C27.9727 324.375 28.4867 324.889 29.1208 324.889Z" fill="#393939"/>
<path d="M36.6828 324.889C37.3169 324.889 37.8309 324.375 37.8309 323.741C37.8309 323.108 37.3169 322.594 36.6828 322.594C36.0487 322.594 35.5347 323.108 35.5347 323.741C35.5347 324.375 36.0487 324.889 36.6828 324.889Z" fill="#393939"/>
<path d="M29.1208 332.287C29.7549 332.287 30.2689 331.773 30.2689 331.14C30.2689 330.506 29.7549 329.992 29.1208 329.992C28.4867 329.992 27.9727 330.506 27.9727 331.14C27.9727 331.773 28.4867 332.287 29.1208 332.287Z" fill="#393939"/>
<path d="M36.6828 332.287C37.3169 332.287 37.8309 331.773 37.8309 331.14C37.8309 330.506 37.3169 329.992 36.6828 329.992C36.0487 329.992 35.5347 330.506 35.5347 331.14C35.5347 331.773 36.0487 332.287 36.6828 332.287Z" fill="#393939"/>
<path d="M44.5739 324.889C45.208 324.889 45.722 324.375 45.722 323.741C45.722 323.108 45.208 322.594 44.5739 322.594C43.9398 322.594 43.4258 323.108 43.4258 323.741C43.4258 324.375 43.9398 324.889 44.5739 324.889Z" fill="#393939"/>
<path d="M52.1359 324.889C52.77 324.889 53.284 324.375 53.284 323.741C53.284 323.108 52.77 322.594 52.1359 322.594C51.5018 322.594 50.9878 323.108 50.9878 323.741C50.9878 324.375 51.5018 324.889 52.1359 324.889Z" fill="#393939"/>
<path d="M44.5739 332.287C45.208 332.287 45.722 331.773 45.722 331.14C45.722 330.506 45.208 329.992 44.5739 329.992C43.9398 329.992 43.4258 330.506 43.4258 331.14C43.4258 331.773 43.9398 332.287 44.5739 332.287Z" fill="#393939"/>
<path d="M52.1359 332.287C52.77 332.287 53.284 331.773 53.284 331.14C53.284 330.506 52.77 329.992 52.1359 329.992C51.5018 329.992 50.9878 330.506 50.9878 331.14C50.9878 331.773 51.5018 332.287 52.1359 332.287Z" fill="#393939"/>
<path d="M14.8119 338.619C14.8119 339.251 14.3007 339.766 13.6638 339.766C13.0268 339.766 12.5156 339.255 12.5156 338.619C12.5156 337.982 13.0268 337.472 13.6638 337.472C14.3007 337.472 14.8119 337.982 14.8119 338.619Z" fill="#393939"/>
<path d="M22.3739 338.619C22.3739 339.251 21.8627 339.766 21.2258 339.766C20.5888 339.766 20.0776 339.255 20.0776 338.619C20.0776 337.982 20.5888 337.472 21.2258 337.472C21.8627 337.472 22.3739 337.982 22.3739 338.619Z" fill="#393939"/>
<path d="M14.8119 346.017C14.8119 346.649 14.3007 347.164 13.6638 347.164C13.0268 347.164 12.5156 346.654 12.5156 346.017C12.5156 345.381 13.0268 344.87 13.6638 344.87C14.3007 344.87 14.8119 345.381 14.8119 346.017Z" fill="#393939"/>
<path d="M22.3739 346.017C22.3739 346.649 21.8627 347.164 21.2258 347.164C20.5888 347.164 20.0776 346.654 20.0776 346.017C20.0776 345.381 20.5888 344.87 21.2258 344.87C21.8627 344.87 22.3739 345.381 22.3739 346.017Z" fill="#393939"/>
<path d="M29.1213 339.766C29.7554 339.766 30.2694 339.252 30.2694 338.619C30.2694 337.985 29.7554 337.472 29.1213 337.472C28.4872 337.472 27.9731 337.985 27.9731 338.619C27.9731 339.252 28.4872 339.766 29.1213 339.766Z" fill="#393939"/>
<path d="M36.6833 339.766C37.3174 339.766 37.8314 339.252 37.8314 338.619C37.8314 337.985 37.3174 337.472 36.6833 337.472C36.0492 337.472 35.5352 337.985 35.5352 338.619C35.5352 339.252 36.0492 339.766 36.6833 339.766Z" fill="#393939"/>
<path d="M30.265 346.017C30.265 346.649 29.7538 347.164 29.1169 347.164C28.4799 347.164 27.9688 346.654 27.9688 346.017C27.9688 345.381 28.4799 344.87 29.1169 344.87C29.7538 344.87 30.265 345.381 30.265 346.017Z" fill="#393939"/>
<path d="M37.827 346.017C37.827 346.649 37.3158 347.164 36.6789 347.164C36.0419 347.164 35.5308 346.654 35.5308 346.017C35.5308 345.381 36.0419 344.87 36.6789 344.87C37.3158 344.87 37.827 345.381 37.827 346.017Z" fill="#393939"/>
<path d="M44.5739 339.766C45.208 339.766 45.722 339.252 45.722 338.619C45.722 337.985 45.208 337.472 44.5739 337.472C43.9398 337.472 43.4258 337.985 43.4258 338.619C43.4258 339.252 43.9398 339.766 44.5739 339.766Z" fill="#393939"/>
<path d="M52.1359 339.766C52.77 339.766 53.284 339.252 53.284 338.619C53.284 337.985 52.77 337.472 52.1359 337.472C51.5018 337.472 50.9878 337.985 50.9878 338.619C50.9878 339.252 51.5018 339.766 52.1359 339.766Z" fill="#393939"/>
<path d="M45.722 346.017C45.722 346.649 45.2109 347.164 44.5739 347.164C43.937 347.164 43.4258 346.654 43.4258 346.017C43.4258 345.381 43.937 344.87 44.5739 344.87C45.2109 344.87 45.722 345.381 45.722 346.017Z" fill="#393939"/>
<path d="M53.284 346.017C53.284 346.649 52.7728 347.164 52.1359 347.164C51.499 347.164 50.9878 346.654 50.9878 346.017C50.9878 345.381 51.499 344.87 52.1359 344.87C52.7728 344.87 53.284 345.381 53.284 346.017Z" fill="#393939"/>
<path d="M61.2684 308.864C61.2684 309.496 60.7572 310.011 60.1203 310.011C59.4834 310.011 58.9722 309.5 58.9722 308.864C58.9722 308.227 59.4834 307.717 60.1203 307.717C60.7572 307.717 61.2684 308.227 61.2684 308.864Z" fill="#393939"/>
<path d="M68.8304 308.864C68.8304 309.496 68.3192 310.011 67.6823 310.011C67.0453 310.011 66.5342 309.5 66.5342 308.864C66.5342 308.227 67.0453 307.717 67.6823 307.717C68.3192 307.717 68.8304 308.227 68.8304 308.864Z" fill="#393939"/>
<path d="M61.2684 316.262C61.2684 316.894 60.7572 317.409 60.1203 317.409C59.4834 317.409 58.9722 316.899 58.9722 316.262C58.9722 315.626 59.4834 315.115 60.1203 315.115C60.7572 315.115 61.2684 315.626 61.2684 316.262Z" fill="#393939"/>
<path d="M68.8304 316.262C68.8304 316.894 68.3192 317.409 67.6823 317.409C67.0453 317.409 66.5342 316.899 66.5342 316.262C66.5342 315.626 67.0453 315.115 67.6823 315.115C68.3192 315.115 68.8304 315.626 68.8304 316.262Z" fill="#393939"/>
<path d="M76.7255 308.864C76.7255 309.496 76.2143 310.011 75.5773 310.011C74.9404 310.011 74.4292 309.5 74.4292 308.864C74.4292 308.227 74.9404 307.717 75.5773 307.717C76.2143 307.717 76.7255 308.227 76.7255 308.864Z" fill="#393939"/>
<path d="M84.2874 308.864C84.2874 309.496 83.7763 310.011 83.1393 310.011C82.5024 310.011 81.9912 309.5 81.9912 308.864C81.9912 308.227 82.5024 307.717 83.1393 307.717C83.7763 307.717 84.2874 308.227 84.2874 308.864Z" fill="#393939"/>
<path d="M76.7255 316.262C76.7255 316.894 76.2143 317.409 75.5773 317.409C74.9404 317.409 74.4292 316.899 74.4292 316.262C74.4292 315.626 74.9404 315.115 75.5773 315.115C76.2143 315.115 76.7255 315.626 76.7255 316.262Z" fill="#393939"/>
<path d="M84.2874 316.262C84.2874 316.894 83.7763 317.409 83.1393 317.409C82.5024 317.409 81.9912 316.899 81.9912 316.262C81.9912 315.626 82.5024 315.115 83.1393 315.115C83.7763 315.115 84.2874 315.626 84.2874 316.262Z" fill="#393939"/>
<path d="M92.1786 308.864C92.1786 309.496 91.6674 310.011 91.0305 310.011C90.3935 310.011 89.8823 309.5 89.8823 308.864C89.8823 308.227 90.3935 307.717 91.0305 307.717C91.6674 307.717 92.1786 308.227 92.1786 308.864Z" fill="#393939"/>
<path d="M99.7406 308.864C99.7406 309.496 99.2294 310.011 98.5924 310.011C97.9555 310.011 97.4443 309.5 97.4443 308.864C97.4443 308.227 97.9555 307.717 98.5924 307.717C99.2294 307.717 99.7406 308.227 99.7406 308.864Z" fill="#393939"/>
<path d="M92.1786 316.262C92.1786 316.894 91.6674 317.409 91.0305 317.409C90.3935 317.409 89.8823 316.899 89.8823 316.262C89.8823 315.626 90.3935 315.115 91.0305 315.115C91.6674 315.115 92.1786 315.626 92.1786 316.262Z" fill="#393939"/>
<path d="M99.7406 316.262C99.7406 316.894 99.2294 317.409 98.5924 317.409C97.9555 317.409 97.4443 316.899 97.4443 316.262C97.4443 315.626 97.9555 315.115 98.5924 315.115C99.2294 315.115 99.7406 315.626 99.7406 316.262Z" fill="#393939"/>
<path d="M60.1242 324.889C60.7583 324.889 61.2723 324.375 61.2723 323.741C61.2723 323.108 60.7583 322.594 60.1242 322.594C59.4901 322.594 58.9761 323.108 58.9761 323.741C58.9761 324.375 59.4901 324.889 60.1242 324.889Z" fill="#393939"/>
<path d="M67.6862 324.889C68.3203 324.889 68.8343 324.375 68.8343 323.741C68.8343 323.108 68.3203 322.594 67.6862 322.594C67.0521 322.594 66.5381 323.108 66.5381 323.741C66.5381 324.375 67.0521 324.889 67.6862 324.889Z" fill="#393939"/>
<path d="M60.1242 332.287C60.7583 332.287 61.2723 331.773 61.2723 331.14C61.2723 330.506 60.7583 329.992 60.1242 329.992C59.4901 329.992 58.9761 330.506 58.9761 331.14C58.9761 331.773 59.4901 332.287 60.1242 332.287Z" fill="#393939"/>
<path d="M67.6862 332.287C68.3203 332.287 68.8343 331.773 68.8343 331.14C68.8343 330.506 68.3203 329.992 67.6862 329.992C67.0521 329.992 66.5381 330.506 66.5381 331.14C66.5381 331.773 67.0521 332.287 67.6862 332.287Z" fill="#393939"/>
<path d="M75.5773 324.889C76.2114 324.889 76.7255 324.375 76.7255 323.741C76.7255 323.108 76.2114 322.594 75.5773 322.594C74.9432 322.594 74.4292 323.108 74.4292 323.741C74.4292 324.375 74.9432 324.889 75.5773 324.889Z" fill="#393939"/>
<path d="M83.1393 324.889C83.7734 324.889 84.2874 324.375 84.2874 323.741C84.2874 323.108 83.7734 322.594 83.1393 322.594C82.5053 322.594 81.9912 323.108 81.9912 323.741C81.9912 324.375 82.5053 324.889 83.1393 324.889Z" fill="#393939"/>
<path d="M75.5773 332.287C76.2114 332.287 76.7255 331.773 76.7255 331.14C76.7255 330.506 76.2114 329.992 75.5773 329.992C74.9432 329.992 74.4292 330.506 74.4292 331.14C74.4292 331.773 74.9432 332.287 75.5773 332.287Z" fill="#393939"/>
<path d="M83.1393 332.287C83.7734 332.287 84.2874 331.773 84.2874 331.14C84.2874 330.506 83.7734 329.992 83.1393 329.992C82.5053 329.992 81.9912 330.506 81.9912 331.14C81.9912 331.773 82.5053 332.287 83.1393 332.287Z" fill="#393939"/>
<path d="M91.0343 324.889C91.6684 324.889 92.1825 324.375 92.1825 323.741C92.1825 323.108 91.6684 322.594 91.0343 322.594C90.4002 322.594 89.8862 323.108 89.8862 323.741C89.8862 324.375 90.4002 324.889 91.0343 324.889Z" fill="#393939"/>
<path d="M98.5964 324.889C99.2305 324.889 99.7445 324.375 99.7445 323.741C99.7445 323.108 99.2305 322.594 98.5964 322.594C97.9623 322.594 97.4482 323.108 97.4482 323.741C97.4482 324.375 97.9623 324.889 98.5964 324.889Z" fill="#393939"/>
<path d="M91.0343 332.287C91.6684 332.287 92.1825 331.773 92.1825 331.14C92.1825 330.506 91.6684 329.992 91.0343 329.992C90.4002 329.992 89.8862 330.506 89.8862 331.14C89.8862 331.773 90.4002 332.287 91.0343 332.287Z" fill="#393939"/>
<path d="M98.5964 332.287C99.2305 332.287 99.7445 331.773 99.7445 331.14C99.7445 330.506 99.2305 329.992 98.5964 329.992C97.9623 329.992 97.4482 330.506 97.4482 331.14C97.4482 331.773 97.9623 332.287 98.5964 332.287Z" fill="#393939"/>
<path d="M60.1247 339.766C60.7588 339.766 61.2728 339.252 61.2728 338.619C61.2728 337.985 60.7588 337.472 60.1247 337.472C59.4906 337.472 58.9766 337.985 58.9766 338.619C58.9766 339.252 59.4906 339.766 60.1247 339.766Z" fill="#393939"/>
<path d="M67.6867 339.766C68.3208 339.766 68.8348 339.252 68.8348 338.619C68.8348 337.985 68.3208 337.472 67.6867 337.472C67.0526 337.472 66.5386 337.985 66.5386 338.619C66.5386 339.252 67.0526 339.766 67.6867 339.766Z" fill="#393939"/>
<path d="M61.2684 346.017C61.2684 346.649 60.7572 347.164 60.1203 347.164C59.4834 347.164 58.9722 346.654 58.9722 346.017C58.9722 345.381 59.4834 344.87 60.1203 344.87C60.7572 344.87 61.2684 345.381 61.2684 346.017Z" fill="#393939"/>
<path d="M68.8304 346.017C68.8304 346.649 68.3192 347.164 67.6823 347.164C67.0453 347.164 66.5342 346.654 66.5342 346.017C66.5342 345.381 67.0453 344.87 67.6823 344.87C68.3192 344.87 68.8304 345.381 68.8304 346.017Z" fill="#393939"/>
<path d="M75.5773 339.766C76.2114 339.766 76.7255 339.252 76.7255 338.619C76.7255 337.985 76.2114 337.472 75.5773 337.472C74.9432 337.472 74.4292 337.985 74.4292 338.619C74.4292 339.252 74.9432 339.766 75.5773 339.766Z" fill="#393939"/>
<path d="M83.1393 339.766C83.7734 339.766 84.2874 339.252 84.2874 338.619C84.2874 337.985 83.7734 337.472 83.1393 337.472C82.5053 337.472 81.9912 337.985 81.9912 338.619C81.9912 339.252 82.5053 339.766 83.1393 339.766Z" fill="#393939"/>
<path d="M76.7255 346.017C76.7255 346.649 76.2143 347.164 75.5773 347.164C74.9404 347.164 74.4292 346.654 74.4292 346.017C74.4292 345.381 74.9404 344.87 75.5773 344.87C76.2143 344.87 76.7255 345.381 76.7255 346.017Z" fill="#393939"/>
<path d="M84.2874 346.017C84.2874 346.649 83.7763 347.164 83.1393 347.164C82.5024 347.164 81.9912 346.654 81.9912 346.017C81.9912 345.381 82.5024 344.87 83.1393 344.87C83.7763 344.87 84.2874 345.381 84.2874 346.017Z" fill="#393939"/>
<path d="M91.0348 339.766C91.6689 339.766 92.183 339.252 92.183 338.619C92.183 337.985 91.6689 337.472 91.0348 337.472C90.4007 337.472 89.8867 337.985 89.8867 338.619C89.8867 339.252 90.4007 339.766 91.0348 339.766Z" fill="#393939"/>
<path d="M98.5969 339.766C99.231 339.766 99.745 339.252 99.745 338.619C99.745 337.985 99.231 337.472 98.5969 337.472C97.9628 337.472 97.4487 337.985 97.4487 338.619C97.4487 339.252 97.9628 339.766 98.5969 339.766Z" fill="#393939"/>
<path d="M92.1786 346.017C92.1786 346.649 91.6674 347.164 91.0305 347.164C90.3935 347.164 89.8823 346.654 89.8823 346.017C89.8823 345.381 90.3935 344.87 91.0305 344.87C91.6674 344.87 92.1786 345.381 92.1786 346.017Z" fill="#393939"/>
<path d="M99.7406 346.017C99.7406 346.649 99.2294 347.164 98.5924 347.164C97.9555 347.164 97.4443 346.654 97.4443 346.017C97.4443 345.381 97.9555 344.87 98.5924 344.87C99.2294 344.87 99.7406 345.381 99.7406 346.017Z" fill="#393939"/>
<path d="M326.067 75.4657C326.067 76.0981 325.556 76.613 324.919 76.613C324.282 76.613 323.771 76.1022 323.771 75.4657C323.771 74.8293 324.282 74.3185 324.919 74.3185C325.556 74.3185 326.067 74.8293 326.067 75.4657Z" fill="#393939"/>
<path d="M333.629 75.4657C333.629 76.0981 333.118 76.613 332.481 76.613C331.844 76.613 331.333 76.1022 331.333 75.4657C331.333 74.8293 331.844 74.3185 332.481 74.3185C333.118 74.3185 333.629 74.8293 333.629 75.4657Z" fill="#393939"/>
<path d="M326.067 82.8639C326.067 83.4963 325.556 84.0112 324.919 84.0112C324.282 84.0112 323.771 83.5004 323.771 82.8639C323.771 82.2275 324.282 81.7167 324.919 81.7167C325.556 81.7167 326.067 82.2275 326.067 82.8639Z" fill="#393939"/>
<path d="M333.629 82.8639C333.629 83.4963 333.118 84.0112 332.481 84.0112C331.844 84.0112 331.333 83.5004 331.333 82.8639C331.333 82.2275 331.844 81.7167 332.481 81.7167C333.118 81.7167 333.629 82.2275 333.629 82.8639Z" fill="#393939"/>
<path d="M341.524 75.4657C341.524 76.0981 341.013 76.613 340.376 76.613C339.739 76.613 339.228 76.1022 339.228 75.4657C339.228 74.8293 339.739 74.3185 340.376 74.3185C341.013 74.3185 341.524 74.8293 341.524 75.4657Z" fill="#393939"/>
<path d="M349.087 75.4657C349.087 76.0981 348.575 76.613 347.938 76.613C347.301 76.613 346.79 76.1022 346.79 75.4657C346.79 74.8293 347.301 74.3185 347.938 74.3185C348.575 74.3185 349.087 74.8293 349.087 75.4657Z" fill="#393939"/>
<path d="M341.524 82.8639C341.524 83.4963 341.013 84.0112 340.376 84.0112C339.739 84.0112 339.228 83.5004 339.228 82.8639C339.228 82.2275 339.739 81.7167 340.376 81.7167C341.013 81.7167 341.524 82.2275 341.524 82.8639Z" fill="#393939"/>
<path d="M349.087 82.8639C349.087 83.4963 348.575 84.0112 347.938 84.0112C347.301 84.0112 346.79 83.5004 346.79 82.8639C346.79 82.2275 347.301 81.7167 347.938 81.7167C348.575 81.7167 349.087 82.2275 349.087 82.8639Z" fill="#393939"/>
<path d="M356.977 75.4657C356.977 76.0981 356.466 76.613 355.829 76.613C355.192 76.613 354.681 76.1022 354.681 75.4657C354.681 74.8293 355.192 74.3185 355.829 74.3185C356.466 74.3185 356.977 74.8293 356.977 75.4657Z" fill="#393939"/>
<path d="M364.54 75.4657C364.54 76.0981 364.029 76.613 363.392 76.613C362.755 76.613 362.243 76.1022 362.243 75.4657C362.243 74.8293 362.755 74.3185 363.392 74.3185C364.029 74.3185 364.54 74.8293 364.54 75.4657Z" fill="#393939"/>
<path d="M356.977 82.8639C356.977 83.4963 356.466 84.0112 355.829 84.0112C355.192 84.0112 354.681 83.5004 354.681 82.8639C354.681 82.2275 355.192 81.7167 355.829 81.7167C356.466 81.7167 356.977 82.2275 356.977 82.8639Z" fill="#393939"/>
<path d="M364.54 82.8639C364.54 83.4963 364.029 84.0112 363.392 84.0112C362.755 84.0112 362.243 83.5004 362.243 82.8639C362.243 82.2275 362.755 81.7167 363.392 81.7167C364.029 81.7167 364.54 82.2275 364.54 82.8639Z" fill="#393939"/>
<path d="M326.067 90.3432C326.067 90.9756 325.556 91.4904 324.919 91.4904C324.282 91.4904 323.771 90.9797 323.771 90.3432C323.771 89.7068 324.282 89.196 324.919 89.196C325.556 89.196 326.067 89.7068 326.067 90.3432Z" fill="#393939"/>
<path d="M333.629 90.3432C333.629 90.9756 333.118 91.4904 332.481 91.4904C331.844 91.4904 331.333 90.9797 331.333 90.3432C331.333 89.7068 331.844 89.196 332.481 89.196C333.118 89.196 333.629 89.7068 333.629 90.3432Z" fill="#393939"/>
<path d="M326.067 97.7414C326.067 98.3738 325.556 98.8886 324.919 98.8886C324.282 98.8886 323.771 98.3779 323.771 97.7414C323.771 97.105 324.282 96.5942 324.919 96.5942C325.556 96.5942 326.067 97.105 326.067 97.7414Z" fill="#393939"/>
<path d="M333.629 97.7414C333.629 98.3738 333.118 98.8886 332.481 98.8886C331.844 98.8886 331.333 98.3779 331.333 97.7414C331.333 97.105 331.844 96.5942 332.481 96.5942C333.118 96.5942 333.629 97.105 333.629 97.7414Z" fill="#393939"/>
<path d="M341.524 90.3432C341.524 90.9756 341.013 91.4904 340.376 91.4904C339.739 91.4904 339.228 90.9797 339.228 90.3432C339.228 89.7068 339.739 89.196 340.376 89.196C341.013 89.196 341.524 89.7068 341.524 90.3432Z" fill="#393939"/>
<path d="M349.087 90.3432C349.087 90.9756 348.575 91.4904 347.938 91.4904C347.301 91.4904 346.79 90.9797 346.79 90.3432C346.79 89.7068 347.301 89.196 347.938 89.196C348.575 89.196 349.087 89.7068 349.087 90.3432Z" fill="#393939"/>
<path d="M341.524 97.7414C341.524 98.3738 341.013 98.8886 340.376 98.8886C339.739 98.8886 339.228 98.3779 339.228 97.7414C339.228 97.105 339.739 96.5942 340.376 96.5942C341.013 96.5942 341.524 97.105 341.524 97.7414Z" fill="#393939"/>
<path d="M349.087 97.7414C349.087 98.3738 348.575 98.8886 347.938 98.8886C347.301 98.8886 346.79 98.3779 346.79 97.7414C346.79 97.105 347.301 96.5942 347.938 96.5942C348.575 96.5942 349.087 97.105 349.087 97.7414Z" fill="#393939"/>
<path d="M356.977 90.3432C356.977 90.9756 356.466 91.4904 355.829 91.4904C355.192 91.4904 354.681 90.9797 354.681 90.3432C354.681 89.7068 355.192 89.196 355.829 89.196C356.466 89.196 356.977 89.7068 356.977 90.3432Z" fill="#393939"/>
<path d="M364.54 90.3432C364.54 90.9756 364.029 91.4904 363.392 91.4904C362.755 91.4904 362.243 90.9797 362.243 90.3432C362.243 89.7068 362.755 89.196 363.392 89.196C364.029 89.196 364.54 89.7068 364.54 90.3432Z" fill="#393939"/>
<path d="M355.833 98.8886C356.468 98.8886 356.982 98.375 356.982 97.7414C356.982 97.1078 356.468 96.5942 355.833 96.5942C355.199 96.5942 354.685 97.1078 354.685 97.7414C354.685 98.375 355.199 98.8886 355.833 98.8886Z" fill="#393939"/>
<path d="M363.395 98.8886C364.03 98.8886 364.544 98.375 364.544 97.7414C364.544 97.1078 364.03 96.5942 363.395 96.5942C362.761 96.5942 362.247 97.1078 362.247 97.7414C362.247 98.375 362.761 98.8886 363.395 98.8886Z" fill="#393939"/>
<path d="M326.067 105.225C326.067 105.857 325.556 106.372 324.919 106.372C324.282 106.372 323.771 105.861 323.771 105.225C323.771 104.588 324.282 104.078 324.919 104.078C325.556 104.078 326.067 104.588 326.067 105.225Z" fill="#393939"/>
<path d="M333.629 105.225C333.629 105.857 333.118 106.372 332.481 106.372C331.844 106.372 331.333 105.861 331.333 105.225C331.333 104.588 331.844 104.078 332.481 104.078C333.118 104.078 333.629 104.588 333.629 105.225Z" fill="#393939"/>
<path d="M326.067 112.623C326.067 113.255 325.556 113.77 324.919 113.77C324.282 113.77 323.771 113.259 323.771 112.623C323.771 111.986 324.282 111.476 324.919 111.476C325.556 111.476 326.067 111.986 326.067 112.623Z" fill="#393939"/>
<path d="M333.629 112.623C333.629 113.255 333.118 113.77 332.481 113.77C331.844 113.77 331.333 113.259 331.333 112.623C331.333 111.986 331.844 111.476 332.481 111.476C333.118 111.476 333.629 111.986 333.629 112.623Z" fill="#393939"/>
<path d="M341.524 105.225C341.524 105.857 341.013 106.372 340.376 106.372C339.739 106.372 339.228 105.861 339.228 105.225C339.228 104.588 339.739 104.078 340.376 104.078C341.013 104.078 341.524 104.588 341.524 105.225Z" fill="#393939"/>
<path d="M349.087 105.225C349.087 105.857 348.575 106.372 347.938 106.372C347.301 106.372 346.79 105.861 346.79 105.225C346.79 104.588 347.301 104.078 347.938 104.078C348.575 104.078 349.087 104.588 349.087 105.225Z" fill="#393939"/>
<path d="M341.524 112.623C341.524 113.255 341.013 113.77 340.376 113.77C339.739 113.77 339.228 113.259 339.228 112.623C339.228 111.986 339.739 111.476 340.376 111.476C341.013 111.476 341.524 111.986 341.524 112.623Z" fill="#393939"/>
<path d="M349.087 112.623C349.087 113.255 348.575 113.77 347.938 113.77C347.301 113.77 346.79 113.259 346.79 112.623C346.79 111.986 347.301 111.476 347.938 111.476C348.575 111.476 349.087 111.986 349.087 112.623Z" fill="#393939"/>
<path d="M355.834 106.372C356.468 106.372 356.982 105.858 356.982 105.225C356.982 104.591 356.468 104.078 355.834 104.078C355.2 104.078 354.686 104.591 354.686 105.225C354.686 105.858 355.2 106.372 355.834 106.372Z" fill="#393939"/>
<path d="M363.395 106.372C364.03 106.372 364.544 105.858 364.544 105.225C364.544 104.591 364.03 104.078 363.395 104.078C362.761 104.078 362.247 104.591 362.247 105.225C362.247 105.858 362.761 106.372 363.395 106.372Z" fill="#393939"/>
<path d="M356.977 112.623C356.977 113.255 356.466 113.77 355.829 113.77C355.192 113.77 354.681 113.259 354.681 112.623C354.681 111.986 355.192 111.476 355.829 111.476C356.466 111.476 356.977 111.986 356.977 112.623Z" fill="#393939"/>
<path d="M364.54 112.623C364.54 113.255 364.029 113.77 363.392 113.77C362.755 113.77 362.243 113.259 362.243 112.623C362.243 111.986 362.755 111.476 363.392 111.476C364.029 111.476 364.54 111.986 364.54 112.623Z" fill="#393939"/>
<path d="M372.528 75.4657C372.528 76.0981 372.016 76.613 371.38 76.613C370.743 76.613 370.231 76.1022 370.231 75.4657C370.231 74.8293 370.743 74.3185 371.38 74.3185C372.016 74.3185 372.528 74.8293 372.528 75.4657Z" fill="#393939"/>
<path d="M380.09 75.4657C380.09 76.0981 379.579 76.613 378.942 76.613C378.305 76.613 377.794 76.1022 377.794 75.4657C377.794 74.8293 378.305 74.3185 378.942 74.3185C379.579 74.3185 380.09 74.8293 380.09 75.4657Z" fill="#393939"/>
<path d="M372.528 82.8639C372.528 83.4963 372.016 84.0112 371.38 84.0112C370.743 84.0112 370.231 83.5004 370.231 82.8639C370.231 82.2275 370.743 81.7167 371.38 81.7167C372.016 81.7167 372.528 82.2275 372.528 82.8639Z" fill="#393939"/>
<path d="M380.09 82.8639C380.09 83.4963 379.579 84.0112 378.942 84.0112C378.305 84.0112 377.794 83.5004 377.794 82.8639C377.794 82.2275 378.305 81.7167 378.942 81.7167C379.579 81.7167 380.09 82.2275 380.09 82.8639Z" fill="#393939"/>
<path d="M387.981 75.4657C387.981 76.0981 387.47 76.613 386.833 76.613C386.196 76.613 385.685 76.1022 385.685 75.4657C385.685 74.8293 386.196 74.3185 386.833 74.3185C387.47 74.3185 387.981 74.8293 387.981 75.4657Z" fill="#393939"/>
<path d="M395.543 75.4657C395.543 76.0981 395.032 76.613 394.395 76.613C393.758 76.613 393.247 76.1022 393.247 75.4657C393.247 74.8293 393.758 74.3185 394.395 74.3185C395.032 74.3185 395.543 74.8293 395.543 75.4657Z" fill="#393939"/>
<path d="M387.981 82.8639C387.981 83.4963 387.47 84.0112 386.833 84.0112C386.196 84.0112 385.685 83.5004 385.685 82.8639C385.685 82.2275 386.196 81.7167 386.833 81.7167C387.47 81.7167 387.981 82.2275 387.981 82.8639Z" fill="#393939"/>
<path d="M395.543 82.8639C395.543 83.4963 395.032 84.0112 394.395 84.0112C393.758 84.0112 393.247 83.5004 393.247 82.8639C393.247 82.2275 393.758 81.7167 394.395 81.7167C395.032 81.7167 395.543 82.2275 395.543 82.8639Z" fill="#393939"/>
<path d="M403.438 75.4657C403.438 76.0981 402.927 76.613 402.29 76.613C401.653 76.613 401.142 76.1022 401.142 75.4657C401.142 74.8293 401.653 74.3185 402.29 74.3185C402.927 74.3185 403.438 74.8293 403.438 75.4657Z" fill="#393939"/>
<path d="M411 75.4657C411 76.0981 410.489 76.613 409.852 76.613C409.215 76.613 408.704 76.1022 408.704 75.4657C408.704 74.8293 409.215 74.3185 409.852 74.3185C410.489 74.3185 411 74.8293 411 75.4657Z" fill="#393939"/>
<path d="M403.438 82.8639C403.438 83.4963 402.927 84.0112 402.29 84.0112C401.653 84.0112 401.142 83.5004 401.142 82.8639C401.142 82.2275 401.653 81.7167 402.29 81.7167C402.927 81.7167 403.438 82.2275 403.438 82.8639Z" fill="#393939"/>
<path d="M411 82.8639C411 83.4963 410.489 84.0112 409.852 84.0112C409.215 84.0112 408.704 83.5004 408.704 82.8639C408.704 82.2275 409.215 81.7167 409.852 81.7167C410.489 81.7167 411 82.2275 411 82.8639Z" fill="#393939"/>
<path d="M372.528 90.3432C372.528 90.9756 372.016 91.4904 371.38 91.4904C370.743 91.4904 370.231 90.9797 370.231 90.3432C370.231 89.7068 370.743 89.196 371.38 89.196C372.016 89.196 372.528 89.7068 372.528 90.3432Z" fill="#393939"/>
<path d="M380.09 90.3432C380.09 90.9756 379.579 91.4904 378.942 91.4904C378.305 91.4904 377.794 90.9797 377.794 90.3432C377.794 89.7068 378.305 89.196 378.942 89.196C379.579 89.196 380.09 89.7068 380.09 90.3432Z" fill="#393939"/>
<path d="M372.528 97.7414C372.528 98.3738 372.016 98.8886 371.38 98.8886C370.743 98.8886 370.231 98.3779 370.231 97.7414C370.231 97.105 370.743 96.5942 371.38 96.5942C372.016 96.5942 372.528 97.105 372.528 97.7414Z" fill="#393939"/>
<path d="M380.09 97.7414C380.09 98.3738 379.579 98.8886 378.942 98.8886C378.305 98.8886 377.794 98.3779 377.794 97.7414C377.794 97.105 378.305 96.5942 378.942 96.5942C379.579 96.5942 380.09 97.105 380.09 97.7414Z" fill="#393939"/>
<path d="M387.981 90.3432C387.981 90.9756 387.47 91.4904 386.833 91.4904C386.196 91.4904 385.685 90.9797 385.685 90.3432C385.685 89.7068 386.196 89.196 386.833 89.196C387.47 89.196 387.981 89.7068 387.981 90.3432Z" fill="#393939"/>
<path d="M395.543 90.3432C395.543 90.9756 395.032 91.4904 394.395 91.4904C393.758 91.4904 393.247 90.9797 393.247 90.3432C393.247 89.7068 393.758 89.196 394.395 89.196C395.032 89.196 395.543 89.7068 395.543 90.3432Z" fill="#393939"/>
<path d="M386.837 98.8886C387.471 98.8886 387.985 98.375 387.985 97.7414C387.985 97.1078 387.471 96.5942 386.837 96.5942C386.203 96.5942 385.689 97.1078 385.689 97.7414C385.689 98.375 386.203 98.8886 386.837 98.8886Z" fill="#393939"/>
<path d="M394.399 98.8886C395.033 98.8886 395.547 98.375 395.547 97.7414C395.547 97.1078 395.033 96.5942 394.399 96.5942C393.765 96.5942 393.251 97.1078 393.251 97.7414C393.251 98.375 393.765 98.8886 394.399 98.8886Z" fill="#393939"/>
<path d="M403.438 90.3432C403.438 90.9756 402.927 91.4904 402.29 91.4904C401.653 91.4904 401.142 90.9797 401.142 90.3432C401.142 89.7068 401.653 89.196 402.29 89.196C402.927 89.196 403.438 89.7068 403.438 90.3432Z" fill="#393939"/>
<path d="M411 90.3432C411 90.9756 410.489 91.4904 409.852 91.4904C409.215 91.4904 408.704 90.9797 408.704 90.3432C408.704 89.7068 409.215 89.196 409.852 89.196C410.489 89.196 411 89.7068 411 90.3432Z" fill="#393939"/>
<path d="M402.29 98.8886C402.924 98.8886 403.438 98.375 403.438 97.7414C403.438 97.1078 402.924 96.5942 402.29 96.5942C401.656 96.5942 401.142 97.1078 401.142 97.7414C401.142 98.375 401.656 98.8886 402.29 98.8886Z" fill="#393939"/>
<path d="M409.852 98.8886C410.486 98.8886 411 98.375 411 97.7414C411 97.1078 410.486 96.5942 409.852 96.5942C409.218 96.5942 408.704 97.1078 408.704 97.7414C408.704 98.375 409.218 98.8886 409.852 98.8886Z" fill="#393939"/>
<path d="M372.528 105.225C372.528 105.857 372.016 106.372 371.38 106.372C370.743 106.372 370.231 105.861 370.231 105.225C370.231 104.588 370.743 104.078 371.38 104.078C372.016 104.078 372.528 104.588 372.528 105.225Z" fill="#393939"/>
<path d="M380.09 105.225C380.09 105.857 379.579 106.372 378.942 106.372C378.305 106.372 377.794 105.861 377.794 105.225C377.794 104.588 378.305 104.078 378.942 104.078C379.579 104.078 380.09 104.588 380.09 105.225Z" fill="#393939"/>
<path d="M372.528 112.623C372.528 113.255 372.016 113.77 371.38 113.77C370.743 113.77 370.231 113.259 370.231 112.623C370.231 111.987 370.743 111.476 371.38 111.476C372.016 111.476 372.528 111.987 372.528 112.623Z" fill="#393939"/>
<path d="M380.09 112.623C380.09 113.255 379.579 113.77 378.942 113.77C378.305 113.77 377.794 113.259 377.794 112.623C377.794 111.987 378.305 111.476 378.942 111.476C379.579 111.476 380.09 111.987 380.09 112.623Z" fill="#393939"/>
<path d="M386.837 106.372C387.471 106.372 387.985 105.858 387.985 105.225C387.985 104.591 387.471 104.078 386.837 104.078C386.203 104.078 385.689 104.591 385.689 105.225C385.689 105.858 386.203 106.372 386.837 106.372Z" fill="#393939"/>
<path d="M394.399 106.372C395.033 106.372 395.547 105.858 395.547 105.225C395.547 104.591 395.033 104.078 394.399 104.078C393.765 104.078 393.251 104.591 393.251 105.225C393.251 105.858 393.765 106.372 394.399 106.372Z" fill="#393939"/>
<path d="M387.981 112.623C387.981 113.255 387.47 113.77 386.833 113.77C386.196 113.77 385.685 113.259 385.685 112.623C385.685 111.987 386.196 111.476 386.833 111.476C387.47 111.476 387.981 111.987 387.981 112.623Z" fill="#393939"/>
<path d="M395.543 112.623C395.543 113.255 395.032 113.77 394.395 113.77C393.758 113.77 393.247 113.259 393.247 112.623C393.247 111.987 393.758 111.476 394.395 111.476C395.032 111.476 395.543 111.987 395.543 112.623Z" fill="#393939"/>
<path d="M402.29 106.372C402.924 106.372 403.438 105.858 403.438 105.225C403.438 104.591 402.924 104.078 402.29 104.078C401.656 104.078 401.142 104.591 401.142 105.225C401.142 105.858 401.656 106.372 402.29 106.372Z" fill="#393939"/>
<path d="M409.852 106.372C410.486 106.372 411 105.858 411 105.225C411 104.591 410.486 104.078 409.852 104.078C409.218 104.078 408.704 104.591 408.704 105.225C408.704 105.858 409.218 106.372 409.852 106.372Z" fill="#393939"/>
<path d="M403.438 112.623C403.438 113.255 402.927 113.77 402.29 113.77C401.653 113.77 401.142 113.259 401.142 112.623C401.142 111.987 401.653 111.476 402.29 111.476C402.927 111.476 403.438 111.987 403.438 112.623Z" fill="#393939"/>
<path d="M411 112.623C411 113.255 410.489 113.77 409.852 113.77C409.215 113.77 408.704 113.259 408.704 112.623C408.704 111.987 409.215 111.476 409.852 111.476C410.489 111.476 411 111.987 411 112.623Z" fill="#393939"/>
<path d="M326.067 120.354C326.067 120.986 325.556 121.501 324.919 121.501C324.282 121.501 323.771 120.99 323.771 120.354C323.771 119.717 324.282 119.206 324.919 119.206C325.556 119.206 326.067 119.717 326.067 120.354Z" fill="#393939"/>
<path d="M333.629 120.354C333.629 120.986 333.118 121.501 332.481 121.501C331.844 121.501 331.333 120.99 331.333 120.354C331.333 119.717 331.844 119.206 332.481 119.206C333.118 119.206 333.629 119.717 333.629 120.354Z" fill="#393939"/>
<path d="M326.067 127.752C326.067 128.384 325.556 128.899 324.919 128.899C324.282 128.899 323.771 128.388 323.771 127.752C323.771 127.115 324.282 126.605 324.919 126.605C325.556 126.605 326.067 127.115 326.067 127.752Z" fill="#393939"/>
<path d="M333.629 127.752C333.629 128.384 333.118 128.899 332.481 128.899C331.844 128.899 331.333 128.388 331.333 127.752C331.333 127.115 331.844 126.605 332.481 126.605C333.118 126.605 333.629 127.115 333.629 127.752Z" fill="#393939"/>
<path d="M341.524 120.354C341.524 120.986 341.013 121.501 340.376 121.501C339.739 121.501 339.228 120.99 339.228 120.354C339.228 119.717 339.739 119.206 340.376 119.206C341.013 119.206 341.524 119.717 341.524 120.354Z" fill="#393939"/>
<path d="M349.087 120.354C349.087 120.986 348.575 121.501 347.938 121.501C347.301 121.501 346.79 120.99 346.79 120.354C346.79 119.717 347.301 119.206 347.938 119.206C348.575 119.206 349.087 119.717 349.087 120.354Z" fill="#393939"/>
<path d="M341.524 127.752C341.524 128.384 341.013 128.899 340.376 128.899C339.739 128.899 339.228 128.388 339.228 127.752C339.228 127.115 339.739 126.605 340.376 126.605C341.013 126.605 341.524 127.115 341.524 127.752Z" fill="#393939"/>
<path d="M349.087 127.752C349.087 128.384 348.575 128.899 347.938 128.899C347.301 128.899 346.79 128.388 346.79 127.752C346.79 127.115 347.301 126.605 347.938 126.605C348.575 126.605 349.087 127.115 349.087 127.752Z" fill="#393939"/>
<path d="M355.834 121.501C356.468 121.501 356.982 120.987 356.982 120.354C356.982 119.72 356.468 119.206 355.834 119.206C355.2 119.206 354.686 119.72 354.686 120.354C354.686 120.987 355.2 121.501 355.834 121.501Z" fill="#393939"/>
<path d="M363.395 121.501C364.03 121.501 364.544 120.987 364.544 120.354C364.544 119.72 364.03 119.206 363.395 119.206C362.761 119.206 362.247 119.72 362.247 120.354C362.247 120.987 362.761 121.501 363.395 121.501Z" fill="#393939"/>
<path d="M356.977 127.752C356.977 128.384 356.466 128.899 355.829 128.899C355.192 128.899 354.681 128.388 354.681 127.752C354.681 127.115 355.192 126.605 355.829 126.605C356.466 126.605 356.977 127.115 356.977 127.752Z" fill="#393939"/>
<path d="M364.54 127.752C364.54 128.384 364.029 128.899 363.392 128.899C362.755 128.899 362.243 128.388 362.243 127.752C362.243 127.115 362.755 126.605 363.392 126.605C364.029 126.605 364.54 127.115 364.54 127.752Z" fill="#393939"/>
<path d="M326.067 135.231C326.067 135.863 325.556 136.378 324.919 136.378C324.282 136.378 323.771 135.868 323.771 135.231C323.771 134.595 324.282 134.084 324.919 134.084C325.556 134.084 326.067 134.595 326.067 135.231Z" fill="#393939"/>
<path d="M333.629 135.231C333.629 135.863 333.118 136.378 332.481 136.378C331.844 136.378 331.333 135.868 331.333 135.231C331.333 134.595 331.844 134.084 332.481 134.084C333.118 134.084 333.629 134.595 333.629 135.231Z" fill="#393939"/>
<path d="M326.067 142.629C326.067 143.262 325.556 143.777 324.919 143.777C324.282 143.777 323.771 143.266 323.771 142.629C323.771 141.993 324.282 141.482 324.919 141.482C325.556 141.482 326.067 141.993 326.067 142.629Z" fill="#393939"/>
<path d="M333.629 142.629C333.629 143.262 333.118 143.777 332.481 143.777C331.844 143.777 331.333 143.266 331.333 142.629C331.333 141.993 331.844 141.482 332.481 141.482C333.118 141.482 333.629 141.993 333.629 142.629Z" fill="#393939"/>
<path d="M341.524 135.231C341.524 135.863 341.013 136.378 340.376 136.378C339.739 136.378 339.228 135.868 339.228 135.231C339.228 134.595 339.739 134.084 340.376 134.084C341.013 134.084 341.524 134.595 341.524 135.231Z" fill="#393939"/>
<path d="M349.087 135.231C349.087 135.863 348.575 136.378 347.938 136.378C347.301 136.378 346.79 135.868 346.79 135.231C346.79 134.595 347.301 134.084 347.938 134.084C348.575 134.084 349.087 134.595 349.087 135.231Z" fill="#393939"/>
<path d="M341.524 142.629C341.524 143.262 341.013 143.777 340.376 143.777C339.739 143.777 339.228 143.266 339.228 142.629C339.228 141.993 339.739 141.482 340.376 141.482C341.013 141.482 341.524 141.993 341.524 142.629Z" fill="#393939"/>
<path d="M349.087 142.629C349.087 143.262 348.575 143.777 347.938 143.777C347.301 143.777 346.79 143.266 346.79 142.629C346.79 141.993 347.301 141.482 347.938 141.482C348.575 141.482 349.087 141.993 349.087 142.629Z" fill="#393939"/>
<path d="M356.977 135.231C356.977 135.863 356.466 136.378 355.829 136.378C355.192 136.378 354.681 135.868 354.681 135.231C354.681 134.595 355.192 134.084 355.829 134.084C356.466 134.084 356.977 134.595 356.977 135.231Z" fill="#393939"/>
<path d="M364.54 135.231C364.54 135.863 364.029 136.378 363.392 136.378C362.755 136.378 362.243 135.868 362.243 135.231C362.243 134.595 362.755 134.084 363.392 134.084C364.029 134.084 364.54 134.595 364.54 135.231Z" fill="#393939"/>
<path d="M356.977 142.629C356.977 143.262 356.466 143.777 355.829 143.777C355.192 143.777 354.681 143.266 354.681 142.629C354.681 141.993 355.192 141.482 355.829 141.482C356.466 141.482 356.977 141.993 356.977 142.629Z" fill="#393939"/>
<path d="M364.54 142.629C364.54 143.262 364.029 143.777 363.392 143.777C362.755 143.777 362.243 143.266 362.243 142.629C362.243 141.993 362.755 141.482 363.392 141.482C364.029 141.482 364.54 141.993 364.54 142.629Z" fill="#393939"/>
<path d="M326.067 150.109C326.067 150.741 325.556 151.256 324.919 151.256C324.282 151.256 323.771 150.745 323.771 150.109C323.771 149.472 324.282 148.961 324.919 148.961C325.556 148.961 326.067 149.472 326.067 150.109Z" fill="#393939"/>
<path d="M333.629 150.109C333.629 150.741 333.118 151.256 332.481 151.256C331.844 151.256 331.333 150.745 331.333 150.109C331.333 149.472 331.844 148.961 332.481 148.961C333.118 148.961 333.629 149.472 333.629 150.109Z" fill="#393939"/>
<path d="M326.067 157.507C326.067 158.139 325.556 158.654 324.919 158.654C324.282 158.654 323.771 158.143 323.771 157.507C323.771 156.87 324.282 156.36 324.919 156.36C325.556 156.36 326.067 156.87 326.067 157.507Z" fill="#393939"/>
<path d="M333.629 157.507C333.629 158.139 333.118 158.654 332.481 158.654C331.844 158.654 331.333 158.143 331.333 157.507C331.333 156.87 331.844 156.36 332.481 156.36C333.118 156.36 333.629 156.87 333.629 157.507Z" fill="#393939"/>
<path d="M341.524 150.109C341.524 150.741 341.013 151.256 340.376 151.256C339.739 151.256 339.228 150.745 339.228 150.109C339.228 149.472 339.739 148.961 340.376 148.961C341.013 148.961 341.524 149.472 341.524 150.109Z" fill="#393939"/>
<path d="M349.087 150.109C349.087 150.741 348.575 151.256 347.938 151.256C347.301 151.256 346.79 150.745 346.79 150.109C346.79 149.472 347.301 148.961 347.938 148.961C348.575 148.961 349.087 149.472 349.087 150.109Z" fill="#393939"/>
<path d="M341.524 157.507C341.524 158.139 341.013 158.654 340.376 158.654C339.739 158.654 339.228 158.143 339.228 157.507C339.228 156.87 339.739 156.36 340.376 156.36C341.013 156.36 341.524 156.87 341.524 157.507Z" fill="#393939"/>
<path d="M349.087 157.507C349.087 158.139 348.575 158.654 347.938 158.654C347.301 158.654 346.79 158.143 346.79 157.507C346.79 156.87 347.301 156.36 347.938 156.36C348.575 156.36 349.087 156.87 349.087 157.507Z" fill="#393939"/>
<path d="M356.977 150.109C356.977 150.741 356.466 151.256 355.829 151.256C355.192 151.256 354.681 150.745 354.681 150.109C354.681 149.472 355.192 148.961 355.829 148.961C356.466 148.961 356.977 149.472 356.977 150.109Z" fill="#393939"/>
<path d="M364.54 150.109C364.54 150.741 364.029 151.256 363.392 151.256C362.755 151.256 362.243 150.745 362.243 150.109C362.243 149.472 362.755 148.961 363.392 148.961C364.029 148.961 364.54 149.472 364.54 150.109Z" fill="#393939"/>
<path d="M355.833 158.654C356.468 158.654 356.982 158.14 356.982 157.507C356.982 156.873 356.468 156.36 355.833 156.36C355.199 156.36 354.685 156.873 354.685 157.507C354.685 158.14 355.199 158.654 355.833 158.654Z" fill="#393939"/>
<path d="M363.395 158.654C364.03 158.654 364.544 158.14 364.544 157.507C364.544 156.873 364.03 156.36 363.395 156.36C362.761 156.36 362.247 156.873 362.247 157.507C362.247 158.14 362.761 158.654 363.395 158.654Z" fill="#393939"/>
<path d="M372.528 120.354C372.528 120.986 372.016 121.501 371.38 121.501C370.743 121.501 370.231 120.99 370.231 120.354C370.231 119.717 370.743 119.206 371.38 119.206C372.016 119.206 372.528 119.717 372.528 120.354Z" fill="#393939"/>
<path d="M380.09 120.354C380.09 120.986 379.579 121.501 378.942 121.501C378.305 121.501 377.794 120.99 377.794 120.354C377.794 119.717 378.305 119.206 378.942 119.206C379.579 119.206 380.09 119.717 380.09 120.354Z" fill="#393939"/>
<path d="M372.528 127.752C372.528 128.384 372.016 128.899 371.38 128.899C370.743 128.899 370.231 128.388 370.231 127.752C370.231 127.115 370.743 126.605 371.38 126.605C372.016 126.605 372.528 127.115 372.528 127.752Z" fill="#393939"/>
<path d="M380.09 127.752C380.09 128.384 379.579 128.899 378.942 128.899C378.305 128.899 377.794 128.388 377.794 127.752C377.794 127.115 378.305 126.605 378.942 126.605C379.579 126.605 380.09 127.115 380.09 127.752Z" fill="#393939"/>
<path d="M386.837 121.501C387.471 121.501 387.985 120.987 387.985 120.354C387.985 119.72 387.471 119.206 386.837 119.206C386.203 119.206 385.689 119.72 385.689 120.354C385.689 120.987 386.203 121.501 386.837 121.501Z" fill="#393939"/>
<path d="M394.399 121.501C395.033 121.501 395.547 120.987 395.547 120.354C395.547 119.72 395.033 119.206 394.399 119.206C393.765 119.206 393.251 119.72 393.251 120.354C393.251 120.987 393.765 121.501 394.399 121.501Z" fill="#393939"/>
<path d="M387.981 127.752C387.981 128.384 387.47 128.899 386.833 128.899C386.196 128.899 385.685 128.388 385.685 127.752C385.685 127.115 386.196 126.605 386.833 126.605C387.47 126.605 387.981 127.115 387.981 127.752Z" fill="#393939"/>
<path d="M395.543 127.752C395.543 128.384 395.032 128.899 394.395 128.899C393.758 128.899 393.247 128.388 393.247 127.752C393.247 127.115 393.758 126.605 394.395 126.605C395.032 126.605 395.543 127.115 395.543 127.752Z" fill="#393939"/>
<path d="M402.29 121.501C402.924 121.501 403.438 120.987 403.438 120.354C403.438 119.72 402.924 119.206 402.29 119.206C401.656 119.206 401.142 119.72 401.142 120.354C401.142 120.987 401.656 121.501 402.29 121.501Z" fill="#393939"/>
<path d="M409.852 121.501C410.486 121.501 411 120.987 411 120.354C411 119.72 410.486 119.206 409.852 119.206C409.218 119.206 408.704 119.72 408.704 120.354C408.704 120.987 409.218 121.501 409.852 121.501Z" fill="#393939"/>
<path d="M403.438 127.752C403.438 128.384 402.927 128.899 402.29 128.899C401.653 128.899 401.142 128.388 401.142 127.752C401.142 127.115 401.653 126.605 402.29 126.605C402.927 126.605 403.438 127.115 403.438 127.752Z" fill="#393939"/>
<path d="M411 127.752C411 128.384 410.489 128.899 409.852 128.899C409.215 128.899 408.704 128.388 408.704 127.752C408.704 127.115 409.215 126.605 409.852 126.605C410.489 126.605 411 127.115 411 127.752Z" fill="#393939"/>
<path d="M372.528 135.231C372.528 135.863 372.016 136.378 371.38 136.378C370.743 136.378 370.231 135.868 370.231 135.231C370.231 134.595 370.743 134.084 371.38 134.084C372.016 134.084 372.528 134.595 372.528 135.231Z" fill="#393939"/>
<path d="M380.09 135.231C380.09 135.863 379.579 136.378 378.942 136.378C378.305 136.378 377.794 135.868 377.794 135.231C377.794 134.595 378.305 134.084 378.942 134.084C379.579 134.084 380.09 134.595 380.09 135.231Z" fill="#393939"/>
<path d="M372.528 142.629C372.528 143.262 372.016 143.777 371.38 143.777C370.743 143.777 370.231 143.266 370.231 142.629C370.231 141.993 370.743 141.482 371.38 141.482C372.016 141.482 372.528 141.993 372.528 142.629Z" fill="#393939"/>
<path d="M380.09 142.629C380.09 143.262 379.579 143.777 378.942 143.777C378.305 143.777 377.794 143.266 377.794 142.629C377.794 141.993 378.305 141.482 378.942 141.482C379.579 141.482 380.09 141.993 380.09 142.629Z" fill="#393939"/>
<path d="M387.981 135.231C387.981 135.863 387.47 136.378 386.833 136.378C386.196 136.378 385.685 135.868 385.685 135.231C385.685 134.595 386.196 134.084 386.833 134.084C387.47 134.084 387.981 134.595 387.981 135.231Z" fill="#393939"/>
<path d="M395.543 135.231C395.543 135.863 395.032 136.378 394.395 136.378C393.758 136.378 393.247 135.868 393.247 135.231C393.247 134.595 393.758 134.084 394.395 134.084C395.032 134.084 395.543 134.595 395.543 135.231Z" fill="#393939"/>
<path d="M387.981 142.629C387.981 143.262 387.47 143.777 386.833 143.777C386.196 143.777 385.685 143.266 385.685 142.629C385.685 141.993 386.196 141.482 386.833 141.482C387.47 141.482 387.981 141.993 387.981 142.629Z" fill="#393939"/>
<path d="M395.543 142.629C395.543 143.262 395.032 143.777 394.395 143.777C393.758 143.777 393.247 143.266 393.247 142.629C393.247 141.993 393.758 141.482 394.395 141.482C395.032 141.482 395.543 141.993 395.543 142.629Z" fill="#393939"/>
<path d="M403.438 135.231C403.438 135.863 402.927 136.378 402.29 136.378C401.653 136.378 401.142 135.868 401.142 135.231C401.142 134.595 401.653 134.084 402.29 134.084C402.927 134.084 403.438 134.595 403.438 135.231Z" fill="#393939"/>
<path d="M411 135.231C411 135.863 410.489 136.378 409.852 136.378C409.215 136.378 408.704 135.868 408.704 135.231C408.704 134.595 409.215 134.084 409.852 134.084C410.489 134.084 411 134.595 411 135.231Z" fill="#393939"/>
<path d="M403.438 142.629C403.438 143.262 402.927 143.777 402.29 143.777C401.653 143.777 401.142 143.266 401.142 142.629C401.142 141.993 401.653 141.482 402.29 141.482C402.927 141.482 403.438 141.993 403.438 142.629Z" fill="#393939"/>
<path d="M411 142.629C411 143.262 410.489 143.777 409.852 143.777C409.215 143.777 408.704 143.266 408.704 142.629C408.704 141.993 409.215 141.482 409.852 141.482C410.489 141.482 411 141.993 411 142.629Z" fill="#393939"/>
<path d="M372.528 150.109C372.528 150.741 372.016 151.256 371.38 151.256C370.743 151.256 370.231 150.745 370.231 150.109C370.231 149.472 370.743 148.961 371.38 148.961C372.016 148.961 372.528 149.472 372.528 150.109Z" fill="#393939"/>
<path d="M380.09 150.109C380.09 150.741 379.579 151.256 378.942 151.256C378.305 151.256 377.794 150.745 377.794 150.109C377.794 149.472 378.305 148.961 378.942 148.961C379.579 148.961 380.09 149.472 380.09 150.109Z" fill="#393939"/>
<path d="M372.528 157.507C372.528 158.139 372.016 158.654 371.38 158.654C370.743 158.654 370.231 158.143 370.231 157.507C370.231 156.87 370.743 156.36 371.38 156.36C372.016 156.36 372.528 156.87 372.528 157.507Z" fill="#393939"/>
<path d="M380.09 157.507C380.09 158.139 379.579 158.654 378.942 158.654C378.305 158.654 377.794 158.143 377.794 157.507C377.794 156.87 378.305 156.36 378.942 156.36C379.579 156.36 380.09 156.87 380.09 157.507Z" fill="#393939"/>
<path d="M387.981 150.109C387.981 150.741 387.47 151.256 386.833 151.256C386.196 151.256 385.685 150.745 385.685 150.109C385.685 149.472 386.196 148.961 386.833 148.961C387.47 148.961 387.981 149.472 387.981 150.109Z" fill="#393939"/>
<path d="M395.543 150.109C395.543 150.741 395.032 151.256 394.395 151.256C393.758 151.256 393.247 150.745 393.247 150.109C393.247 149.472 393.758 148.961 394.395 148.961C395.032 148.961 395.543 149.472 395.543 150.109Z" fill="#393939"/>
<path d="M386.837 158.654C387.471 158.654 387.985 158.14 387.985 157.507C387.985 156.873 387.471 156.36 386.837 156.36C386.203 156.36 385.689 156.873 385.689 157.507C385.689 158.14 386.203 158.654 386.837 158.654Z" fill="#393939"/>
<path d="M394.399 158.654C395.033 158.654 395.547 158.14 395.547 157.507C395.547 156.873 395.033 156.36 394.399 156.36C393.765 156.36 393.251 156.873 393.251 157.507C393.251 158.14 393.765 158.654 394.399 158.654Z" fill="#393939"/>
<path d="M403.438 150.109C403.438 150.741 402.927 151.256 402.29 151.256C401.653 151.256 401.142 150.745 401.142 150.109C401.142 149.472 401.653 148.961 402.29 148.961C402.927 148.961 403.438 149.472 403.438 150.109Z" fill="#393939"/>
<path d="M411 150.109C411 150.741 410.489 151.256 409.852 151.256C409.215 151.256 408.704 150.745 408.704 150.109C408.704 149.472 409.215 148.961 409.852 148.961C410.489 148.961 411 149.472 411 150.109Z" fill="#393939"/>
<path d="M402.29 158.654C402.924 158.654 403.438 158.14 403.438 157.507C403.438 156.873 402.924 156.36 402.29 156.36C401.656 156.36 401.142 156.873 401.142 157.507C401.142 158.14 401.656 158.654 402.29 158.654Z" fill="#393939"/>
<path d="M409.852 158.654C410.486 158.654 411 158.14 411 157.507C411 156.873 410.486 156.36 409.852 156.36C409.218 156.36 408.704 156.873 408.704 157.507C408.704 158.14 409.218 158.654 409.852 158.654Z" fill="#393939"/>
<path d="M89.586 220.912C83.8941 223.316 79.8979 228.951 79.8979 235.514C79.8979 244.266 86.9976 251.361 95.7567 251.361C97.3267 251.361 98.844 251.134 100.272 250.708" stroke="#FFD300" stroke-width="10" stroke-miterlimit="10"/>
<path d="M77.0092 381.687C77.0092 382.724 76.1694 383.563 75.1308 383.563C74.0922 383.563 73.2524 382.724 73.2524 381.687C73.2524 380.649 74.0922 379.81 75.1308 379.81C76.1694 379.81 77.0092 380.649 77.0092 381.687Z" fill="#393939"/>
<path d="M89.4033 381.687C89.4033 382.724 88.5635 383.563 87.5249 383.563C86.4863 383.563 85.6465 382.724 85.6465 381.687C85.6465 380.649 86.4863 379.81 87.5249 379.81C88.5635 379.81 89.4033 380.649 89.4033 381.687Z" fill="#393939"/>
<path d="M77.0092 393.812C77.0092 394.849 76.1694 395.688 75.1308 395.688C74.0922 395.688 73.2524 394.849 73.2524 393.812C73.2524 392.774 74.0922 391.935 75.1308 391.935C76.1694 391.935 77.0092 392.774 77.0092 393.812Z" fill="#393939"/>
<path d="M89.4033 393.812C89.4033 394.849 88.5635 395.688 87.5249 395.688C86.4863 395.688 85.6465 394.849 85.6465 393.812C85.6465 392.774 86.4863 391.935 87.5249 391.935C88.5635 391.935 89.4033 392.774 89.4033 393.812Z" fill="#393939"/>
<path d="M391.551 195.171C391.551 196.209 390.711 197.048 389.673 197.048C388.634 197.048 387.794 196.209 387.794 195.171C387.794 194.133 388.634 193.294 389.673 193.294C390.711 193.294 391.551 194.133 391.551 195.171Z" fill="#393939"/>
<path d="M403.945 195.171C403.945 196.209 403.105 197.048 402.067 197.048C401.028 197.048 400.188 196.209 400.188 195.171C400.188 194.133 401.028 193.294 402.067 193.294C403.105 193.294 403.945 194.133 403.945 195.171Z" fill="#393939"/>
<path d="M391.551 207.296C391.551 208.333 390.711 209.173 389.673 209.173C388.634 209.173 387.794 208.333 387.794 207.296C387.794 206.258 388.634 205.419 389.673 205.419C390.711 205.419 391.551 206.258 391.551 207.296Z" fill="#393939"/>
<path d="M403.945 207.296C403.945 208.333 403.105 209.173 402.067 209.173C401.028 209.173 400.188 208.333 400.188 207.296C400.188 206.258 401.028 205.419 402.067 205.419C403.105 205.419 403.945 206.258 403.945 207.296Z" fill="#393939"/>
<path d="M366.628 382.265C372.836 382.265 377.87 377.236 377.87 371.032C377.87 364.828 372.836 359.799 366.628 359.799C360.419 359.799 355.386 364.828 355.386 371.032C355.386 377.236 360.419 382.265 366.628 382.265Z" fill="#FFD300"/>
<path d="M21.4333 83.168C27.642 83.168 32.6752 78.1388 32.6752 71.9349C32.6752 65.731 27.642 60.7018 21.4333 60.7018C15.2246 60.7018 10.1914 65.731 10.1914 71.9349C10.1914 78.1388 15.2246 83.168 21.4333 83.168Z" fill="#FFD300"/>
<path d="M35.7014 226.596C40.4116 226.596 44.2251 222.781 44.2251 218.079C44.2251 213.372 40.4075 209.562 35.7014 209.562C30.9913 209.562 27.1777 213.376 27.1777 218.079C27.1777 222.785 30.9953 226.596 35.7014 226.596V226.596Z" stroke="#131B20" stroke-width="1.7" stroke-miterlimit="10" stroke-linecap="round"/>
<path d="M303.612 62.5057V76.1144" stroke="#393939" stroke-width="1.7" stroke-miterlimit="10" stroke-linecap="round"/>
<path d="M310.383 69.3121H296.764" stroke="#393939" stroke-width="1.7" stroke-miterlimit="10" stroke-linecap="round"/>
<path d="M425.109 380.773C428.035 380.773 430.407 378.403 430.407 375.479C430.407 372.555 428.035 370.185 425.109 370.185C422.183 370.185 419.811 372.555 419.811 375.479C419.811 378.403 422.183 380.773 425.109 380.773Z" stroke="#131B20" stroke-width="1.7" stroke-miterlimit="10" stroke-linecap="round"/>
<path d="M76.3077 152.869C79.2339 152.869 81.6061 150.499 81.6061 147.575C81.6061 144.651 79.2339 142.281 76.3077 142.281C73.3815 142.281 71.0093 144.651 71.0093 147.575C71.0093 150.499 73.3815 152.869 76.3077 152.869Z" fill="#393939" stroke="#393939" stroke-width="1.7" stroke-miterlimit="10" stroke-linecap="round"/>
<path d="M274.884 315.439L288.646 326.79L302.403 315.439L316.16 326.79L329.917 315.439L343.678 326.79" stroke="white" stroke-width="1.7" stroke-miterlimit="10" stroke-linecap="round"/>
<path d="M422.318 336.51C427.334 336.51 431.401 332.446 431.401 327.433C431.401 322.42 427.334 318.357 422.318 318.357C417.301 318.357 413.234 322.42 413.234 327.433C413.234 332.446 417.301 336.51 422.318 336.51Z" stroke="#FFD117" stroke-width="10" stroke-miterlimit="10"/>
<path d="M216.768 102.221L218.732 91.2959C219.011 89.7433 218.306 88.1744 216.955 87.3556L205.153 80.1722C202.569 78.5993 199.242 79.0128 197.12 81.1735C195.931 82.3856 191.075 86.6624 191.075 86.7597C191.075 86.7597 186.876 83.5044 184.048 86.7272C182.129 88.9122 184.345 92.8647 184.434 92.5931C183.326 95.1551 184.263 98.1387 186.637 99.6102L190.637 102.091L216.76 102.225L216.768 102.221Z" fill="black"/>
<path d="M375.619 129.965L366.531 119.32C366.531 119.32 362.62 128.4 362.722 128.696C362.819 128.988 375.623 129.965 375.623 129.965H375.619Z" fill="#131B20"/>
<path d="M132.407 366.983L123.255 356.083L130.213 351.911L132.407 366.983Z" fill="#131B20"/>
<path d="M269.298 398.834L376.378 137.132C378.187 132.714 375.526 127.744 370.844 126.791L250.173 102.29C246.664 101.576 243.135 103.405 241.686 106.676L131.202 356.78C128.772 362.281 131.762 368.658 137.548 370.312L257.387 404.615C262.251 406.009 267.387 403.516 269.302 398.838L269.298 398.834Z" fill="#131B20"/>
<path d="M260.421 388.61L367.501 126.909C369.31 122.49 366.649 117.52 361.967 116.567L241.296 92.0661C237.787 91.3526 234.254 93.1809 232.809 96.4523L122.326 346.556C119.895 352.057 122.885 358.434 128.671 360.088L248.51 394.391C253.374 395.782 258.51 393.293 260.425 388.615L260.421 388.61Z" fill="#131B20"/>
<path d="M133.194 361.446L248.721 394.513C253.585 395.907 258.721 393.414 260.636 388.736L367.42 127.76C367.85 126.714 368.11 125.603 368.138 124.472C368.17 123.203 367.943 121.655 366.982 120.301" stroke="white" stroke-width="1.7" stroke-miterlimit="10" stroke-linecap="round"/>
<path d="M204.475 254.113L156.193 360.578L248.636 385.919C250.1 386.32 251.634 385.57 252.214 384.167L305.466 255.568L204.475 254.109V254.113Z" fill="#FFD300"/>
<path d="M163.52 182.539L155.666 200.283L132.103 169.915L107.518 182.884L130.801 231.619C136.403 243.35 148.209 250.862 161.216 250.98C171.719 251.073 181.679 246.318 188.203 238.092L206.548 214.961C206.548 214.961 194.597 181.862 163.52 182.547V182.539Z" fill="#FF9845"/>
<path d="M181.468 203.546L211.701 207.45L204.476 254.109L218.557 285.279L309.535 232.129L270.767 163.62L251.009 121.894L191.534 145.455C179.176 150.299 170.381 161.415 168.531 174.553L181.468 203.55V203.546Z" fill="white"/>
<path d="M242.299 159.68C242.887 160.438 243.528 161.167 244.222 161.861C245.337 162.987 246.583 164.025 247.946 164.954L263.03 175.198L268.596 178.98L275.765 183.848L284.033 189.455L274.669 196.707L270.495 199.938L278.223 219.822L280.292 219.404L309.535 213.526C318.444 210.839 324.741 204.588 327.917 197.1C331.151 189.475 331.147 180.573 327.357 172.838C325.787 169.628 323.564 166.624 320.647 163.997L304.667 149.582L304.517 149.444L278.54 126.021C273.789 121.728 267.837 119.616 261.894 119.616C258.19 119.616 254.49 120.443 251.094 122.085C248.344 123.406 245.8 125.263 243.601 127.642C242.952 128.352 242.347 129.09 241.796 129.844C235.187 138.9 235.621 151.134 242.291 159.68H242.299Z" fill="#FF9845"/>
<path d="M246.571 166.401L275.623 183.707L304.529 149.44L278.402 125.875C273.655 121.586 267.7 119.474 261.76 119.474C255.054 119.474 248.368 122.182 243.467 127.5C233.219 138.657 234.035 157.9 246.575 166.401H246.571Z" fill="white"/>
<path d="M239.483 126.033L240.607 193.63L229.941 194.469L228.538 130.521L239.483 126.033Z" fill="#F0C806"/>
<path d="M206.816 139.062L207.94 206.659L199.27 206.842L198.378 142.366L206.816 139.062Z" fill="#F0C806"/>
<path d="M228.537 130.821L215.632 105.958L199.522 112.339L206.857 139.358C207.741 144.583 217.243 156.051 228.537 130.816V130.821Z" fill="#FF9845"/>
<path d="M207.896 90.2459L215.636 113.203L198.954 120.09C196.897 120.937 194.556 119.843 193.895 117.723L188.442 100.308C187.432 97.0847 189.465 93.7079 192.783 93.0836L207.896 90.2459Z" fill="#FF9845"/>
<path d="M210.091 105.294C211.571 107.471 214.391 108.139 216.383 106.785C218.375 105.432 218.793 102.57 217.312 100.389C215.831 98.2117 213.012 97.5428 211.02 98.8968C209.028 100.251 208.61 103.113 210.091 105.294Z" fill="#FF9845"/>
<path d="M201.303 118.963L207.421 116.227L203.177 125.802L201.303 118.963Z" fill="#131B20"/>
<path d="M198.694 98.9292C198.889 99.6143 199.453 100.056 199.952 99.9143C200.451 99.7724 200.699 99.1035 200.504 98.4144C200.309 97.7293 199.745 97.2874 199.246 97.4293C198.747 97.5712 198.5 98.24 198.694 98.9292Z" fill="#131B20"/>
<path d="M191.022 101.118C191.27 101.787 191.866 102.18 192.353 102.002C192.84 101.82 193.031 101.134 192.783 100.466C192.536 99.7967 191.939 99.4035 191.452 99.5819C190.966 99.7643 190.775 100.449 191.022 101.118Z" fill="#131B20"/>
<path d="M189.185 99.6346C189.501 100.097 190.235 99.5616 191.181 98.9211C192.126 98.2806 192.917 97.7739 192.601 97.3117C192.284 96.8496 191.266 96.9955 190.321 97.636C189.375 98.2765 188.868 99.1724 189.181 99.6346H189.185Z" fill="#131B20"/>
<path d="M201.619 96.0469C201.672 96.6023 200.763 96.6631 199.627 96.7726C198.492 96.882 197.558 96.9996 197.506 96.4402C197.453 95.8848 198.329 95.3456 199.465 95.2362C200.601 95.1267 201.567 95.4916 201.619 96.0469Z" fill="#131B20"/>
<path d="M195.274 99.3184L194.889 104.187C194.848 104.714 195.323 105.119 195.85 105.006L197.079 104.734" stroke="#131B20" stroke-width="1.7" stroke-miterlimit="10" stroke-linecap="round"/>
<path d="M215.081 100.839C215.008 100.936 213.482 102.797 213.011 103.372C212.947 103.449 212.995 103.563 213.093 103.583L215.762 104.09" stroke="#131B20" stroke-width="1.7" stroke-miterlimit="10" stroke-linecap="round"/>
<path d="M191.351 109.7L193.976 117.852C194.666 119.993 197.055 121.071 199.116 120.171L210.504 115.201C210.504 115.201 204.938 100.421 191.351 109.7Z" fill="black"/>
<path d="M211.68 88.6123L210.577 115.14L208.204 115.578L205.088 86.2448L211.68 88.6123Z" fill="black"/>
<path d="M268.823 178.858L262.681 174.979" stroke="#131B20" stroke-width="1.7" stroke-miterlimit="10" stroke-linecap="round"/>
<path d="M170.129 167.807L155.678 200.011L191.518 204.912L170.129 167.807Z" fill="white"/>
<path d="M135.705 175.676L132.419 151.276C132.22 149.809 131.117 148.625 129.669 148.321C127.798 147.932 125.961 149.115 125.543 150.976L123.157 161.609L115.023 162.124C109.055 162.501 104.605 167.767 105.229 173.71L106.852 189.131C107.205 192.467 109.903 195.069 113.254 195.3L121.461 195.868L135.701 175.672L135.705 175.676Z" fill="#FF9845"/>
<path d="M110.54 180.865C110.816 180.865 118.63 180.776 122.273 180.715C124.245 180.682 125.892 182.207 126.009 184.177C126.131 186.216 124.565 187.959 122.524 188.064" stroke="#131B20" stroke-width="1.7" stroke-miterlimit="10" stroke-linecap="round"/>
<path d="M109.842 172.555C110.159 172.555 119.007 172.453 123.218 172.38C125.498 172.34 127.401 174.107 127.535 176.381C127.673 178.737 125.867 180.755 123.51 180.877" stroke="#131B20" stroke-width="1.7" stroke-miterlimit="10" stroke-linecap="round"/>
<path d="M115.328 163.989C115.328 163.989 118.123 163.887 122.334 163.814C124.614 163.774 126.517 165.541 126.651 167.816C126.789 170.171 124.983 172.19 122.626 172.311" stroke="#131B20" stroke-width="1.7" stroke-miterlimit="10" stroke-linecap="round"/>
<path d="M112.163 188.259C112.415 188.259 117.194 188.178 120.545 188.121C122.358 188.089 123.872 189.495 123.977 191.303C124.087 193.176 122.65 194.782 120.772 194.879L112.845 195.288" stroke="#131B20" stroke-width="1.7" stroke-miterlimit="10" stroke-linecap="round"/>
<path d="M239.281 188.36L199.271 190.051L199.242 226.746L200.297 297.286L316.817 247.874L276.739 194.352L239.281 188.36Z" fill="#F0C806"/>
<path d="M166.291 212.071L156.169 200.469C156.128 200.412 156.169 200.335 156.242 200.347L169.447 202.277" stroke="#131B20" stroke-width="1.7" stroke-miterlimit="10" stroke-linecap="round"/>
<path d="M230.258 267.912L238.814 283.73L238.964 385.27" stroke="#131B20" stroke-width="1.7" stroke-miterlimit="10" stroke-linecap="round"/>
<path d="M208.849 225.716H260.295V195.495H208.849V225.716Z" stroke="#131B20" stroke-width="1.7" stroke-miterlimit="10" stroke-linecap="round"/>
<path d="M234.083 223.458L232.31 213.048L238.59 215.197L238.002 222.866L234.083 223.458Z" fill="#FF9845"/>
<path d="M201.027 192.726L215.75 202.642L215.77 202.609C218.249 198.933 223.239 197.964 226.923 200.441C230.602 202.918 231.584 207.912 229.101 211.589L229.085 211.613L336.944 284.221C348.449 291.959 364.052 288.919 371.801 277.423C379.55 265.926 376.507 250.335 365.006 242.592L257.143 169.984C254.607 173.471 249.751 174.346 246.149 171.922C242.546 169.498 241.544 164.674 243.828 161.017L229.093 151.102L217.644 168.083L211.77 176.795L201.027 192.722V192.726Z" fill="#131B20"/>
<path d="M108.54 107.43L115.051 111.804L115.133 111.861L132.57 123.572L178.328 154.324L198.735 168.034L200.625 169.303L207.392 173.856L210.954 176.248L211.77 176.795L217.644 168.083L215.267 166.486L207.181 161.05L204.938 159.542L198.556 155.253L187.091 147.547L139.483 115.554L120.995 103.129L120.93 103.084L114.419 98.7103L108.54 107.43Z" fill="#D6D6D6"/>
<path d="M78.5264 87.0515L98.8802 108.983L111.315 117.354L115.051 111.804L120.93 103.084L124.378 97.9725L111.944 89.6054L83.5164 79.6493L78.5264 87.0515Z" fill="#D6D6D6"/>
<path d="M354.279 266.112C356.608 262.659 355.695 257.972 352.238 255.645L264.867 196.833C261.411 194.506 256.721 195.418 254.392 198.872C252.063 202.326 252.976 207.012 256.433 209.339L343.804 268.151C347.26 270.478 351.95 269.566 354.279 266.112Z" stroke="#FFD300" stroke-width="1.7" stroke-miterlimit="10" stroke-linecap="round"/>
<path d="M369.12 244.1C371.449 240.646 370.536 235.96 367.079 233.633L279.708 174.821C276.252 172.494 271.562 173.406 269.233 176.86C266.904 180.313 267.817 185 271.274 187.327L358.645 246.139C362.101 248.466 366.791 247.554 369.12 244.1V244.1Z" stroke="#FFD300" stroke-width="1.7" stroke-miterlimit="10" stroke-linecap="round"/>
<path d="M340.278 286.876C342.607 283.422 341.694 278.736 338.238 276.409L250.867 217.596C247.41 215.269 242.72 216.182 240.392 219.635C238.063 223.089 238.976 227.775 242.432 230.102L329.803 288.915C333.26 291.242 337.95 290.33 340.278 286.876Z" stroke="#FFD300" stroke-width="1.7" stroke-miterlimit="10" stroke-linecap="round"/>
<path d="M237.775 148.738L200.187 204.49" stroke="#131B20" stroke-width="1.7" stroke-miterlimit="10" stroke-linecap="round"/>
<path d="M278.43 181.051L257.614 203.538L247.313 205.942L248.822 211.175L234.83 220.069C233.349 222.437 234.193 225.566 236.668 226.867L252.989 235.457C255.561 236.811 258.608 236.917 261.269 235.741C274.856 229.725 316.667 211.135 316.667 210.239C316.667 209.164 278.43 181.059 278.43 181.059V181.051Z" fill="#FF9845"/>
<path d="M261.46 203.201L239.337 203.777C238.1 203.862 237.013 204.628 236.518 205.767C235.722 207.608 236.733 209.724 238.664 210.267L249.683 213.36L261.46 203.201Z" fill="#FF9845"/>
<path d="M247.199 223.892L239.978 227.934" stroke="#131B20" stroke-width="1.7" stroke-miterlimit="10" stroke-linecap="round"/>
<path d="M251.723 228.631L246.315 231.57" stroke="#131B20" stroke-width="1.7" stroke-miterlimit="10" stroke-linecap="round"/>
<path d="M256.786 232.186L252.681 234.509" stroke="#131B20" stroke-width="1.7" stroke-miterlimit="10" stroke-linecap="round"/>
<path d="M291.433 182C290.808 182.158 275.623 183.707 275.623 183.707L285.96 171.691" stroke="#131B20" stroke-width="1.7" stroke-miterlimit="10" stroke-linecap="round"/>
<path d="M284.568 112.655L305.401 117.605C306.65 117.901 307.9 117.131 308.196 115.886C308.492 114.638 307.721 113.389 306.476 113.093L285.643 108.144C284.394 107.848 283.144 108.618 282.848 109.862C282.552 111.111 283.323 112.359 284.568 112.655Z" stroke="white" stroke-width="1.7" stroke-miterlimit="10" stroke-linecap="round"/>
<path d="M206.7 97.1058C209.393 96.7744 211.307 94.3244 210.976 91.6334C210.644 88.9425 208.192 87.0297 205.499 87.3611C202.806 87.6924 200.892 90.1425 201.223 92.8334C201.555 95.5243 204.007 97.4371 206.7 97.1058Z" fill="black"/>
<path d="M200.706 108.784L194.349 110.389C194.349 110.389 198.004 116.669 200.706 108.784Z" fill="white"/>
<path d="M78.4819 87.0556L98.8358 108.987L111.27 117.354L115.011 111.804L115.088 111.857L132.525 123.572C135.13 121.258 137.462 118.574 139.442 115.554L120.95 103.129L120.89 103.084L124.334 97.9725L111.899 89.6054L83.472 79.6493L78.4819 87.0515V87.0556Z" fill="white"/>
<path d="M121.019 103.097L115.1 111.901" stroke="#131B20" stroke-width="1.7" stroke-miterlimit="10" stroke-linecap="round"/>
<path d="M297.818 143.144L269.233 176.698" stroke="#131B20" stroke-width="1.7" stroke-miterlimit="10" stroke-linecap="round"/>
<path d="M198.852 199.5L159.045 194.259" stroke="#131B20" stroke-width="1.7" stroke-miterlimit="10" stroke-linecap="round"/>
<path d="M205.481 289.774L183.939 289.665L168.409 321.994C167.346 324.208 168.96 326.77 171.415 326.77H185.148C187.854 326.77 190.292 325.124 191.298 322.61L205.481 289.77V289.774Z" fill="#F0C806"/>
<path d="M171.415 326.944H185.148C187.854 326.944 190.292 325.298 191.298 322.785L205.482 289.945L190.495 289.868" stroke="#131B20" stroke-width="1.7" stroke-miterlimit="10" stroke-linecap="round"/>
<path d="M202.22 296.925H181.067" stroke="#131B20" stroke-width="1.7" stroke-miterlimit="10" stroke-linecap="round"/>
</svg>
