<svg width="430" height="438" viewBox="0 0 430 438" fill="none" xmlns="http://www.w3.org/2000/svg">
<path d="M35.8793 122.046C45.7529 112.18 41.9589 92.3932 27.4051 77.8507C12.8513 63.3082 -6.95113 59.5172 -16.8248 69.3831C-26.6985 79.2491 -22.9044 99.036 -8.3506 113.578C6.20322 128.121 26.0056 131.912 35.8793 122.046Z" fill="#F5F6FA"/>
<path d="M375.078 344.38C426.582 292.916 413.095 196 344.954 127.912C276.813 59.8243 179.821 46.3477 128.317 97.8114C76.813 149.275 90.3002 246.191 158.441 314.279C226.583 382.367 323.574 395.844 375.078 344.38Z" fill="#F5F6FA"/>
<path d="M14.8116 264.976C14.8116 265.608 14.3005 266.123 13.6635 266.123C13.0266 266.123 12.5154 265.612 12.5154 264.976C12.5154 264.34 13.0266 263.829 13.6635 263.829C14.3005 263.829 14.8116 264.34 14.8116 264.976Z" fill="#E6E3F5"/>
<path d="M22.3739 264.976C22.3739 265.608 21.8627 266.123 21.2258 266.123C20.5888 266.123 20.0776 265.612 20.0776 264.976C20.0776 264.34 20.5888 263.829 21.2258 263.829C21.8627 263.829 22.3739 264.34 22.3739 264.976Z" fill="#E6E3F5"/>
<path d="M14.8116 272.374C14.8116 273.007 14.3005 273.521 13.6635 273.521C13.0266 273.521 12.5154 273.011 12.5154 272.374C12.5154 271.738 13.0266 271.227 13.6635 271.227C14.3005 271.227 14.8116 271.738 14.8116 272.374Z" fill="#E6E3F5"/>
<path d="M22.3739 272.374C22.3739 273.007 21.8627 273.521 21.2258 273.521C20.5888 273.521 20.0776 273.011 20.0776 272.374C20.0776 271.738 20.5888 271.227 21.2258 271.227C21.8627 271.227 22.3739 271.738 22.3739 272.374Z" fill="#E6E3F5"/>
<path d="M30.2648 264.976C30.2648 265.608 29.7536 266.123 29.1166 266.123C28.4797 266.123 27.9685 265.612 27.9685 264.976C27.9685 264.34 28.4797 263.829 29.1166 263.829C29.7536 263.829 30.2648 264.34 30.2648 264.976Z" fill="#E6E3F5"/>
<path d="M37.827 264.976C37.827 265.608 37.3158 266.123 36.6789 266.123C36.0419 266.123 35.5308 265.612 35.5308 264.976C35.5308 264.34 36.0419 263.829 36.6789 263.829C37.3158 263.829 37.827 264.34 37.827 264.976Z" fill="#E6E3F5"/>
<path d="M29.1208 273.521C29.7549 273.521 30.2689 273.008 30.2689 272.374C30.2689 271.741 29.7549 271.227 29.1208 271.227C28.4867 271.227 27.9727 271.741 27.9727 272.374C27.9727 273.008 28.4867 273.521 29.1208 273.521Z" fill="#E6E3F5"/>
<path d="M36.6828 273.521C37.3169 273.521 37.8309 273.008 37.8309 272.374C37.8309 271.741 37.3169 271.227 36.6828 271.227C36.0487 271.227 35.5347 271.741 35.5347 272.374C35.5347 273.008 36.0487 273.521 36.6828 273.521Z" fill="#E6E3F5"/>
<path d="M45.7218 264.976C45.7218 265.608 45.2106 266.123 44.5737 266.123C43.9367 266.123 43.4255 265.612 43.4255 264.976C43.4255 264.34 43.9367 263.829 44.5737 263.829C45.2106 263.829 45.7218 264.34 45.7218 264.976Z" fill="#E6E3F5"/>
<path d="M53.284 264.976C53.284 265.608 52.7728 266.123 52.1359 266.123C51.499 266.123 50.9878 265.612 50.9878 264.976C50.9878 264.34 51.499 263.829 52.1359 263.829C52.7728 263.829 53.284 264.34 53.284 264.976Z" fill="#E6E3F5"/>
<path d="M44.5737 273.521C45.2078 273.521 45.7218 273.008 45.7218 272.374C45.7218 271.741 45.2078 271.227 44.5737 271.227C43.9396 271.227 43.4255 271.741 43.4255 272.374C43.4255 273.008 43.9396 273.521 44.5737 273.521Z" fill="#E6E3F5"/>
<path d="M52.1359 273.521C52.77 273.521 53.284 273.008 53.284 272.374C53.284 271.741 52.77 271.227 52.1359 271.227C51.5018 271.227 50.9878 271.741 50.9878 272.374C50.9878 273.008 51.5018 273.521 52.1359 273.521Z" fill="#E6E3F5"/>
<path d="M14.8116 279.854C14.8116 280.486 14.3005 281.001 13.6635 281.001C13.0266 281.001 12.5154 280.49 12.5154 279.854C12.5154 279.217 13.0266 278.706 13.6635 278.706C14.3005 278.706 14.8116 279.217 14.8116 279.854Z" fill="#E6E3F5"/>
<path d="M22.3739 279.854C22.3739 280.486 21.8627 281.001 21.2258 281.001C20.5888 281.001 20.0776 280.49 20.0776 279.854C20.0776 279.217 20.5888 278.706 21.2258 278.706C21.8627 278.706 22.3739 279.217 22.3739 279.854Z" fill="#E6E3F5"/>
<path d="M14.8116 287.252C14.8116 287.884 14.3005 288.399 13.6635 288.399C13.0266 288.399 12.5154 287.888 12.5154 287.252C12.5154 286.615 13.0266 286.104 13.6635 286.104C14.3005 286.104 14.8116 286.615 14.8116 287.252Z" fill="#E6E3F5"/>
<path d="M22.3739 287.252C22.3739 287.884 21.8627 288.399 21.2258 288.399C20.5888 288.399 20.0776 287.888 20.0776 287.252C20.0776 286.615 20.5888 286.104 21.2258 286.104C21.8627 286.104 22.3739 286.615 22.3739 287.252Z" fill="#E6E3F5"/>
<path d="M29.121 281.001C29.7551 281.001 30.2692 280.487 30.2692 279.854C30.2692 279.22 29.7551 278.706 29.121 278.706C28.4869 278.706 27.9729 279.22 27.9729 279.854C27.9729 280.487 28.4869 281.001 29.121 281.001Z" fill="#E6E3F5"/>
<path d="M36.6828 281.001C37.3169 281.001 37.8309 280.487 37.8309 279.854C37.8309 279.22 37.3169 278.706 36.6828 278.706C36.0487 278.706 35.5347 279.22 35.5347 279.854C35.5347 280.487 36.0487 281.001 36.6828 281.001Z" fill="#E6E3F5"/>
<path d="M30.2648 287.252C30.2648 287.884 29.7536 288.399 29.1166 288.399C28.4797 288.399 27.9685 287.888 27.9685 287.252C27.9685 286.615 28.4797 286.104 29.1166 286.104C29.7536 286.104 30.2648 286.615 30.2648 287.252Z" fill="#E6E3F5"/>
<path d="M37.827 287.252C37.827 287.884 37.3158 288.399 36.6789 288.399C36.0419 288.399 35.5308 287.888 35.5308 287.252C35.5308 286.615 36.0419 286.104 36.6789 286.104C37.3158 286.104 37.827 286.615 37.827 287.252Z" fill="#E6E3F5"/>
<path d="M44.5737 281.001C45.2078 281.001 45.7218 280.487 45.7218 279.854C45.7218 279.22 45.2078 278.706 44.5737 278.706C43.9396 278.706 43.4255 279.22 43.4255 279.854C43.4255 280.487 43.9396 281.001 44.5737 281.001Z" fill="#E6E3F5"/>
<path d="M52.1359 281.001C52.77 281.001 53.284 280.487 53.284 279.854C53.284 279.22 52.77 278.706 52.1359 278.706C51.5018 278.706 50.9878 279.22 50.9878 279.854C50.9878 280.487 51.5018 281.001 52.1359 281.001Z" fill="#E6E3F5"/>
<path d="M45.7218 287.252C45.7218 287.884 45.2106 288.399 44.5737 288.399C43.9367 288.399 43.4255 287.888 43.4255 287.252C43.4255 286.615 43.9367 286.104 44.5737 286.104C45.2106 286.104 45.7218 286.615 45.7218 287.252Z" fill="#E6E3F5"/>
<path d="M53.284 287.252C53.284 287.884 52.7728 288.399 52.1359 288.399C51.499 288.399 50.9878 287.888 50.9878 287.252C50.9878 286.615 51.499 286.104 52.1359 286.104C52.7728 286.104 53.284 286.615 53.284 287.252Z" fill="#E6E3F5"/>
<path d="M14.8116 294.735C14.8116 295.367 14.3005 295.882 13.6635 295.882C13.0266 295.882 12.5154 295.372 12.5154 294.735C12.5154 294.099 13.0266 293.588 13.6635 293.588C14.3005 293.588 14.8116 294.099 14.8116 294.735Z" fill="#E6E3F5"/>
<path d="M22.3739 294.735C22.3739 295.367 21.8627 295.882 21.2258 295.882C20.5888 295.882 20.0776 295.372 20.0776 294.735C20.0776 294.099 20.5888 293.588 21.2258 293.588C21.8627 293.588 22.3739 294.099 22.3739 294.735Z" fill="#E6E3F5"/>
<path d="M14.8116 302.133C14.8116 302.766 14.3005 303.28 13.6635 303.28C13.0266 303.28 12.5154 302.77 12.5154 302.133C12.5154 301.497 13.0266 300.986 13.6635 300.986C14.3005 300.986 14.8116 301.497 14.8116 302.133Z" fill="#E6E3F5"/>
<path d="M22.3739 302.133C22.3739 302.766 21.8627 303.28 21.2258 303.28C20.5888 303.28 20.0776 302.77 20.0776 302.133C20.0776 301.497 20.5888 300.986 21.2258 300.986C21.8627 300.986 22.3739 301.497 22.3739 302.133Z" fill="#E6E3F5"/>
<path d="M30.2648 294.735C30.2648 295.367 29.7536 295.882 29.1166 295.882C28.4797 295.882 27.9685 295.372 27.9685 294.735C27.9685 294.099 28.4797 293.588 29.1166 293.588C29.7536 293.588 30.2648 294.099 30.2648 294.735Z" fill="#E6E3F5"/>
<path d="M37.827 294.735C37.827 295.367 37.3158 295.882 36.6789 295.882C36.0419 295.882 35.5308 295.372 35.5308 294.735C35.5308 294.099 36.0419 293.588 36.6789 293.588C37.3158 293.588 37.827 294.099 37.827 294.735Z" fill="#E6E3F5"/>
<path d="M30.2648 302.133C30.2648 302.766 29.7536 303.28 29.1166 303.28C28.4797 303.28 27.9685 302.77 27.9685 302.133C27.9685 301.497 28.4797 300.986 29.1166 300.986C29.7536 300.986 30.2648 301.497 30.2648 302.133Z" fill="#E6E3F5"/>
<path d="M37.827 302.133C37.827 302.766 37.3158 303.28 36.6789 303.28C36.0419 303.28 35.5308 302.77 35.5308 302.133C35.5308 301.497 36.0419 300.986 36.6789 300.986C37.3158 300.986 37.827 301.497 37.827 302.133Z" fill="#E6E3F5"/>
<path d="M45.7218 294.735C45.7218 295.367 45.2106 295.882 44.5737 295.882C43.9367 295.882 43.4255 295.372 43.4255 294.735C43.4255 294.099 43.9367 293.588 44.5737 293.588C45.2106 293.588 45.7218 294.099 45.7218 294.735Z" fill="#E6E3F5"/>
<path d="M53.284 294.735C53.284 295.367 52.7728 295.882 52.1359 295.882C51.499 295.882 50.9878 295.372 50.9878 294.735C50.9878 294.099 51.499 293.588 52.1359 293.588C52.7728 293.588 53.284 294.099 53.284 294.735Z" fill="#E6E3F5"/>
<path d="M45.7218 302.133C45.7218 302.766 45.2106 303.28 44.5737 303.28C43.9367 303.28 43.4255 302.77 43.4255 302.133C43.4255 301.497 43.9367 300.986 44.5737 300.986C45.2106 300.986 45.7218 301.497 45.7218 302.133Z" fill="#E6E3F5"/>
<path d="M53.284 302.133C53.284 302.766 52.7728 303.28 52.1359 303.28C51.499 303.28 50.9878 302.77 50.9878 302.133C50.9878 301.497 51.499 300.986 52.1359 300.986C52.7728 300.986 53.284 301.497 53.284 302.133Z" fill="#E6E3F5"/>
<path d="M61.2682 264.976C61.2682 265.608 60.757 266.123 60.1201 266.123C59.4831 266.123 58.9719 265.612 58.9719 264.976C58.9719 264.34 59.4831 263.829 60.1201 263.829C60.757 263.829 61.2682 264.34 61.2682 264.976Z" fill="#E6E3F5"/>
<path d="M68.8304 264.976C68.8304 265.608 68.3192 266.123 67.6823 266.123C67.0453 266.123 66.5342 265.612 66.5342 264.976C66.5342 264.34 67.0453 263.829 67.6823 263.829C68.3192 263.829 68.8304 264.34 68.8304 264.976Z" fill="#E6E3F5"/>
<path d="M60.1242 273.521C60.7583 273.521 61.2723 273.008 61.2723 272.374C61.2723 271.741 60.7583 271.227 60.1242 271.227C59.4901 271.227 58.9761 271.741 58.9761 272.374C58.9761 273.008 59.4901 273.521 60.1242 273.521Z" fill="#E6E3F5"/>
<path d="M67.6862 273.521C68.3203 273.521 68.8343 273.008 68.8343 272.374C68.8343 271.741 68.3203 271.227 67.6862 271.227C67.0521 271.227 66.5381 271.741 66.5381 272.374C66.5381 273.008 67.0521 273.521 67.6862 273.521Z" fill="#E6E3F5"/>
<path d="M76.7252 264.976C76.7252 265.608 76.214 266.123 75.5771 266.123C74.9401 266.123 74.429 265.612 74.429 264.976C74.429 264.34 74.9401 263.829 75.5771 263.829C76.214 263.829 76.7252 264.34 76.7252 264.976Z" fill="#E6E3F5"/>
<path d="M84.2874 264.976C84.2874 265.608 83.7763 266.123 83.1393 266.123C82.5024 266.123 81.9912 265.612 81.9912 264.976C81.9912 264.34 82.5024 263.829 83.1393 263.829C83.7763 263.829 84.2874 264.34 84.2874 264.976Z" fill="#E6E3F5"/>
<path d="M75.5771 273.521C76.2112 273.521 76.7252 273.008 76.7252 272.374C76.7252 271.741 76.2112 271.227 75.5771 271.227C74.943 271.227 74.429 271.741 74.429 272.374C74.429 273.008 74.943 273.521 75.5771 273.521Z" fill="#E6E3F5"/>
<path d="M83.1393 273.521C83.7734 273.521 84.2874 273.008 84.2874 272.374C84.2874 271.741 83.7734 271.227 83.1393 271.227C82.5053 271.227 81.9912 271.741 81.9912 272.374C81.9912 273.008 82.5053 273.521 83.1393 273.521Z" fill="#E6E3F5"/>
<path d="M92.1783 264.976C92.1783 265.608 91.6672 266.123 91.0302 266.123C90.3933 266.123 89.8821 265.612 89.8821 264.976C89.8821 264.34 90.3933 263.829 91.0302 263.829C91.6672 263.829 92.1783 264.34 92.1783 264.976Z" fill="#E6E3F5"/>
<path d="M99.7406 264.976C99.7406 265.608 99.2294 266.123 98.5924 266.123C97.9555 266.123 97.4443 265.612 97.4443 264.976C97.4443 264.34 97.9555 263.829 98.5924 263.829C99.2294 263.829 99.7406 264.34 99.7406 264.976Z" fill="#E6E3F5"/>
<path d="M91.0343 273.521C91.6684 273.521 92.1825 273.008 92.1825 272.374C92.1825 271.741 91.6684 271.227 91.0343 271.227C90.4002 271.227 89.8862 271.741 89.8862 272.374C89.8862 273.008 90.4002 273.521 91.0343 273.521Z" fill="#E6E3F5"/>
<path d="M98.5964 273.521C99.2305 273.521 99.7445 273.008 99.7445 272.374C99.7445 271.741 99.2305 271.227 98.5964 271.227C97.9623 271.227 97.4482 271.741 97.4482 272.374C97.4482 273.008 97.9623 273.521 98.5964 273.521Z" fill="#E6E3F5"/>
<path d="M60.1244 281.001C60.7585 281.001 61.2726 280.487 61.2726 279.854C61.2726 279.22 60.7585 278.706 60.1244 278.706C59.4903 278.706 58.9763 279.22 58.9763 279.854C58.9763 280.487 59.4903 281.001 60.1244 281.001Z" fill="#E6E3F5"/>
<path d="M67.6862 281.001C68.3203 281.001 68.8343 280.487 68.8343 279.854C68.8343 279.22 68.3203 278.706 67.6862 278.706C67.0521 278.706 66.5381 279.22 66.5381 279.854C66.5381 280.487 67.0521 281.001 67.6862 281.001Z" fill="#E6E3F5"/>
<path d="M61.2682 287.252C61.2682 287.884 60.757 288.399 60.1201 288.399C59.4831 288.399 58.9719 287.888 58.9719 287.252C58.9719 286.615 59.4831 286.104 60.1201 286.104C60.757 286.104 61.2682 286.615 61.2682 287.252Z" fill="#E6E3F5"/>
<path d="M68.8304 287.252C68.8304 287.884 68.3192 288.399 67.6823 288.399C67.0453 288.399 66.5342 287.888 66.5342 287.252C66.5342 286.615 67.0453 286.104 67.6823 286.104C68.3192 286.104 68.8304 286.615 68.8304 287.252Z" fill="#E6E3F5"/>
<path d="M75.5771 281.001C76.2112 281.001 76.7252 280.487 76.7252 279.854C76.7252 279.22 76.2112 278.706 75.5771 278.706C74.943 278.706 74.429 279.22 74.429 279.854C74.429 280.487 74.943 281.001 75.5771 281.001Z" fill="#E6E3F5"/>
<path d="M83.1393 281.001C83.7734 281.001 84.2874 280.487 84.2874 279.854C84.2874 279.22 83.7734 278.706 83.1393 278.706C82.5053 278.706 81.9912 279.22 81.9912 279.854C81.9912 280.487 82.5053 281.001 83.1393 281.001Z" fill="#E6E3F5"/>
<path d="M76.7252 287.252C76.7252 287.884 76.214 288.399 75.5771 288.399C74.9401 288.399 74.429 287.888 74.429 287.252C74.429 286.615 74.9401 286.104 75.5771 286.104C76.214 286.104 76.7252 286.615 76.7252 287.252Z" fill="#E6E3F5"/>
<path d="M84.2874 287.252C84.2874 287.884 83.7763 288.399 83.1393 288.399C82.5024 288.399 81.9912 287.888 81.9912 287.252C81.9912 286.615 82.5024 286.104 83.1393 286.104C83.7763 286.104 84.2874 286.615 84.2874 287.252Z" fill="#E6E3F5"/>
<path d="M91.0346 281.001C91.6687 281.001 92.1827 280.487 92.1827 279.854C92.1827 279.22 91.6687 278.706 91.0346 278.706C90.4005 278.706 89.8865 279.22 89.8865 279.854C89.8865 280.487 90.4005 281.001 91.0346 281.001Z" fill="#E6E3F5"/>
<path d="M98.5964 281.001C99.2305 281.001 99.7445 280.487 99.7445 279.854C99.7445 279.22 99.2305 278.706 98.5964 278.706C97.9623 278.706 97.4482 279.22 97.4482 279.854C97.4482 280.487 97.9623 281.001 98.5964 281.001Z" fill="#E6E3F5"/>
<path d="M92.1783 287.252C92.1783 287.884 91.6672 288.399 91.0302 288.399C90.3933 288.399 89.8821 287.888 89.8821 287.252C89.8821 286.615 90.3933 286.104 91.0302 286.104C91.6672 286.104 92.1783 286.615 92.1783 287.252Z" fill="#E6E3F5"/>
<path d="M99.7406 287.252C99.7406 287.884 99.2294 288.399 98.5924 288.399C97.9555 288.399 97.4443 287.888 97.4443 287.252C97.4443 286.615 97.9555 286.104 98.5924 286.104C99.2294 286.104 99.7406 286.615 99.7406 287.252Z" fill="#E6E3F5"/>
<path d="M61.2682 294.735C61.2682 295.367 60.757 295.882 60.1201 295.882C59.4831 295.882 58.9719 295.372 58.9719 294.735C58.9719 294.099 59.4831 293.588 60.1201 293.588C60.757 293.588 61.2682 294.099 61.2682 294.735Z" fill="#E6E3F5"/>
<path d="M68.8304 294.735C68.8304 295.367 68.3192 295.882 67.6823 295.882C67.0453 295.882 66.5342 295.372 66.5342 294.735C66.5342 294.099 67.0453 293.588 67.6823 293.588C68.3192 293.588 68.8304 294.099 68.8304 294.735Z" fill="#E6E3F5"/>
<path d="M61.2682 302.133C61.2682 302.766 60.757 303.28 60.1201 303.28C59.4831 303.28 58.9719 302.77 58.9719 302.133C58.9719 301.497 59.4831 300.986 60.1201 300.986C60.757 300.986 61.2682 301.497 61.2682 302.133Z" fill="#E6E3F5"/>
<path d="M68.8304 302.133C68.8304 302.766 68.3192 303.28 67.6823 303.28C67.0453 303.28 66.5342 302.77 66.5342 302.133C66.5342 301.497 67.0453 300.986 67.6823 300.986C68.3192 300.986 68.8304 301.497 68.8304 302.133Z" fill="#E6E3F5"/>
<path d="M76.7252 294.735C76.7252 295.367 76.214 295.882 75.5771 295.882C74.9401 295.882 74.429 295.372 74.429 294.735C74.429 294.099 74.9401 293.588 75.5771 293.588C76.214 293.588 76.7252 294.099 76.7252 294.735Z" fill="#E6E3F5"/>
<path d="M84.2874 294.735C84.2874 295.367 83.7763 295.882 83.1393 295.882C82.5024 295.882 81.9912 295.372 81.9912 294.735C81.9912 294.099 82.5024 293.588 83.1393 293.588C83.7763 293.588 84.2874 294.099 84.2874 294.735Z" fill="#E6E3F5"/>
<path d="M76.7252 302.133C76.7252 302.766 76.214 303.28 75.5771 303.28C74.9401 303.28 74.429 302.77 74.429 302.133C74.429 301.497 74.9401 300.986 75.5771 300.986C76.214 300.986 76.7252 301.497 76.7252 302.133Z" fill="#E6E3F5"/>
<path d="M84.2874 302.133C84.2874 302.766 83.7763 303.28 83.1393 303.28C82.5024 303.28 81.9912 302.77 81.9912 302.133C81.9912 301.497 82.5024 300.986 83.1393 300.986C83.7763 300.986 84.2874 301.497 84.2874 302.133Z" fill="#E6E3F5"/>
<path d="M92.1783 294.735C92.1783 295.367 91.6672 295.882 91.0302 295.882C90.3933 295.882 89.8821 295.372 89.8821 294.735C89.8821 294.099 90.3933 293.588 91.0302 293.588C91.6672 293.588 92.1783 294.099 92.1783 294.735Z" fill="#E6E3F5"/>
<path d="M99.7406 294.735C99.7406 295.367 99.2294 295.882 98.5924 295.882C97.9555 295.882 97.4443 295.372 97.4443 294.735C97.4443 294.099 97.9555 293.588 98.5924 293.588C99.2294 293.588 99.7406 294.099 99.7406 294.735Z" fill="#E6E3F5"/>
<path d="M92.1783 302.133C92.1783 302.766 91.6672 303.28 91.0302 303.28C90.3933 303.28 89.8821 302.77 89.8821 302.133C89.8821 301.497 90.3933 300.986 91.0302 300.986C91.6672 300.986 92.1783 301.497 92.1783 302.133Z" fill="#E6E3F5"/>
<path d="M99.7406 302.133C99.7406 302.766 99.2294 303.28 98.5924 303.28C97.9555 303.28 97.4443 302.77 97.4443 302.133C97.4443 301.497 97.9555 300.986 98.5924 300.986C99.2294 300.986 99.7406 301.497 99.7406 302.133Z" fill="#E6E3F5"/>
<path d="M14.8116 309.864C14.8116 310.496 14.3005 311.011 13.6635 311.011C13.0266 311.011 12.5154 310.5 12.5154 309.864C12.5154 309.227 13.0266 308.717 13.6635 308.717C14.3005 308.717 14.8116 309.227 14.8116 309.864Z" fill="#E6E3F5"/>
<path d="M22.3739 309.864C22.3739 310.496 21.8627 311.011 21.2258 311.011C20.5888 311.011 20.0776 310.5 20.0776 309.864C20.0776 309.227 20.5888 308.717 21.2258 308.717C21.8627 308.717 22.3739 309.227 22.3739 309.864Z" fill="#E6E3F5"/>
<path d="M14.8116 317.262C14.8116 317.894 14.3005 318.409 13.6635 318.409C13.0266 318.409 12.5154 317.899 12.5154 317.262C12.5154 316.626 13.0266 316.115 13.6635 316.115C14.3005 316.115 14.8116 316.626 14.8116 317.262Z" fill="#E6E3F5"/>
<path d="M22.3739 317.262C22.3739 317.894 21.8627 318.409 21.2258 318.409C20.5888 318.409 20.0776 317.899 20.0776 317.262C20.0776 316.626 20.5888 316.115 21.2258 316.115C21.8627 316.115 22.3739 316.626 22.3739 317.262Z" fill="#E6E3F5"/>
<path d="M30.2648 309.864C30.2648 310.496 29.7536 311.011 29.1166 311.011C28.4797 311.011 27.9685 310.5 27.9685 309.864C27.9685 309.227 28.4797 308.717 29.1166 308.717C29.7536 308.717 30.2648 309.227 30.2648 309.864Z" fill="#E6E3F5"/>
<path d="M37.827 309.864C37.827 310.496 37.3158 311.011 36.6789 311.011C36.0419 311.011 35.5308 310.5 35.5308 309.864C35.5308 309.227 36.0419 308.717 36.6789 308.717C37.3158 308.717 37.827 309.227 37.827 309.864Z" fill="#E6E3F5"/>
<path d="M30.2648 317.262C30.2648 317.894 29.7536 318.409 29.1166 318.409C28.4797 318.409 27.9685 317.899 27.9685 317.262C27.9685 316.626 28.4797 316.115 29.1166 316.115C29.7536 316.115 30.2648 316.626 30.2648 317.262Z" fill="#E6E3F5"/>
<path d="M37.827 317.262C37.827 317.894 37.3158 318.409 36.6789 318.409C36.0419 318.409 35.5308 317.899 35.5308 317.262C35.5308 316.626 36.0419 316.115 36.6789 316.115C37.3158 316.115 37.827 316.626 37.827 317.262Z" fill="#E6E3F5"/>
<path d="M45.7218 309.864C45.7218 310.496 45.2106 311.011 44.5737 311.011C43.9367 311.011 43.4255 310.5 43.4255 309.864C43.4255 309.227 43.9367 308.717 44.5737 308.717C45.2106 308.717 45.7218 309.227 45.7218 309.864Z" fill="#E6E3F5"/>
<path d="M53.284 309.864C53.284 310.496 52.7728 311.011 52.1359 311.011C51.499 311.011 50.9878 310.5 50.9878 309.864C50.9878 309.227 51.499 308.717 52.1359 308.717C52.7728 308.717 53.284 309.227 53.284 309.864Z" fill="#E6E3F5"/>
<path d="M45.7218 317.262C45.7218 317.894 45.2106 318.409 44.5737 318.409C43.9367 318.409 43.4255 317.899 43.4255 317.262C43.4255 316.626 43.9367 316.115 44.5737 316.115C45.2106 316.115 45.7218 316.626 45.7218 317.262Z" fill="#E6E3F5"/>
<path d="M53.284 317.262C53.284 317.894 52.7728 318.409 52.1359 318.409C51.499 318.409 50.9878 317.899 50.9878 317.262C50.9878 316.626 51.499 316.115 52.1359 316.115C52.7728 316.115 53.284 316.626 53.284 317.262Z" fill="#E6E3F5"/>
<path d="M14.8116 324.741C14.8116 325.374 14.3005 325.889 13.6635 325.889C13.0266 325.889 12.5154 325.378 12.5154 324.741C12.5154 324.105 13.0266 323.594 13.6635 323.594C14.3005 323.594 14.8116 324.105 14.8116 324.741Z" fill="#E6E3F5"/>
<path d="M22.3739 324.741C22.3739 325.374 21.8627 325.889 21.2258 325.889C20.5888 325.889 20.0776 325.378 20.0776 324.741C20.0776 324.105 20.5888 323.594 21.2258 323.594C21.8627 323.594 22.3739 324.105 22.3739 324.741Z" fill="#E6E3F5"/>
<path d="M14.8116 332.14C14.8116 332.772 14.3005 333.287 13.6635 333.287C13.0266 333.287 12.5154 332.776 12.5154 332.14C12.5154 331.503 13.0266 330.992 13.6635 330.992C14.3005 330.992 14.8116 331.503 14.8116 332.14Z" fill="#E6E3F5"/>
<path d="M22.3739 332.14C22.3739 332.772 21.8627 333.287 21.2258 333.287C20.5888 333.287 20.0776 332.776 20.0776 332.14C20.0776 331.503 20.5888 330.992 21.2258 330.992C21.8627 330.992 22.3739 331.503 22.3739 332.14Z" fill="#E6E3F5"/>
<path d="M29.1205 325.889C29.7546 325.889 30.2687 325.375 30.2687 324.741C30.2687 324.108 29.7546 323.594 29.1205 323.594C28.4864 323.594 27.9724 324.108 27.9724 324.741C27.9724 325.375 28.4864 325.889 29.1205 325.889Z" fill="#E6E3F5"/>
<path d="M36.6828 325.889C37.3169 325.889 37.8309 325.375 37.8309 324.741C37.8309 324.108 37.3169 323.594 36.6828 323.594C36.0487 323.594 35.5347 324.108 35.5347 324.741C35.5347 325.375 36.0487 325.889 36.6828 325.889Z" fill="#E6E3F5"/>
<path d="M29.1205 333.287C29.7546 333.287 30.2687 332.773 30.2687 332.14C30.2687 331.506 29.7546 330.992 29.1205 330.992C28.4864 330.992 27.9724 331.506 27.9724 332.14C27.9724 332.773 28.4864 333.287 29.1205 333.287Z" fill="#E6E3F5"/>
<path d="M36.6828 333.287C37.3169 333.287 37.8309 332.773 37.8309 332.14C37.8309 331.506 37.3169 330.992 36.6828 330.992C36.0487 330.992 35.5347 331.506 35.5347 332.14C35.5347 332.773 36.0487 333.287 36.6828 333.287Z" fill="#E6E3F5"/>
<path d="M44.5737 325.889C45.2078 325.889 45.7218 325.375 45.7218 324.741C45.7218 324.108 45.2078 323.594 44.5737 323.594C43.9396 323.594 43.4255 324.108 43.4255 324.741C43.4255 325.375 43.9396 325.889 44.5737 325.889Z" fill="#E6E3F5"/>
<path d="M52.1359 325.889C52.77 325.889 53.284 325.375 53.284 324.741C53.284 324.108 52.77 323.594 52.1359 323.594C51.5018 323.594 50.9878 324.108 50.9878 324.741C50.9878 325.375 51.5018 325.889 52.1359 325.889Z" fill="#E6E3F5"/>
<path d="M44.5737 333.287C45.2078 333.287 45.7218 332.773 45.7218 332.14C45.7218 331.506 45.2078 330.992 44.5737 330.992C43.9396 330.992 43.4255 331.506 43.4255 332.14C43.4255 332.773 43.9396 333.287 44.5737 333.287Z" fill="#E6E3F5"/>
<path d="M52.1359 333.287C52.77 333.287 53.284 332.773 53.284 332.14C53.284 331.506 52.77 330.992 52.1359 330.992C51.5018 330.992 50.9878 331.506 50.9878 332.14C50.9878 332.773 51.5018 333.287 52.1359 333.287Z" fill="#E6E3F5"/>
<path d="M14.8116 339.619C14.8116 340.251 14.3005 340.766 13.6635 340.766C13.0266 340.766 12.5154 340.255 12.5154 339.619C12.5154 338.982 13.0266 338.472 13.6635 338.472C14.3005 338.472 14.8116 338.982 14.8116 339.619Z" fill="#E6E3F5"/>
<path d="M22.3739 339.619C22.3739 340.251 21.8627 340.766 21.2258 340.766C20.5888 340.766 20.0776 340.255 20.0776 339.619C20.0776 338.982 20.5888 338.472 21.2258 338.472C21.8627 338.472 22.3739 338.982 22.3739 339.619Z" fill="#E6E3F5"/>
<path d="M14.8116 347.017C14.8116 347.649 14.3005 348.164 13.6635 348.164C13.0266 348.164 12.5154 347.654 12.5154 347.017C12.5154 346.381 13.0266 345.87 13.6635 345.87C14.3005 345.87 14.8116 346.381 14.8116 347.017Z" fill="#E6E3F5"/>
<path d="M22.3739 347.017C22.3739 347.649 21.8627 348.164 21.2258 348.164C20.5888 348.164 20.0776 347.654 20.0776 347.017C20.0776 346.381 20.5888 345.87 21.2258 345.87C21.8627 345.87 22.3739 346.381 22.3739 347.017Z" fill="#E6E3F5"/>
<path d="M29.121 340.766C29.7551 340.766 30.2692 340.252 30.2692 339.619C30.2692 338.985 29.7551 338.472 29.121 338.472C28.4869 338.472 27.9729 338.985 27.9729 339.619C27.9729 340.252 28.4869 340.766 29.121 340.766Z" fill="#E6E3F5"/>
<path d="M36.6828 340.766C37.3169 340.766 37.8309 340.252 37.8309 339.619C37.8309 338.985 37.3169 338.472 36.6828 338.472C36.0487 338.472 35.5347 338.985 35.5347 339.619C35.5347 340.252 36.0487 340.766 36.6828 340.766Z" fill="#E6E3F5"/>
<path d="M30.2648 347.017C30.2648 347.649 29.7536 348.164 29.1166 348.164C28.4797 348.164 27.9685 347.654 27.9685 347.017C27.9685 346.381 28.4797 345.87 29.1166 345.87C29.7536 345.87 30.2648 346.381 30.2648 347.017Z" fill="#E6E3F5"/>
<path d="M37.827 347.017C37.827 347.649 37.3158 348.164 36.6789 348.164C36.0419 348.164 35.5308 347.654 35.5308 347.017C35.5308 346.381 36.0419 345.87 36.6789 345.87C37.3158 345.87 37.827 346.381 37.827 347.017Z" fill="#E6E3F5"/>
<path d="M44.5737 340.766C45.2078 340.766 45.7218 340.252 45.7218 339.619C45.7218 338.985 45.2078 338.472 44.5737 338.472C43.9396 338.472 43.4255 338.985 43.4255 339.619C43.4255 340.252 43.9396 340.766 44.5737 340.766Z" fill="#E6E3F5"/>
<path d="M52.1359 340.766C52.77 340.766 53.284 340.252 53.284 339.619C53.284 338.985 52.77 338.472 52.1359 338.472C51.5018 338.472 50.9878 338.985 50.9878 339.619C50.9878 340.252 51.5018 340.766 52.1359 340.766Z" fill="#E6E3F5"/>
<path d="M45.7218 347.017C45.7218 347.649 45.2106 348.164 44.5737 348.164C43.9367 348.164 43.4255 347.654 43.4255 347.017C43.4255 346.381 43.9367 345.87 44.5737 345.87C45.2106 345.87 45.7218 346.381 45.7218 347.017Z" fill="#E6E3F5"/>
<path d="M53.284 347.017C53.284 347.649 52.7728 348.164 52.1359 348.164C51.499 348.164 50.9878 347.654 50.9878 347.017C50.9878 346.381 51.499 345.87 52.1359 345.87C52.7728 345.87 53.284 346.381 53.284 347.017Z" fill="#E6E3F5"/>
<path d="M61.2682 309.864C61.2682 310.496 60.757 311.011 60.1201 311.011C59.4831 311.011 58.9719 310.5 58.9719 309.864C58.9719 309.227 59.4831 308.717 60.1201 308.717C60.757 308.717 61.2682 309.227 61.2682 309.864Z" fill="#E6E3F5"/>
<path d="M68.8304 309.864C68.8304 310.496 68.3192 311.011 67.6823 311.011C67.0453 311.011 66.5342 310.5 66.5342 309.864C66.5342 309.227 67.0453 308.717 67.6823 308.717C68.3192 308.717 68.8304 309.227 68.8304 309.864Z" fill="#E6E3F5"/>
<path d="M61.2682 317.262C61.2682 317.894 60.757 318.409 60.1201 318.409C59.4831 318.409 58.9719 317.899 58.9719 317.262C58.9719 316.626 59.4831 316.115 60.1201 316.115C60.757 316.115 61.2682 316.626 61.2682 317.262Z" fill="#E6E3F5"/>
<path d="M68.8304 317.262C68.8304 317.894 68.3192 318.409 67.6823 318.409C67.0453 318.409 66.5342 317.899 66.5342 317.262C66.5342 316.626 67.0453 316.115 67.6823 316.115C68.3192 316.115 68.8304 316.626 68.8304 317.262Z" fill="#E6E3F5"/>
<path d="M76.7252 309.864C76.7252 310.496 76.214 311.011 75.5771 311.011C74.9401 311.011 74.429 310.5 74.429 309.864C74.429 309.227 74.9401 308.717 75.5771 308.717C76.214 308.717 76.7252 309.227 76.7252 309.864Z" fill="#E6E3F5"/>
<path d="M84.2874 309.864C84.2874 310.496 83.7763 311.011 83.1393 311.011C82.5024 311.011 81.9912 310.5 81.9912 309.864C81.9912 309.227 82.5024 308.717 83.1393 308.717C83.7763 308.717 84.2874 309.227 84.2874 309.864Z" fill="#E6E3F5"/>
<path d="M76.7252 317.262C76.7252 317.894 76.214 318.409 75.5771 318.409C74.9401 318.409 74.429 317.899 74.429 317.262C74.429 316.626 74.9401 316.115 75.5771 316.115C76.214 316.115 76.7252 316.626 76.7252 317.262Z" fill="#E6E3F5"/>
<path d="M84.2874 317.262C84.2874 317.894 83.7763 318.409 83.1393 318.409C82.5024 318.409 81.9912 317.899 81.9912 317.262C81.9912 316.626 82.5024 316.115 83.1393 316.115C83.7763 316.115 84.2874 316.626 84.2874 317.262Z" fill="#E6E3F5"/>
<path d="M92.1783 309.864C92.1783 310.496 91.6672 311.011 91.0302 311.011C90.3933 311.011 89.8821 310.5 89.8821 309.864C89.8821 309.227 90.3933 308.717 91.0302 308.717C91.6672 308.717 92.1783 309.227 92.1783 309.864Z" fill="#E6E3F5"/>
<path d="M99.7406 309.864C99.7406 310.496 99.2294 311.011 98.5924 311.011C97.9555 311.011 97.4443 310.5 97.4443 309.864C97.4443 309.227 97.9555 308.717 98.5924 308.717C99.2294 308.717 99.7406 309.227 99.7406 309.864Z" fill="#E6E3F5"/>
<path d="M92.1783 317.262C92.1783 317.894 91.6672 318.409 91.0302 318.409C90.3933 318.409 89.8821 317.899 89.8821 317.262C89.8821 316.626 90.3933 316.115 91.0302 316.115C91.6672 316.115 92.1783 316.626 92.1783 317.262Z" fill="#E6E3F5"/>
<path d="M99.7406 317.262C99.7406 317.894 99.2294 318.409 98.5924 318.409C97.9555 318.409 97.4443 317.899 97.4443 317.262C97.4443 316.626 97.9555 316.115 98.5924 316.115C99.2294 316.115 99.7406 316.626 99.7406 317.262Z" fill="#E6E3F5"/>
<path d="M60.1242 325.889C60.7583 325.889 61.2723 325.375 61.2723 324.741C61.2723 324.108 60.7583 323.594 60.1242 323.594C59.4901 323.594 58.9761 324.108 58.9761 324.741C58.9761 325.375 59.4901 325.889 60.1242 325.889Z" fill="#E6E3F5"/>
<path d="M67.6865 325.889C68.3206 325.889 68.8346 325.375 68.8346 324.741C68.8346 324.108 68.3206 323.594 67.6865 323.594C67.0524 323.594 66.5383 324.108 66.5383 324.741C66.5383 325.375 67.0524 325.889 67.6865 325.889Z" fill="#E6E3F5"/>
<path d="M60.1242 333.287C60.7583 333.287 61.2723 332.773 61.2723 332.14C61.2723 331.506 60.7583 330.992 60.1242 330.992C59.4901 330.992 58.9761 331.506 58.9761 332.14C58.9761 332.773 59.4901 333.287 60.1242 333.287Z" fill="#E6E3F5"/>
<path d="M67.6865 333.287C68.3206 333.287 68.8346 332.773 68.8346 332.14C68.8346 331.506 68.3206 330.992 67.6865 330.992C67.0524 330.992 66.5383 331.506 66.5383 332.14C66.5383 332.773 67.0524 333.287 67.6865 333.287Z" fill="#E6E3F5"/>
<path d="M75.5771 325.889C76.2112 325.889 76.7252 325.375 76.7252 324.741C76.7252 324.108 76.2112 323.594 75.5771 323.594C74.943 323.594 74.429 324.108 74.429 324.741C74.429 325.375 74.943 325.889 75.5771 325.889Z" fill="#E6E3F5"/>
<path d="M83.1393 325.889C83.7734 325.889 84.2874 325.375 84.2874 324.741C84.2874 324.108 83.7734 323.594 83.1393 323.594C82.5053 323.594 81.9912 324.108 81.9912 324.741C81.9912 325.375 82.5053 325.889 83.1393 325.889Z" fill="#E6E3F5"/>
<path d="M75.5771 333.287C76.2112 333.287 76.7252 332.773 76.7252 332.14C76.7252 331.506 76.2112 330.992 75.5771 330.992C74.943 330.992 74.429 331.506 74.429 332.14C74.429 332.773 74.943 333.287 75.5771 333.287Z" fill="#E6E3F5"/>
<path d="M83.1393 333.287C83.7734 333.287 84.2874 332.773 84.2874 332.14C84.2874 331.506 83.7734 330.992 83.1393 330.992C82.5053 330.992 81.9912 331.506 81.9912 332.14C81.9912 332.773 82.5053 333.287 83.1393 333.287Z" fill="#E6E3F5"/>
<path d="M91.0343 325.889C91.6684 325.889 92.1825 325.375 92.1825 324.741C92.1825 324.108 91.6684 323.594 91.0343 323.594C90.4002 323.594 89.8862 324.108 89.8862 324.741C89.8862 325.375 90.4002 325.889 91.0343 325.889Z" fill="#E6E3F5"/>
<path d="M98.5966 325.889C99.2307 325.889 99.7448 325.375 99.7448 324.741C99.7448 324.108 99.2307 323.594 98.5966 323.594C97.9625 323.594 97.4485 324.108 97.4485 324.741C97.4485 325.375 97.9625 325.889 98.5966 325.889Z" fill="#E6E3F5"/>
<path d="M91.0343 333.287C91.6684 333.287 92.1825 332.773 92.1825 332.14C92.1825 331.506 91.6684 330.992 91.0343 330.992C90.4002 330.992 89.8862 331.506 89.8862 332.14C89.8862 332.773 90.4002 333.287 91.0343 333.287Z" fill="#E6E3F5"/>
<path d="M98.5966 333.287C99.2307 333.287 99.7448 332.773 99.7448 332.14C99.7448 331.506 99.2307 330.992 98.5966 330.992C97.9625 330.992 97.4485 331.506 97.4485 332.14C97.4485 332.773 97.9625 333.287 98.5966 333.287Z" fill="#E6E3F5"/>
<path d="M60.1244 340.766C60.7585 340.766 61.2726 340.252 61.2726 339.619C61.2726 338.985 60.7585 338.472 60.1244 338.472C59.4903 338.472 58.9763 338.985 58.9763 339.619C58.9763 340.252 59.4903 340.766 60.1244 340.766Z" fill="#E6E3F5"/>
<path d="M67.6862 340.766C68.3203 340.766 68.8343 340.252 68.8343 339.619C68.8343 338.985 68.3203 338.472 67.6862 338.472C67.0521 338.472 66.5381 338.985 66.5381 339.619C66.5381 340.252 67.0521 340.766 67.6862 340.766Z" fill="#E6E3F5"/>
<path d="M61.2682 347.017C61.2682 347.649 60.757 348.164 60.1201 348.164C59.4831 348.164 58.9719 347.654 58.9719 347.017C58.9719 346.381 59.4831 345.87 60.1201 345.87C60.757 345.87 61.2682 346.381 61.2682 347.017Z" fill="#E6E3F5"/>
<path d="M68.8304 347.017C68.8304 347.649 68.3192 348.164 67.6823 348.164C67.0453 348.164 66.5342 347.654 66.5342 347.017C66.5342 346.381 67.0453 345.87 67.6823 345.87C68.3192 345.87 68.8304 346.381 68.8304 347.017Z" fill="#E6E3F5"/>
<path d="M75.5771 340.766C76.2112 340.766 76.7252 340.252 76.7252 339.619C76.7252 338.985 76.2112 338.472 75.5771 338.472C74.943 338.472 74.429 338.985 74.429 339.619C74.429 340.252 74.943 340.766 75.5771 340.766Z" fill="#E6E3F5"/>
<path d="M83.1393 340.766C83.7734 340.766 84.2874 340.252 84.2874 339.619C84.2874 338.985 83.7734 338.472 83.1393 338.472C82.5053 338.472 81.9912 338.985 81.9912 339.619C81.9912 340.252 82.5053 340.766 83.1393 340.766Z" fill="#E6E3F5"/>
<path d="M76.7252 347.017C76.7252 347.649 76.214 348.164 75.5771 348.164C74.9401 348.164 74.429 347.654 74.429 347.017C74.429 346.381 74.9401 345.87 75.5771 345.87C76.214 345.87 76.7252 346.381 76.7252 347.017Z" fill="#E6E3F5"/>
<path d="M84.2874 347.017C84.2874 347.649 83.7763 348.164 83.1393 348.164C82.5024 348.164 81.9912 347.654 81.9912 347.017C81.9912 346.381 82.5024 345.87 83.1393 345.87C83.7763 345.87 84.2874 346.381 84.2874 347.017Z" fill="#E6E3F5"/>
<path d="M91.0346 340.766C91.6687 340.766 92.1827 340.252 92.1827 339.619C92.1827 338.985 91.6687 338.472 91.0346 338.472C90.4005 338.472 89.8865 338.985 89.8865 339.619C89.8865 340.252 90.4005 340.766 91.0346 340.766Z" fill="#E6E3F5"/>
<path d="M98.5964 340.766C99.2305 340.766 99.7445 340.252 99.7445 339.619C99.7445 338.985 99.2305 338.472 98.5964 338.472C97.9623 338.472 97.4482 338.985 97.4482 339.619C97.4482 340.252 97.9623 340.766 98.5964 340.766Z" fill="#E6E3F5"/>
<path d="M92.1783 347.017C92.1783 347.649 91.6672 348.164 91.0302 348.164C90.3933 348.164 89.8821 347.654 89.8821 347.017C89.8821 346.381 90.3933 345.87 91.0302 345.87C91.6672 345.87 92.1783 346.381 92.1783 347.017Z" fill="#E6E3F5"/>
<path d="M99.7406 347.017C99.7406 347.649 99.2294 348.164 98.5924 348.164C97.9555 348.164 97.4443 347.654 97.4443 347.017C97.4443 346.381 97.9555 345.87 98.5924 345.87C99.2294 345.87 99.7406 346.381 99.7406 347.017Z" fill="#E6E3F5"/>
<path d="M326.067 76.4657C326.067 77.0981 325.556 77.613 324.919 77.613C324.282 77.613 323.771 77.1022 323.771 76.4657C323.771 75.8293 324.282 75.3185 324.919 75.3185C325.556 75.3185 326.067 75.8293 326.067 76.4657Z" fill="#E6E3F5"/>
<path d="M333.629 76.4657C333.629 77.0981 333.118 77.613 332.481 77.613C331.844 77.613 331.333 77.1022 331.333 76.4657C331.333 75.8293 331.844 75.3185 332.481 75.3185C333.118 75.3185 333.629 75.8293 333.629 76.4657Z" fill="#E6E3F5"/>
<path d="M326.067 83.8639C326.067 84.4963 325.556 85.0112 324.919 85.0112C324.282 85.0112 323.771 84.5004 323.771 83.8639C323.771 83.2275 324.282 82.7167 324.919 82.7167C325.556 82.7167 326.067 83.2275 326.067 83.8639Z" fill="#E6E3F5"/>
<path d="M333.629 83.8639C333.629 84.4963 333.118 85.0112 332.481 85.0112C331.844 85.0112 331.333 84.5004 331.333 83.8639C331.333 83.2275 331.844 82.7167 332.481 82.7167C333.118 82.7167 333.629 83.2275 333.629 83.8639Z" fill="#E6E3F5"/>
<path d="M341.524 76.4657C341.524 77.0981 341.013 77.613 340.376 77.613C339.739 77.613 339.228 77.1022 339.228 76.4657C339.228 75.8293 339.739 75.3185 340.376 75.3185C341.013 75.3185 341.524 75.8293 341.524 76.4657Z" fill="#E6E3F5"/>
<path d="M349.087 76.4657C349.087 77.0981 348.575 77.613 347.938 77.613C347.301 77.613 346.79 77.1022 346.79 76.4657C346.79 75.8293 347.301 75.3185 347.938 75.3185C348.575 75.3185 349.087 75.8293 349.087 76.4657Z" fill="#E6E3F5"/>
<path d="M341.524 83.8639C341.524 84.4963 341.013 85.0112 340.376 85.0112C339.739 85.0112 339.228 84.5004 339.228 83.8639C339.228 83.2275 339.739 82.7167 340.376 82.7167C341.013 82.7167 341.524 83.2275 341.524 83.8639Z" fill="#E6E3F5"/>
<path d="M349.087 83.8639C349.087 84.4963 348.575 85.0112 347.938 85.0112C347.301 85.0112 346.79 84.5004 346.79 83.8639C346.79 83.2275 347.301 82.7167 347.938 82.7167C348.575 82.7167 349.087 83.2275 349.087 83.8639Z" fill="#E6E3F5"/>
<path d="M356.977 76.4657C356.977 77.0981 356.466 77.613 355.829 77.613C355.192 77.613 354.681 77.1022 354.681 76.4657C354.681 75.8293 355.192 75.3185 355.829 75.3185C356.466 75.3185 356.977 75.8293 356.977 76.4657Z" fill="#E6E3F5"/>
<path d="M364.54 76.4657C364.54 77.0981 364.029 77.613 363.392 77.613C362.755 77.613 362.243 77.1022 362.243 76.4657C362.243 75.8293 362.755 75.3185 363.392 75.3185C364.029 75.3185 364.54 75.8293 364.54 76.4657Z" fill="#E6E3F5"/>
<path d="M356.977 83.8639C356.977 84.4963 356.466 85.0112 355.829 85.0112C355.192 85.0112 354.681 84.5004 354.681 83.8639C354.681 83.2275 355.192 82.7167 355.829 82.7167C356.466 82.7167 356.977 83.2275 356.977 83.8639Z" fill="#E6E3F5"/>
<path d="M364.54 83.8639C364.54 84.4963 364.029 85.0112 363.392 85.0112C362.755 85.0112 362.243 84.5004 362.243 83.8639C362.243 83.2275 362.755 82.7167 363.392 82.7167C364.029 82.7167 364.54 83.2275 364.54 83.8639Z" fill="#E6E3F5"/>
<path d="M326.067 91.3432C326.067 91.9756 325.556 92.4904 324.919 92.4904C324.282 92.4904 323.771 91.9797 323.771 91.3432C323.771 90.7068 324.282 90.196 324.919 90.196C325.556 90.196 326.067 90.7068 326.067 91.3432Z" fill="#E6E3F5"/>
<path d="M333.629 91.3432C333.629 91.9756 333.118 92.4904 332.481 92.4904C331.844 92.4904 331.333 91.9797 331.333 91.3432C331.333 90.7068 331.844 90.196 332.481 90.196C333.118 90.196 333.629 90.7068 333.629 91.3432Z" fill="#E6E3F5"/>
<path d="M326.067 98.7414C326.067 99.3738 325.556 99.8886 324.919 99.8886C324.282 99.8886 323.771 99.3779 323.771 98.7414C323.771 98.105 324.282 97.5942 324.919 97.5942C325.556 97.5942 326.067 98.105 326.067 98.7414Z" fill="#E6E3F5"/>
<path d="M333.629 98.7414C333.629 99.3738 333.118 99.8886 332.481 99.8886C331.844 99.8886 331.333 99.3779 331.333 98.7414C331.333 98.105 331.844 97.5942 332.481 97.5942C333.118 97.5942 333.629 98.105 333.629 98.7414Z" fill="#E6E3F5"/>
<path d="M341.524 91.3432C341.524 91.9756 341.013 92.4904 340.376 92.4904C339.739 92.4904 339.228 91.9797 339.228 91.3432C339.228 90.7068 339.739 90.196 340.376 90.196C341.013 90.196 341.524 90.7068 341.524 91.3432Z" fill="#E6E3F5"/>
<path d="M349.087 91.3432C349.087 91.9756 348.575 92.4904 347.938 92.4904C347.301 92.4904 346.79 91.9797 346.79 91.3432C346.79 90.7068 347.301 90.196 347.938 90.196C348.575 90.196 349.087 90.7068 349.087 91.3432Z" fill="#E6E3F5"/>
<path d="M341.524 98.7414C341.524 99.3738 341.013 99.8886 340.376 99.8886C339.739 99.8886 339.228 99.3779 339.228 98.7414C339.228 98.105 339.739 97.5942 340.376 97.5942C341.013 97.5942 341.524 98.105 341.524 98.7414Z" fill="#E6E3F5"/>
<path d="M349.087 98.7414C349.087 99.3738 348.575 99.8886 347.938 99.8886C347.301 99.8886 346.79 99.3779 346.79 98.7414C346.79 98.105 347.301 97.5942 347.938 97.5942C348.575 97.5942 349.087 98.105 349.087 98.7414Z" fill="#E6E3F5"/>
<path d="M356.977 91.3432C356.977 91.9756 356.466 92.4904 355.829 92.4904C355.192 92.4904 354.681 91.9797 354.681 91.3432C354.681 90.7068 355.192 90.196 355.829 90.196C356.466 90.196 356.977 90.7068 356.977 91.3432Z" fill="#E6E3F5"/>
<path d="M364.54 91.3432C364.54 91.9756 364.029 92.4904 363.392 92.4904C362.755 92.4904 362.243 91.9797 362.243 91.3432C362.243 90.7068 362.755 90.196 363.392 90.196C364.029 90.196 364.54 90.7068 364.54 91.3432Z" fill="#E6E3F5"/>
<path d="M355.833 99.8886C356.468 99.8886 356.982 99.375 356.982 98.7414C356.982 98.1078 356.468 97.5942 355.833 97.5942C355.199 97.5942 354.685 98.1078 354.685 98.7414C354.685 99.375 355.199 99.8886 355.833 99.8886Z" fill="#E6E3F5"/>
<path d="M363.395 99.8886C364.03 99.8886 364.544 99.375 364.544 98.7414C364.544 98.1078 364.03 97.5942 363.395 97.5942C362.761 97.5942 362.247 98.1078 362.247 98.7414C362.247 99.375 362.761 99.8886 363.395 99.8886Z" fill="#E6E3F5"/>
<path d="M326.067 106.225C326.067 106.857 325.556 107.372 324.919 107.372C324.282 107.372 323.771 106.861 323.771 106.225C323.771 105.588 324.282 105.078 324.919 105.078C325.556 105.078 326.067 105.588 326.067 106.225Z" fill="#E6E3F5"/>
<path d="M333.629 106.225C333.629 106.857 333.118 107.372 332.481 107.372C331.844 107.372 331.333 106.861 331.333 106.225C331.333 105.588 331.844 105.078 332.481 105.078C333.118 105.078 333.629 105.588 333.629 106.225Z" fill="#E6E3F5"/>
<path d="M326.067 113.623C326.067 114.255 325.556 114.77 324.919 114.77C324.282 114.77 323.771 114.259 323.771 113.623C323.771 112.986 324.282 112.476 324.919 112.476C325.556 112.476 326.067 112.986 326.067 113.623Z" fill="#E6E3F5"/>
<path d="M333.629 113.623C333.629 114.255 333.118 114.77 332.481 114.77C331.844 114.77 331.333 114.259 331.333 113.623C331.333 112.986 331.844 112.476 332.481 112.476C333.118 112.476 333.629 112.986 333.629 113.623Z" fill="#E6E3F5"/>
<path d="M341.524 106.225C341.524 106.857 341.013 107.372 340.376 107.372C339.739 107.372 339.228 106.861 339.228 106.225C339.228 105.588 339.739 105.078 340.376 105.078C341.013 105.078 341.524 105.588 341.524 106.225Z" fill="#E6E3F5"/>
<path d="M349.087 106.225C349.087 106.857 348.575 107.372 347.938 107.372C347.301 107.372 346.79 106.861 346.79 106.225C346.79 105.588 347.301 105.078 347.938 105.078C348.575 105.078 349.087 105.588 349.087 106.225Z" fill="#E6E3F5"/>
<path d="M341.524 113.623C341.524 114.255 341.013 114.77 340.376 114.77C339.739 114.77 339.228 114.259 339.228 113.623C339.228 112.986 339.739 112.476 340.376 112.476C341.013 112.476 341.524 112.986 341.524 113.623Z" fill="#E6E3F5"/>
<path d="M349.087 113.623C349.087 114.255 348.575 114.77 347.938 114.77C347.301 114.77 346.79 114.259 346.79 113.623C346.79 112.986 347.301 112.476 347.938 112.476C348.575 112.476 349.087 112.986 349.087 113.623Z" fill="#E6E3F5"/>
<path d="M355.834 107.372C356.468 107.372 356.982 106.858 356.982 106.225C356.982 105.591 356.468 105.078 355.834 105.078C355.2 105.078 354.686 105.591 354.686 106.225C354.686 106.858 355.2 107.372 355.834 107.372Z" fill="#E6E3F5"/>
<path d="M363.395 107.372C364.03 107.372 364.544 106.858 364.544 106.225C364.544 105.591 364.03 105.078 363.395 105.078C362.761 105.078 362.247 105.591 362.247 106.225C362.247 106.858 362.761 107.372 363.395 107.372Z" fill="#E6E3F5"/>
<path d="M356.977 113.623C356.977 114.255 356.466 114.77 355.829 114.77C355.192 114.77 354.681 114.259 354.681 113.623C354.681 112.986 355.192 112.476 355.829 112.476C356.466 112.476 356.977 112.986 356.977 113.623Z" fill="#E6E3F5"/>
<path d="M364.54 113.623C364.54 114.255 364.029 114.77 363.392 114.77C362.755 114.77 362.243 114.259 362.243 113.623C362.243 112.986 362.755 112.476 363.392 112.476C364.029 112.476 364.54 112.986 364.54 113.623Z" fill="#E6E3F5"/>
<path d="M372.528 76.4657C372.528 77.0981 372.016 77.613 371.38 77.613C370.743 77.613 370.231 77.1022 370.231 76.4657C370.231 75.8293 370.743 75.3185 371.38 75.3185C372.016 75.3185 372.528 75.8293 372.528 76.4657Z" fill="#E6E3F5"/>
<path d="M380.09 76.4657C380.09 77.0981 379.579 77.613 378.942 77.613C378.305 77.613 377.794 77.1022 377.794 76.4657C377.794 75.8293 378.305 75.3185 378.942 75.3185C379.579 75.3185 380.09 75.8293 380.09 76.4657Z" fill="#E6E3F5"/>
<path d="M372.528 83.8639C372.528 84.4963 372.016 85.0112 371.38 85.0112C370.743 85.0112 370.231 84.5004 370.231 83.8639C370.231 83.2275 370.743 82.7167 371.38 82.7167C372.016 82.7167 372.528 83.2275 372.528 83.8639Z" fill="#E6E3F5"/>
<path d="M380.09 83.8639C380.09 84.4963 379.579 85.0112 378.942 85.0112C378.305 85.0112 377.794 84.5004 377.794 83.8639C377.794 83.2275 378.305 82.7167 378.942 82.7167C379.579 82.7167 380.09 83.2275 380.09 83.8639Z" fill="#E6E3F5"/>
<path d="M387.981 76.4657C387.981 77.0981 387.47 77.613 386.833 77.613C386.196 77.613 385.685 77.1022 385.685 76.4657C385.685 75.8293 386.196 75.3185 386.833 75.3185C387.47 75.3185 387.981 75.8293 387.981 76.4657Z" fill="#E6E3F5"/>
<path d="M395.543 76.4657C395.543 77.0981 395.032 77.613 394.395 77.613C393.758 77.613 393.247 77.1022 393.247 76.4657C393.247 75.8293 393.758 75.3185 394.395 75.3185C395.032 75.3185 395.543 75.8293 395.543 76.4657Z" fill="#E6E3F5"/>
<path d="M387.981 83.8639C387.981 84.4963 387.47 85.0112 386.833 85.0112C386.196 85.0112 385.685 84.5004 385.685 83.8639C385.685 83.2275 386.196 82.7167 386.833 82.7167C387.47 82.7167 387.981 83.2275 387.981 83.8639Z" fill="#E6E3F5"/>
<path d="M395.543 83.8639C395.543 84.4963 395.032 85.0112 394.395 85.0112C393.758 85.0112 393.247 84.5004 393.247 83.8639C393.247 83.2275 393.758 82.7167 394.395 82.7167C395.032 82.7167 395.543 83.2275 395.543 83.8639Z" fill="#E6E3F5"/>
<path d="M403.438 76.4657C403.438 77.0981 402.927 77.613 402.29 77.613C401.653 77.613 401.142 77.1022 401.142 76.4657C401.142 75.8293 401.653 75.3185 402.29 75.3185C402.927 75.3185 403.438 75.8293 403.438 76.4657Z" fill="#E6E3F5"/>
<path d="M411 76.4657C411 77.0981 410.489 77.613 409.852 77.613C409.215 77.613 408.704 77.1022 408.704 76.4657C408.704 75.8293 409.215 75.3185 409.852 75.3185C410.489 75.3185 411 75.8293 411 76.4657Z" fill="#E6E3F5"/>
<path d="M403.438 83.8639C403.438 84.4963 402.927 85.0112 402.29 85.0112C401.653 85.0112 401.142 84.5004 401.142 83.8639C401.142 83.2275 401.653 82.7167 402.29 82.7167C402.927 82.7167 403.438 83.2275 403.438 83.8639Z" fill="#E6E3F5"/>
<path d="M411 83.8639C411 84.4963 410.489 85.0112 409.852 85.0112C409.215 85.0112 408.704 84.5004 408.704 83.8639C408.704 83.2275 409.215 82.7167 409.852 82.7167C410.489 82.7167 411 83.2275 411 83.8639Z" fill="#E6E3F5"/>
<path d="M372.528 91.3432C372.528 91.9756 372.016 92.4904 371.38 92.4904C370.743 92.4904 370.231 91.9797 370.231 91.3432C370.231 90.7068 370.743 90.196 371.38 90.196C372.016 90.196 372.528 90.7068 372.528 91.3432Z" fill="#E6E3F5"/>
<path d="M380.09 91.3432C380.09 91.9756 379.579 92.4904 378.942 92.4904C378.305 92.4904 377.794 91.9797 377.794 91.3432C377.794 90.7068 378.305 90.196 378.942 90.196C379.579 90.196 380.09 90.7068 380.09 91.3432Z" fill="#E6E3F5"/>
<path d="M372.528 98.7414C372.528 99.3738 372.016 99.8886 371.38 99.8886C370.743 99.8886 370.231 99.3779 370.231 98.7414C370.231 98.105 370.743 97.5942 371.38 97.5942C372.016 97.5942 372.528 98.105 372.528 98.7414Z" fill="#E6E3F5"/>
<path d="M380.09 98.7414C380.09 99.3738 379.579 99.8886 378.942 99.8886C378.305 99.8886 377.794 99.3779 377.794 98.7414C377.794 98.105 378.305 97.5942 378.942 97.5942C379.579 97.5942 380.09 98.105 380.09 98.7414Z" fill="#E6E3F5"/>
<path d="M387.981 91.3432C387.981 91.9756 387.47 92.4904 386.833 92.4904C386.196 92.4904 385.685 91.9797 385.685 91.3432C385.685 90.7068 386.196 90.196 386.833 90.196C387.47 90.196 387.981 90.7068 387.981 91.3432Z" fill="#E6E3F5"/>
<path d="M395.543 91.3432C395.543 91.9756 395.032 92.4904 394.395 92.4904C393.758 92.4904 393.247 91.9797 393.247 91.3432C393.247 90.7068 393.758 90.196 394.395 90.196C395.032 90.196 395.543 90.7068 395.543 91.3432Z" fill="#E6E3F5"/>
<path d="M386.837 99.8886C387.471 99.8886 387.985 99.375 387.985 98.7414C387.985 98.1078 387.471 97.5942 386.837 97.5942C386.203 97.5942 385.689 98.1078 385.689 98.7414C385.689 99.375 386.203 99.8886 386.837 99.8886Z" fill="#E6E3F5"/>
<path d="M394.399 99.8886C395.033 99.8886 395.547 99.375 395.547 98.7414C395.547 98.1078 395.033 97.5942 394.399 97.5942C393.765 97.5942 393.251 98.1078 393.251 98.7414C393.251 99.375 393.765 99.8886 394.399 99.8886Z" fill="#E6E3F5"/>
<path d="M403.438 91.3432C403.438 91.9756 402.927 92.4904 402.29 92.4904C401.653 92.4904 401.142 91.9797 401.142 91.3432C401.142 90.7068 401.653 90.196 402.29 90.196C402.927 90.196 403.438 90.7068 403.438 91.3432Z" fill="#E6E3F5"/>
<path d="M411 91.3432C411 91.9756 410.489 92.4904 409.852 92.4904C409.215 92.4904 408.704 91.9797 408.704 91.3432C408.704 90.7068 409.215 90.196 409.852 90.196C410.489 90.196 411 90.7068 411 91.3432Z" fill="#E6E3F5"/>
<path d="M402.29 99.8886C402.924 99.8886 403.438 99.375 403.438 98.7414C403.438 98.1078 402.924 97.5942 402.29 97.5942C401.656 97.5942 401.142 98.1078 401.142 98.7414C401.142 99.375 401.656 99.8886 402.29 99.8886Z" fill="#E6E3F5"/>
<path d="M409.852 99.8886C410.486 99.8886 411 99.375 411 98.7414C411 98.1078 410.486 97.5942 409.852 97.5942C409.218 97.5942 408.704 98.1078 408.704 98.7414C408.704 99.375 409.218 99.8886 409.852 99.8886Z" fill="#E6E3F5"/>
<path d="M372.528 106.225C372.528 106.857 372.016 107.372 371.38 107.372C370.743 107.372 370.231 106.861 370.231 106.225C370.231 105.588 370.743 105.078 371.38 105.078C372.016 105.078 372.528 105.588 372.528 106.225Z" fill="#E6E3F5"/>
<path d="M380.09 106.225C380.09 106.857 379.579 107.372 378.942 107.372C378.305 107.372 377.794 106.861 377.794 106.225C377.794 105.588 378.305 105.078 378.942 105.078C379.579 105.078 380.09 105.588 380.09 106.225Z" fill="#E6E3F5"/>
<path d="M372.528 113.623C372.528 114.255 372.016 114.77 371.38 114.77C370.743 114.77 370.231 114.259 370.231 113.623C370.231 112.987 370.743 112.476 371.38 112.476C372.016 112.476 372.528 112.987 372.528 113.623Z" fill="#E6E3F5"/>
<path d="M380.09 113.623C380.09 114.255 379.579 114.77 378.942 114.77C378.305 114.77 377.794 114.259 377.794 113.623C377.794 112.987 378.305 112.476 378.942 112.476C379.579 112.476 380.09 112.987 380.09 113.623Z" fill="#E6E3F5"/>
<path d="M386.837 107.372C387.471 107.372 387.985 106.858 387.985 106.225C387.985 105.591 387.471 105.078 386.837 105.078C386.203 105.078 385.689 105.591 385.689 106.225C385.689 106.858 386.203 107.372 386.837 107.372Z" fill="#E6E3F5"/>
<path d="M394.399 107.372C395.033 107.372 395.547 106.858 395.547 106.225C395.547 105.591 395.033 105.078 394.399 105.078C393.765 105.078 393.251 105.591 393.251 106.225C393.251 106.858 393.765 107.372 394.399 107.372Z" fill="#E6E3F5"/>
<path d="M387.981 113.623C387.981 114.255 387.47 114.77 386.833 114.77C386.196 114.77 385.685 114.259 385.685 113.623C385.685 112.987 386.196 112.476 386.833 112.476C387.47 112.476 387.981 112.987 387.981 113.623Z" fill="#E6E3F5"/>
<path d="M395.543 113.623C395.543 114.255 395.032 114.77 394.395 114.77C393.758 114.77 393.247 114.259 393.247 113.623C393.247 112.987 393.758 112.476 394.395 112.476C395.032 112.476 395.543 112.987 395.543 113.623Z" fill="#E6E3F5"/>
<path d="M402.29 107.372C402.924 107.372 403.438 106.858 403.438 106.225C403.438 105.591 402.924 105.078 402.29 105.078C401.656 105.078 401.142 105.591 401.142 106.225C401.142 106.858 401.656 107.372 402.29 107.372Z" fill="#E6E3F5"/>
<path d="M409.852 107.372C410.486 107.372 411 106.858 411 106.225C411 105.591 410.486 105.078 409.852 105.078C409.218 105.078 408.704 105.591 408.704 106.225C408.704 106.858 409.218 107.372 409.852 107.372Z" fill="#E6E3F5"/>
<path d="M403.438 113.623C403.438 114.255 402.927 114.77 402.29 114.77C401.653 114.77 401.142 114.259 401.142 113.623C401.142 112.987 401.653 112.476 402.29 112.476C402.927 112.476 403.438 112.987 403.438 113.623Z" fill="#E6E3F5"/>
<path d="M411 113.623C411 114.255 410.489 114.77 409.852 114.77C409.215 114.77 408.704 114.259 408.704 113.623C408.704 112.987 409.215 112.476 409.852 112.476C410.489 112.476 411 112.987 411 113.623Z" fill="#E6E3F5"/>
<path d="M326.067 121.354C326.067 121.986 325.556 122.501 324.919 122.501C324.282 122.501 323.771 121.99 323.771 121.354C323.771 120.717 324.282 120.206 324.919 120.206C325.556 120.206 326.067 120.717 326.067 121.354Z" fill="#E6E3F5"/>
<path d="M333.629 121.354C333.629 121.986 333.118 122.501 332.481 122.501C331.844 122.501 331.333 121.99 331.333 121.354C331.333 120.717 331.844 120.206 332.481 120.206C333.118 120.206 333.629 120.717 333.629 121.354Z" fill="#E6E3F5"/>
<path d="M326.067 128.752C326.067 129.384 325.556 129.899 324.919 129.899C324.282 129.899 323.771 129.388 323.771 128.752C323.771 128.115 324.282 127.605 324.919 127.605C325.556 127.605 326.067 128.115 326.067 128.752Z" fill="#E6E3F5"/>
<path d="M333.629 128.752C333.629 129.384 333.118 129.899 332.481 129.899C331.844 129.899 331.333 129.388 331.333 128.752C331.333 128.115 331.844 127.605 332.481 127.605C333.118 127.605 333.629 128.115 333.629 128.752Z" fill="#E6E3F5"/>
<path d="M341.524 121.354C341.524 121.986 341.013 122.501 340.376 122.501C339.739 122.501 339.228 121.99 339.228 121.354C339.228 120.717 339.739 120.206 340.376 120.206C341.013 120.206 341.524 120.717 341.524 121.354Z" fill="#E6E3F5"/>
<path d="M349.087 121.354C349.087 121.986 348.575 122.501 347.938 122.501C347.301 122.501 346.79 121.99 346.79 121.354C346.79 120.717 347.301 120.206 347.938 120.206C348.575 120.206 349.087 120.717 349.087 121.354Z" fill="#E6E3F5"/>
<path d="M341.524 128.752C341.524 129.384 341.013 129.899 340.376 129.899C339.739 129.899 339.228 129.388 339.228 128.752C339.228 128.115 339.739 127.605 340.376 127.605C341.013 127.605 341.524 128.115 341.524 128.752Z" fill="#E6E3F5"/>
<path d="M349.087 128.752C349.087 129.384 348.575 129.899 347.938 129.899C347.301 129.899 346.79 129.388 346.79 128.752C346.79 128.115 347.301 127.605 347.938 127.605C348.575 127.605 349.087 128.115 349.087 128.752Z" fill="#E6E3F5"/>
<path d="M355.834 122.501C356.468 122.501 356.982 121.987 356.982 121.354C356.982 120.72 356.468 120.206 355.834 120.206C355.2 120.206 354.686 120.72 354.686 121.354C354.686 121.987 355.2 122.501 355.834 122.501Z" fill="#E6E3F5"/>
<path d="M363.395 122.501C364.03 122.501 364.544 121.987 364.544 121.354C364.544 120.72 364.03 120.206 363.395 120.206C362.761 120.206 362.247 120.72 362.247 121.354C362.247 121.987 362.761 122.501 363.395 122.501Z" fill="#E6E3F5"/>
<path d="M356.977 128.752C356.977 129.384 356.466 129.899 355.829 129.899C355.192 129.899 354.681 129.388 354.681 128.752C354.681 128.115 355.192 127.605 355.829 127.605C356.466 127.605 356.977 128.115 356.977 128.752Z" fill="#E6E3F5"/>
<path d="M364.54 128.752C364.54 129.384 364.029 129.899 363.392 129.899C362.755 129.899 362.243 129.388 362.243 128.752C362.243 128.115 362.755 127.605 363.392 127.605C364.029 127.605 364.54 128.115 364.54 128.752Z" fill="#E6E3F5"/>
<path d="M326.067 136.231C326.067 136.863 325.556 137.378 324.919 137.378C324.282 137.378 323.771 136.868 323.771 136.231C323.771 135.595 324.282 135.084 324.919 135.084C325.556 135.084 326.067 135.595 326.067 136.231Z" fill="#E6E3F5"/>
<path d="M333.629 136.231C333.629 136.863 333.118 137.378 332.481 137.378C331.844 137.378 331.333 136.868 331.333 136.231C331.333 135.595 331.844 135.084 332.481 135.084C333.118 135.084 333.629 135.595 333.629 136.231Z" fill="#E6E3F5"/>
<path d="M326.067 143.629C326.067 144.262 325.556 144.777 324.919 144.777C324.282 144.777 323.771 144.266 323.771 143.629C323.771 142.993 324.282 142.482 324.919 142.482C325.556 142.482 326.067 142.993 326.067 143.629Z" fill="#E6E3F5"/>
<path d="M333.629 143.629C333.629 144.262 333.118 144.777 332.481 144.777C331.844 144.777 331.333 144.266 331.333 143.629C331.333 142.993 331.844 142.482 332.481 142.482C333.118 142.482 333.629 142.993 333.629 143.629Z" fill="#E6E3F5"/>
<path d="M341.524 136.231C341.524 136.863 341.013 137.378 340.376 137.378C339.739 137.378 339.228 136.868 339.228 136.231C339.228 135.595 339.739 135.084 340.376 135.084C341.013 135.084 341.524 135.595 341.524 136.231Z" fill="#E6E3F5"/>
<path d="M349.087 136.231C349.087 136.863 348.575 137.378 347.938 137.378C347.301 137.378 346.79 136.868 346.79 136.231C346.79 135.595 347.301 135.084 347.938 135.084C348.575 135.084 349.087 135.595 349.087 136.231Z" fill="#E6E3F5"/>
<path d="M341.524 143.629C341.524 144.262 341.013 144.777 340.376 144.777C339.739 144.777 339.228 144.266 339.228 143.629C339.228 142.993 339.739 142.482 340.376 142.482C341.013 142.482 341.524 142.993 341.524 143.629Z" fill="#E6E3F5"/>
<path d="M349.087 143.629C349.087 144.262 348.575 144.777 347.938 144.777C347.301 144.777 346.79 144.266 346.79 143.629C346.79 142.993 347.301 142.482 347.938 142.482C348.575 142.482 349.087 142.993 349.087 143.629Z" fill="#E6E3F5"/>
<path d="M356.977 136.231C356.977 136.863 356.466 137.378 355.829 137.378C355.192 137.378 354.681 136.868 354.681 136.231C354.681 135.595 355.192 135.084 355.829 135.084C356.466 135.084 356.977 135.595 356.977 136.231Z" fill="#E6E3F5"/>
<path d="M364.54 136.231C364.54 136.863 364.029 137.378 363.392 137.378C362.755 137.378 362.243 136.868 362.243 136.231C362.243 135.595 362.755 135.084 363.392 135.084C364.029 135.084 364.54 135.595 364.54 136.231Z" fill="#E6E3F5"/>
<path d="M356.977 143.629C356.977 144.262 356.466 144.777 355.829 144.777C355.192 144.777 354.681 144.266 354.681 143.629C354.681 142.993 355.192 142.482 355.829 142.482C356.466 142.482 356.977 142.993 356.977 143.629Z" fill="#E6E3F5"/>
<path d="M364.54 143.629C364.54 144.262 364.029 144.777 363.392 144.777C362.755 144.777 362.243 144.266 362.243 143.629C362.243 142.993 362.755 142.482 363.392 142.482C364.029 142.482 364.54 142.993 364.54 143.629Z" fill="#E6E3F5"/>
<path d="M326.067 151.109C326.067 151.741 325.556 152.256 324.919 152.256C324.282 152.256 323.771 151.745 323.771 151.109C323.771 150.472 324.282 149.961 324.919 149.961C325.556 149.961 326.067 150.472 326.067 151.109Z" fill="#E6E3F5"/>
<path d="M333.629 151.109C333.629 151.741 333.118 152.256 332.481 152.256C331.844 152.256 331.333 151.745 331.333 151.109C331.333 150.472 331.844 149.961 332.481 149.961C333.118 149.961 333.629 150.472 333.629 151.109Z" fill="#E6E3F5"/>
<path d="M326.067 158.507C326.067 159.139 325.556 159.654 324.919 159.654C324.282 159.654 323.771 159.143 323.771 158.507C323.771 157.87 324.282 157.36 324.919 157.36C325.556 157.36 326.067 157.87 326.067 158.507Z" fill="#E6E3F5"/>
<path d="M333.629 158.507C333.629 159.139 333.118 159.654 332.481 159.654C331.844 159.654 331.333 159.143 331.333 158.507C331.333 157.87 331.844 157.36 332.481 157.36C333.118 157.36 333.629 157.87 333.629 158.507Z" fill="#E6E3F5"/>
<path d="M341.524 151.109C341.524 151.741 341.013 152.256 340.376 152.256C339.739 152.256 339.228 151.745 339.228 151.109C339.228 150.472 339.739 149.961 340.376 149.961C341.013 149.961 341.524 150.472 341.524 151.109Z" fill="#E6E3F5"/>
<path d="M349.087 151.109C349.087 151.741 348.575 152.256 347.938 152.256C347.301 152.256 346.79 151.745 346.79 151.109C346.79 150.472 347.301 149.961 347.938 149.961C348.575 149.961 349.087 150.472 349.087 151.109Z" fill="#E6E3F5"/>
<path d="M341.524 158.507C341.524 159.139 341.013 159.654 340.376 159.654C339.739 159.654 339.228 159.143 339.228 158.507C339.228 157.87 339.739 157.36 340.376 157.36C341.013 157.36 341.524 157.87 341.524 158.507Z" fill="#E6E3F5"/>
<path d="M349.087 158.507C349.087 159.139 348.575 159.654 347.938 159.654C347.301 159.654 346.79 159.143 346.79 158.507C346.79 157.87 347.301 157.36 347.938 157.36C348.575 157.36 349.087 157.87 349.087 158.507Z" fill="#E6E3F5"/>
<path d="M356.977 151.109C356.977 151.741 356.466 152.256 355.829 152.256C355.192 152.256 354.681 151.745 354.681 151.109C354.681 150.472 355.192 149.961 355.829 149.961C356.466 149.961 356.977 150.472 356.977 151.109Z" fill="#E6E3F5"/>
<path d="M364.54 151.109C364.54 151.741 364.029 152.256 363.392 152.256C362.755 152.256 362.243 151.745 362.243 151.109C362.243 150.472 362.755 149.961 363.392 149.961C364.029 149.961 364.54 150.472 364.54 151.109Z" fill="#E6E3F5"/>
<path d="M355.833 159.654C356.468 159.654 356.982 159.14 356.982 158.507C356.982 157.873 356.468 157.36 355.833 157.36C355.199 157.36 354.685 157.873 354.685 158.507C354.685 159.14 355.199 159.654 355.833 159.654Z" fill="#E6E3F5"/>
<path d="M363.395 159.654C364.03 159.654 364.544 159.14 364.544 158.507C364.544 157.873 364.03 157.36 363.395 157.36C362.761 157.36 362.247 157.873 362.247 158.507C362.247 159.14 362.761 159.654 363.395 159.654Z" fill="#E6E3F5"/>
<path d="M372.528 121.354C372.528 121.986 372.016 122.501 371.38 122.501C370.743 122.501 370.231 121.99 370.231 121.354C370.231 120.717 370.743 120.206 371.38 120.206C372.016 120.206 372.528 120.717 372.528 121.354Z" fill="#E6E3F5"/>
<path d="M380.09 121.354C380.09 121.986 379.579 122.501 378.942 122.501C378.305 122.501 377.794 121.99 377.794 121.354C377.794 120.717 378.305 120.206 378.942 120.206C379.579 120.206 380.09 120.717 380.09 121.354Z" fill="#E6E3F5"/>
<path d="M372.528 128.752C372.528 129.384 372.016 129.899 371.38 129.899C370.743 129.899 370.231 129.388 370.231 128.752C370.231 128.115 370.743 127.605 371.38 127.605C372.016 127.605 372.528 128.115 372.528 128.752Z" fill="#E6E3F5"/>
<path d="M380.09 128.752C380.09 129.384 379.579 129.899 378.942 129.899C378.305 129.899 377.794 129.388 377.794 128.752C377.794 128.115 378.305 127.605 378.942 127.605C379.579 127.605 380.09 128.115 380.09 128.752Z" fill="#E6E3F5"/>
<path d="M386.837 122.501C387.471 122.501 387.985 121.987 387.985 121.354C387.985 120.72 387.471 120.206 386.837 120.206C386.203 120.206 385.689 120.72 385.689 121.354C385.689 121.987 386.203 122.501 386.837 122.501Z" fill="#E6E3F5"/>
<path d="M394.399 122.501C395.033 122.501 395.547 121.987 395.547 121.354C395.547 120.72 395.033 120.206 394.399 120.206C393.765 120.206 393.251 120.72 393.251 121.354C393.251 121.987 393.765 122.501 394.399 122.501Z" fill="#E6E3F5"/>
<path d="M387.981 128.752C387.981 129.384 387.47 129.899 386.833 129.899C386.196 129.899 385.685 129.388 385.685 128.752C385.685 128.115 386.196 127.605 386.833 127.605C387.47 127.605 387.981 128.115 387.981 128.752Z" fill="#E6E3F5"/>
<path d="M395.543 128.752C395.543 129.384 395.032 129.899 394.395 129.899C393.758 129.899 393.247 129.388 393.247 128.752C393.247 128.115 393.758 127.605 394.395 127.605C395.032 127.605 395.543 128.115 395.543 128.752Z" fill="#E6E3F5"/>
<path d="M402.29 122.501C402.924 122.501 403.438 121.987 403.438 121.354C403.438 120.72 402.924 120.206 402.29 120.206C401.656 120.206 401.142 120.72 401.142 121.354C401.142 121.987 401.656 122.501 402.29 122.501Z" fill="#E6E3F5"/>
<path d="M409.852 122.501C410.486 122.501 411 121.987 411 121.354C411 120.72 410.486 120.206 409.852 120.206C409.218 120.206 408.704 120.72 408.704 121.354C408.704 121.987 409.218 122.501 409.852 122.501Z" fill="#E6E3F5"/>
<path d="M403.438 128.752C403.438 129.384 402.927 129.899 402.29 129.899C401.653 129.899 401.142 129.388 401.142 128.752C401.142 128.115 401.653 127.605 402.29 127.605C402.927 127.605 403.438 128.115 403.438 128.752Z" fill="#E6E3F5"/>
<path d="M411 128.752C411 129.384 410.489 129.899 409.852 129.899C409.215 129.899 408.704 129.388 408.704 128.752C408.704 128.115 409.215 127.605 409.852 127.605C410.489 127.605 411 128.115 411 128.752Z" fill="#E6E3F5"/>
<path d="M372.528 136.231C372.528 136.863 372.016 137.378 371.38 137.378C370.743 137.378 370.231 136.868 370.231 136.231C370.231 135.595 370.743 135.084 371.38 135.084C372.016 135.084 372.528 135.595 372.528 136.231Z" fill="#E6E3F5"/>
<path d="M380.09 136.231C380.09 136.863 379.579 137.378 378.942 137.378C378.305 137.378 377.794 136.868 377.794 136.231C377.794 135.595 378.305 135.084 378.942 135.084C379.579 135.084 380.09 135.595 380.09 136.231Z" fill="#E6E3F5"/>
<path d="M372.528 143.629C372.528 144.262 372.016 144.777 371.38 144.777C370.743 144.777 370.231 144.266 370.231 143.629C370.231 142.993 370.743 142.482 371.38 142.482C372.016 142.482 372.528 142.993 372.528 143.629Z" fill="#E6E3F5"/>
<path d="M380.09 143.629C380.09 144.262 379.579 144.777 378.942 144.777C378.305 144.777 377.794 144.266 377.794 143.629C377.794 142.993 378.305 142.482 378.942 142.482C379.579 142.482 380.09 142.993 380.09 143.629Z" fill="#E6E3F5"/>
<path d="M387.981 136.231C387.981 136.863 387.47 137.378 386.833 137.378C386.196 137.378 385.685 136.868 385.685 136.231C385.685 135.595 386.196 135.084 386.833 135.084C387.47 135.084 387.981 135.595 387.981 136.231Z" fill="#E6E3F5"/>
<path d="M395.543 136.231C395.543 136.863 395.032 137.378 394.395 137.378C393.758 137.378 393.247 136.868 393.247 136.231C393.247 135.595 393.758 135.084 394.395 135.084C395.032 135.084 395.543 135.595 395.543 136.231Z" fill="#E6E3F5"/>
<path d="M387.981 143.629C387.981 144.262 387.47 144.777 386.833 144.777C386.196 144.777 385.685 144.266 385.685 143.629C385.685 142.993 386.196 142.482 386.833 142.482C387.47 142.482 387.981 142.993 387.981 143.629Z" fill="#E6E3F5"/>
<path d="M395.543 143.629C395.543 144.262 395.032 144.777 394.395 144.777C393.758 144.777 393.247 144.266 393.247 143.629C393.247 142.993 393.758 142.482 394.395 142.482C395.032 142.482 395.543 142.993 395.543 143.629Z" fill="#E6E3F5"/>
<path d="M403.438 136.231C403.438 136.863 402.927 137.378 402.29 137.378C401.653 137.378 401.142 136.868 401.142 136.231C401.142 135.595 401.653 135.084 402.29 135.084C402.927 135.084 403.438 135.595 403.438 136.231Z" fill="#E6E3F5"/>
<path d="M411 136.231C411 136.863 410.489 137.378 409.852 137.378C409.215 137.378 408.704 136.868 408.704 136.231C408.704 135.595 409.215 135.084 409.852 135.084C410.489 135.084 411 135.595 411 136.231Z" fill="#E6E3F5"/>
<path d="M403.438 143.629C403.438 144.262 402.927 144.777 402.29 144.777C401.653 144.777 401.142 144.266 401.142 143.629C401.142 142.993 401.653 142.482 402.29 142.482C402.927 142.482 403.438 142.993 403.438 143.629Z" fill="#E6E3F5"/>
<path d="M411 143.629C411 144.262 410.489 144.777 409.852 144.777C409.215 144.777 408.704 144.266 408.704 143.629C408.704 142.993 409.215 142.482 409.852 142.482C410.489 142.482 411 142.993 411 143.629Z" fill="#E6E3F5"/>
<path d="M372.528 151.109C372.528 151.741 372.016 152.256 371.38 152.256C370.743 152.256 370.231 151.745 370.231 151.109C370.231 150.472 370.743 149.961 371.38 149.961C372.016 149.961 372.528 150.472 372.528 151.109Z" fill="#E6E3F5"/>
<path d="M380.09 151.109C380.09 151.741 379.579 152.256 378.942 152.256C378.305 152.256 377.794 151.745 377.794 151.109C377.794 150.472 378.305 149.961 378.942 149.961C379.579 149.961 380.09 150.472 380.09 151.109Z" fill="#E6E3F5"/>
<path d="M372.528 158.507C372.528 159.139 372.016 159.654 371.38 159.654C370.743 159.654 370.231 159.143 370.231 158.507C370.231 157.87 370.743 157.36 371.38 157.36C372.016 157.36 372.528 157.87 372.528 158.507Z" fill="#E6E3F5"/>
<path d="M380.09 158.507C380.09 159.139 379.579 159.654 378.942 159.654C378.305 159.654 377.794 159.143 377.794 158.507C377.794 157.87 378.305 157.36 378.942 157.36C379.579 157.36 380.09 157.87 380.09 158.507Z" fill="#E6E3F5"/>
<path d="M387.981 151.109C387.981 151.741 387.47 152.256 386.833 152.256C386.196 152.256 385.685 151.745 385.685 151.109C385.685 150.472 386.196 149.961 386.833 149.961C387.47 149.961 387.981 150.472 387.981 151.109Z" fill="#E6E3F5"/>
<path d="M395.543 151.109C395.543 151.741 395.032 152.256 394.395 152.256C393.758 152.256 393.247 151.745 393.247 151.109C393.247 150.472 393.758 149.961 394.395 149.961C395.032 149.961 395.543 150.472 395.543 151.109Z" fill="#E6E3F5"/>
<path d="M386.837 159.654C387.471 159.654 387.985 159.14 387.985 158.507C387.985 157.873 387.471 157.36 386.837 157.36C386.203 157.36 385.689 157.873 385.689 158.507C385.689 159.14 386.203 159.654 386.837 159.654Z" fill="#E6E3F5"/>
<path d="M394.399 159.654C395.033 159.654 395.547 159.14 395.547 158.507C395.547 157.873 395.033 157.36 394.399 157.36C393.765 157.36 393.251 157.873 393.251 158.507C393.251 159.14 393.765 159.654 394.399 159.654Z" fill="#E6E3F5"/>
<path d="M403.438 151.109C403.438 151.741 402.927 152.256 402.29 152.256C401.653 152.256 401.142 151.745 401.142 151.109C401.142 150.472 401.653 149.961 402.29 149.961C402.927 149.961 403.438 150.472 403.438 151.109Z" fill="#E6E3F5"/>
<path d="M411 151.109C411 151.741 410.489 152.256 409.852 152.256C409.215 152.256 408.704 151.745 408.704 151.109C408.704 150.472 409.215 149.961 409.852 149.961C410.489 149.961 411 150.472 411 151.109Z" fill="#E6E3F5"/>
<path d="M402.29 159.654C402.924 159.654 403.438 159.14 403.438 158.507C403.438 157.873 402.924 157.36 402.29 157.36C401.656 157.36 401.142 157.873 401.142 158.507C401.142 159.14 401.656 159.654 402.29 159.654Z" fill="#E6E3F5"/>
<path d="M409.852 159.654C410.486 159.654 411 159.14 411 158.507C411 157.873 410.486 157.36 409.852 157.36C409.218 157.36 408.704 157.873 408.704 158.507C408.704 159.14 409.218 159.654 409.852 159.654Z" fill="#E6E3F5"/>
<path d="M89.5858 221.912C83.8938 224.316 79.8977 229.951 79.8977 236.514C79.8977 245.266 86.9974 252.361 95.7564 252.361C97.3265 252.361 98.8438 252.134 100.272 251.708" stroke="#FFD300" stroke-width="10" stroke-miterlimit="10"/>
<path d="M77.0092 382.687C77.0092 383.724 76.1694 384.563 75.1308 384.563C74.0922 384.563 73.2524 383.724 73.2524 382.687C73.2524 381.649 74.0922 380.81 75.1308 380.81C76.1694 380.81 77.0092 381.649 77.0092 382.687Z" fill="white"/>
<path d="M89.4033 382.687C89.4033 383.724 88.5635 384.563 87.5249 384.563C86.4863 384.563 85.6465 383.724 85.6465 382.687C85.6465 381.649 86.4863 380.81 87.5249 380.81C88.5635 380.81 89.4033 381.649 89.4033 382.687Z" fill="white"/>
<path d="M77.0092 394.811C77.0092 395.849 76.1694 396.688 75.1308 396.688C74.0922 396.688 73.2524 395.849 73.2524 394.811C73.2524 393.774 74.0922 392.935 75.1308 392.935C76.1694 392.935 77.0092 393.774 77.0092 394.811Z" fill="white"/>
<path d="M89.4033 394.811C89.4033 395.849 88.5635 396.688 87.5249 396.688C86.4863 396.688 85.6465 395.849 85.6465 394.811C85.6465 393.774 86.4863 392.935 87.5249 392.935C88.5635 392.935 89.4033 393.774 89.4033 394.811Z" fill="white"/>
<path d="M391.551 196.171C391.551 197.208 390.711 198.048 389.672 198.048C388.634 198.048 387.794 197.208 387.794 196.171C387.794 195.133 388.634 194.294 389.672 194.294C390.711 194.294 391.551 195.133 391.551 196.171Z" fill="white"/>
<path d="M403.945 196.171C403.945 197.208 403.105 198.048 402.066 198.048C401.028 198.048 400.188 197.208 400.188 196.171C400.188 195.133 401.028 194.294 402.066 194.294C403.105 194.294 403.945 195.133 403.945 196.171Z" fill="white"/>
<path d="M391.551 208.296C391.551 209.333 390.711 210.173 389.672 210.173C388.634 210.173 387.794 209.333 387.794 208.296C387.794 207.258 388.634 206.419 389.672 206.419C390.711 206.419 391.551 207.258 391.551 208.296Z" fill="white"/>
<path d="M403.945 208.296C403.945 209.333 403.105 210.173 402.066 210.173C401.028 210.173 400.188 209.333 400.188 208.296C400.188 207.258 401.028 206.419 402.066 206.419C403.105 206.419 403.945 207.258 403.945 208.296Z" fill="white"/>
<path d="M366.627 383.265C372.836 383.265 377.869 378.236 377.869 372.032C377.869 365.828 372.836 360.799 366.627 360.799C360.419 360.799 355.385 365.828 355.385 372.032C355.385 378.236 360.419 383.265 366.627 383.265Z" fill="#FFD300"/>
<path d="M21.433 84.168C27.6418 84.168 32.6749 79.1387 32.6749 72.9349C32.6749 66.731 27.6418 61.7018 21.433 61.7018C15.2243 61.7018 10.1912 66.731 10.1912 72.9349C10.1912 79.1387 15.2243 84.168 21.433 84.168Z" fill="#FFD300"/>
<path d="M35.7009 227.596C40.4111 227.596 44.2247 223.781 44.2247 219.079C44.2247 214.372 40.407 210.562 35.7009 210.562C30.9908 210.562 27.1772 214.376 27.1772 219.079C27.1772 223.785 30.9949 227.596 35.7009 227.596V227.596Z" stroke="#131B20" stroke-width="1.7" stroke-miterlimit="10" stroke-linecap="round"/>
<path d="M303.612 63.5057V77.1143" stroke="white" stroke-width="1.7" stroke-miterlimit="10" stroke-linecap="round"/>
<path d="M310.383 70.312H296.763" stroke="white" stroke-width="1.7" stroke-miterlimit="10" stroke-linecap="round"/>
<path d="M425.109 381.773C428.035 381.773 430.407 379.403 430.407 376.479C430.407 373.555 428.035 371.185 425.109 371.185C422.182 371.185 419.81 373.555 419.81 376.479C419.81 379.403 422.182 381.773 425.109 381.773Z" stroke="#131B20" stroke-width="1.7" stroke-miterlimit="10" stroke-linecap="round"/>
<path d="M76.3072 153.869C79.2334 153.869 81.6056 151.499 81.6056 148.575C81.6056 145.651 79.2334 143.281 76.3072 143.281C73.381 143.281 71.0088 145.651 71.0088 148.575C71.0088 151.499 73.381 153.869 76.3072 153.869Z" stroke="white" stroke-width="1.7" stroke-miterlimit="10" stroke-linecap="round"/>
<path d="M274.884 316.439L288.646 327.79L302.403 316.439L316.16 327.79L329.917 316.439L343.678 327.79" stroke="white" stroke-width="1.7" stroke-miterlimit="10" stroke-linecap="round"/>
<path d="M422.317 337.51C427.334 337.51 431.401 333.446 431.401 328.433C431.401 323.42 427.334 319.357 422.317 319.357C417.301 319.357 413.234 323.42 413.234 328.433C413.234 333.446 417.301 337.51 422.317 337.51Z" stroke="#FFD117" stroke-width="10" stroke-miterlimit="10"/>
<path d="M375.078 344.38C426.582 292.916 413.095 196 344.954 127.912C276.813 59.8243 179.821 46.3477 128.317 97.8114C76.813 149.275 90.3002 246.191 158.441 314.279C226.583 382.367 323.574 395.844 375.078 344.38Z" fill="#F5F6FA"/>
<g clip-path="url(#clip0_79_1521)">
<mask id="mask0_79_1521" style="mask-type:alpha" maskUnits="userSpaceOnUse" x="97" y="66" width="310" height="310">
<path d="M375.078 344.38C426.582 292.916 413.095 196 344.954 127.912C276.813 59.8243 179.821 46.3477 128.317 97.8114C76.813 149.275 90.3002 246.191 158.441 314.279C226.583 382.367 323.574 395.844 375.078 344.38Z" fill="#F5F6FA"/>
</mask>
<g mask="url(#mask0_79_1521)">
<path d="M274.91 206.587L293.271 184.96L306.64 177.405C308.646 176.269 309.548 173.85 308.777 171.666L302.557 154.214L299.369 159.534L290.748 165.657L287.945 165.133L249.943 193.039L253.719 201.128C255.751 211.085 268.34 214.326 274.91 206.587V206.587Z" fill="#FF8400"/>
<path d="M280.998 156.922L247.928 182.156L255.655 208.692L249.82 234.965L169.086 210.255L169.611 158.337L203.645 114.848L247.954 122.543C258.222 124.298 267.043 131.793 271.966 141.156L280.998 156.913V156.922Z" fill="white"/>
<path d="M297.415 142.99L307.437 154.808L322.347 153.009C325.43 152.642 328.242 151.07 330.187 148.65L338.028 138.876C337.633 137.4 337.195 135.732 336.731 133.976L322.68 139.479C321.392 139.977 319.938 139.392 319.342 138.143L316.521 132.195C315.777 130.631 316.705 128.788 318.396 128.456L334.524 125.6C333.989 123.582 333.472 121.617 332.999 119.826L316.74 118.778C311.388 118.097 306.245 121.11 304.222 126.124L297.415 142.99V142.99Z" fill="black"/>
<path d="M211.994 219.051C217.88 226.563 228.726 227.882 236.225 221.977C243.723 216.081 245.029 205.207 239.15 197.695C233.264 190.183 222.418 188.873 214.92 194.769C207.421 200.665 206.115 211.539 212.002 219.06L211.994 219.051ZM215.997 210.535C214.657 205.259 217.845 199.87 223.11 198.525C228.375 197.18 233.754 200.376 235.094 205.652C236.435 210.928 233.246 216.326 227.981 217.671C222.716 219.016 217.337 215.819 215.988 210.543L215.997 210.535Z" fill="black"/>
<path d="M237.906 209.661L313.035 151.314L301.576 136.684L226.457 195.031L237.906 209.661Z" fill="black"/>
<path d="M296.933 154.441L301.69 151.009C302.557 150.38 302.75 149.174 302.128 148.31C301.506 147.445 300.297 147.244 299.43 147.873L294.673 151.306C293.806 151.935 293.613 153.14 294.235 154.005C294.857 154.869 296.066 155.07 296.933 154.441Z" stroke="white" stroke-miterlimit="10" stroke-linecap="round"/>
<path d="M323.477 121.669L315.847 121.399C311.782 121.259 308.138 123.897 307.007 127.81L305.492 133.033" stroke="white" stroke-miterlimit="10" stroke-linecap="round"/>
<path d="M303.582 167.508C303.048 167.473 261.349 152.074 261.349 152.074" stroke="white" stroke-miterlimit="10" stroke-linecap="round"/>
<path d="M299.15 172.863C298.615 172.828 256.916 157.429 256.916 157.429" stroke="white" stroke-miterlimit="10" stroke-linecap="round"/>
<path d="M225.554 220.614C232.458 220.614 238.055 215.007 238.055 208.089C238.055 201.172 232.458 195.564 225.554 195.564C218.65 195.564 213.053 201.172 213.053 208.089C213.053 215.007 218.65 220.614 225.554 220.614Z" stroke="white" stroke-miterlimit="10" stroke-linecap="round"/>
<path d="M215.997 210.535C217.337 215.81 222.725 219.007 227.99 217.662C233.255 216.317 236.444 210.928 235.103 205.643C233.763 200.368 228.375 197.171 223.119 198.516C217.854 199.861 214.657 205.25 216.006 210.526L215.997 210.535ZM218.976 213.557L217.793 205.242L224.389 200.053L232.169 203.18L233.351 211.496L226.755 216.684L218.976 213.557Z" fill="#131B20"/>
<path d="M327.174 121.853L333.551 122.228" stroke="white" stroke-miterlimit="10" stroke-linecap="round"/>
<path d="M337.239 135.863L325.448 140.763" stroke="white" stroke-miterlimit="10" stroke-linecap="round"/>
<path d="M309.119 173.116L308.418 154.11C308.33 152.494 306.499 151.62 305.194 152.555L295.663 159.394C294.314 160.355 293.455 161.866 293.306 163.517L292.308 174.391L309.119 173.125V173.116Z" fill="#FF8400"/>
<path d="M304.257 153.35L304.817 165.386" stroke="#131B20" stroke-miterlimit="10" stroke-linecap="round"/>
<path d="M300.323 156.118L300.797 167.203" stroke="#131B20" stroke-miterlimit="10" stroke-linecap="round"/>
<path d="M296.732 159.176L297.012 167.893" stroke="#131B20" stroke-miterlimit="10" stroke-linecap="round"/>
<path d="M292.842 167.002L292.465 172.784" stroke="#131B20" stroke-miterlimit="10" stroke-linecap="round"/>
<path d="M255.304 186.768L269.207 248.189L339 394.493L158.205 397L158.608 216.151L255.304 186.768Z" fill="#FFD300"/>
<path d="M221.682 78.9225C221.682 78.9225 208.279 80.748 221.744 102.06L229.61 88.5479L221.682 78.9225V78.9225Z" fill="#131B20"/>
<path d="M208.297 115.599L218.231 167.866L226.562 166.81L217.442 117.049L208.297 115.599Z" fill="#131B20"/>
<path d="M235.48 120.412L245.414 172.679L252.107 171.43L242.488 121.608L235.48 120.412Z" fill="#131B20"/>
<path d="M217.399 117.293L222.585 95.9024L233.605 96.3654L234.446 107.834L234.946 114.69L235.348 120.289C236.154 124.386 229.19 133.365 217.399 117.302V117.293Z" fill="#FF8400"/>
<path d="M212.878 139.401L245.843 140.335L255.304 186.768L265.764 241.298L162.402 233.507L168.551 194.454L177.653 179.903L200.036 168.181C205.012 165.01 208.507 159.979 209.733 154.197L212.878 139.401Z" fill="#FFD300"/>
<path d="M239.518 83.4033C239.518 83.4033 246.623 90.6879 241.367 104.785C240.684 106.62 235.787 107.65 233.999 108.052L221.122 96.837C221.122 96.837 221.437 77.4725 239.518 83.4033V83.4033Z" fill="#FF8400"/>
<path d="M235.401 92.3475C235.445 92.9065 235.156 93.3869 234.753 93.4218C234.35 93.4568 233.982 93.0288 233.929 92.4697C233.885 91.9107 234.174 91.4303 234.577 91.3954C234.98 91.3605 235.348 91.7885 235.401 92.3475Z" fill="#131B20"/>
<path d="M241.743 91.7797C241.743 92.3387 241.419 92.8017 241.007 92.8017C240.605 92.8017 240.272 92.3475 240.263 91.7885C240.254 91.2294 240.587 90.7665 240.999 90.7665C241.402 90.7665 241.735 91.2207 241.743 91.7797V91.7797Z" fill="#131B20"/>
<path d="M234.823 101.03L239.939 100.444C239.939 100.444 239.001 106.087 234.823 101.03Z" fill="white"/>
<path d="M234.937 114.69C227.683 111.86 228.48 103.039 228.48 103.039C231.424 106.952 233.544 107.703 234.437 107.834L234.937 114.69Z" fill="#131B20"/>
<path d="M224.994 96.1994C224.381 98.7586 221.989 100.375 219.659 99.8155C217.32 99.2565 215.927 96.7235 216.54 94.1643C217.153 91.605 219.545 89.9891 221.875 90.5482C224.214 91.1072 225.607 93.6402 224.994 96.1994Z" fill="#FF8400"/>
<path d="M219.221 93.3345C219.326 93.3956 221.402 94.601 222.042 94.9678C222.129 95.0202 222.12 95.1425 222.042 95.1949L219.738 96.6099" stroke="#131B20" stroke-miterlimit="10" stroke-linecap="round"/>
<path d="M237.433 97.3262C238.721 97.4222 239.86 96.9331 239.86 96.9331C238.975 94.732 239.01 92.8191 239.177 91.6487C239.317 90.6617 239.807 89.7446 240.605 89.1506C241.043 88.8274 241.594 88.5654 242.243 88.5567" stroke="#131B20" stroke-miterlimit="10" stroke-linecap="round"/>
<path d="M232.536 89.9804C235.445 87.6832 236.899 90.1376 236.899 90.1376" stroke="#131B20" stroke-miterlimit="10" stroke-linecap="round"/>
<path d="M220.841 90.1027C223.793 90.7753 224.091 94.2254 224.091 94.2254L225.826 93.8848C225.826 93.8848 229.085 92.4523 227.569 84.6436C227.569 84.6436 231.266 86.1721 239.895 85.7092C242.102 85.5869 244.109 84.3554 245.212 82.4338L246.614 80.0143L243.049 80.8179L244.301 77.0882L238.642 79.2893C238.642 79.2893 231.047 73.5769 221.682 78.9225C221.682 78.9225 218.292 89.5175 220.841 90.1027V90.1027Z" fill="#131B20"/>
<path d="M221.358 139.61L221.472 140.056C222.129 142.632 220.219 145.148 217.574 145.2C215.611 145.244 213.894 143.89 213.465 141.977L212.983 139.855" stroke="#131B20" stroke-miterlimit="10" stroke-linecap="round"/>
<path d="M239.203 148.249L223.443 148.179L224.906 159.857H240.876L239.203 148.249Z" stroke="#131B20" stroke-miterlimit="10" stroke-linecap="round"/>
<path d="M240.438 79.7784C240.438 79.7784 240.613 74.826 232.335 74.0311C224.057 73.2363 219.711 81.0188 219.711 81.0188L240.447 79.7784H240.438Z" fill="#131B20"/>
<path d="M252.974 174.994L255.103 156.608" stroke="#131B20" stroke-miterlimit="10" stroke-linecap="round"/>
<path d="M227.885 245.945L242.015 394.624" stroke="#131B20" stroke-miterlimit="10" stroke-linecap="round"/>
<path d="M238.555 234.729L227.289 245.613L232.221 290.727L238.555 234.729Z" fill="#131B20"/>
<path d="M251.791 73.7603L216.006 89.4563C212.554 70.4762 226.15 67.0697 233.351 69.8385C233.658 69.9521 233.956 70.0831 234.236 70.2229C236.479 71.2885 238.169 72.8782 239.282 74.1534C240.316 75.35 240.85 76.2846 240.85 76.2846L250.819 71.5942C250.977 71.5156 251.143 71.4894 251.318 71.4894C251.765 71.4894 252.194 71.7427 252.396 72.1794C252.667 72.7733 252.396 73.4983 251.791 73.7603V73.7603Z" fill="#FFD300"/>
<path d="M239.247 140.23L239.466 141.296C239.921 143.532 241.866 145.165 244.144 145.218L247.07 145.288" stroke="#131B20" stroke-miterlimit="10" stroke-linecap="round"/>
<path d="M257.249 191.886L171.434 196.149L168.219 210.002L259.65 205.547C260.683 205.495 261.419 204.525 261.2 203.512L258.966 193.205C258.791 192.402 258.064 191.843 257.24 191.886H257.249Z" fill="#131B20"/>
<path d="M201.933 192.431L198.13 192.784L199.785 210.509L203.588 210.155L201.933 192.431Z" fill="#F0C806"/>
<path d="M215.305 209.303L211.52 209.871L208.901 192.271L212.677 191.703L215.305 209.303Z" fill="#F0C806"/>
<path d="M254.901 207.382L251.126 207.941L248.498 190.34L252.273 189.773L254.901 207.382Z" fill="#F0C806"/>
<path d="M166.799 238.966L174.701 254.461C175.104 255.352 174.99 256.391 174.386 257.16C173.413 258.4 171.574 258.496 170.479 257.369L164.206 250.923L166.799 238.966V238.966Z" fill="#FF8400"/>
<path d="M170.68 285.425H141.508C136.743 285.425 132.862 281.538 132.862 276.751V260.959C132.862 256.182 136.743 252.286 141.508 252.286H170.68C175.446 252.286 179.326 256.173 179.326 260.959V276.751C179.326 281.529 175.446 285.425 170.68 285.425V285.425ZM141.508 256.155C138.863 256.155 136.708 258.313 136.708 260.968V276.76C136.708 279.415 138.863 281.573 141.508 281.573H170.68C173.326 281.573 175.481 279.415 175.481 276.76V260.968C175.481 258.313 173.326 256.155 170.68 256.155H141.508V256.155Z" fill="#131B20"/>
<path d="M211.345 277.118V327.281C211.345 329.464 209.576 331.238 207.394 331.238H105.705C103.524 331.238 101.754 329.464 101.754 327.281V277.118H211.354H211.345Z" fill="white"/>
<path d="M213.29 266.759H98.6092C96.6159 266.759 95 268.37 95 270.358V278.193C95 280.18 96.6159 281.791 98.6092 281.791H213.29C215.283 281.791 216.899 280.18 216.899 278.193V270.358C216.899 268.37 215.283 266.759 213.29 266.759Z" fill="white"/>
<path d="M102.814 282.324H212.125" stroke="#131B20" stroke-miterlimit="10" stroke-linecap="round"/>
<path d="M125.162 277.206H120.046C118.783 277.206 117.759 278.226 117.759 279.485V286.482C117.759 287.741 118.783 288.761 120.046 288.761H125.162C126.424 288.761 127.448 287.741 127.448 286.482V279.485C127.448 278.226 126.424 277.206 125.162 277.206Z" fill="white" stroke="#131B20" stroke-miterlimit="10" stroke-linecap="round"/>
<path d="M191.091 277.206H185.975C184.713 277.206 183.689 278.226 183.689 279.485V286.482C183.689 287.741 184.713 288.761 185.975 288.761H191.091C192.354 288.761 193.378 287.741 193.378 286.482V279.485C193.378 278.226 192.354 277.206 191.091 277.206Z" fill="white" stroke="#131B20" stroke-miterlimit="10" stroke-linecap="round"/>
<path d="M211.345 299.924V327.281C211.345 329.464 209.576 331.238 207.394 331.238H105.705C103.524 331.238 101.754 329.464 101.754 327.281V299.924H211.354H211.345Z" fill="#131B20"/>
<path d="M188.166 154.153L155.087 152.345L141.754 187.746C140.317 191.555 139.73 195.616 140.01 199.678C141.053 214.553 143.672 251.753 144.242 258.706C144.426 260.986 146.423 262.095 149.139 262.933L159.607 265.134C162.016 265.659 165.258 265.134 165.678 261.361L165.853 258.059L167.824 249.115L172.082 203.678L188.174 154.153H188.166Z" fill="#FF8400"/>
<path d="M158.337 257.963L158.258 264.471" stroke="#131B20" stroke-miterlimit="10" stroke-linecap="round"/>
<path d="M152.8 258.514V263.353" stroke="#131B20" stroke-miterlimit="10" stroke-linecap="round"/>
<path d="M148.289 258.321L148.219 262.034" stroke="#131B20" stroke-miterlimit="10" stroke-linecap="round"/>
<path d="M145.161 169.709L185.678 173.605L208.297 115.59L202.979 114.734C187.763 112.288 172.853 118.001 163.102 128.989C159.774 132.736 157.049 137.095 155.122 141.96C154.929 142.423 154.754 142.903 154.579 143.383L145.17 169.701L145.161 169.709Z" fill="white"/>
<path d="M181.385 174.147L190.259 149.568" stroke="#131B20" stroke-miterlimit="10" stroke-linecap="round"/>
<path d="M193.422 152.162L187.833 157.446" stroke="#131B20" stroke-miterlimit="10" stroke-linecap="round"/>
<path d="M163.523 147.925C165.888 149.332 169.48 147.655 171.539 144.17C173.597 140.684 173.352 136.728 170.978 135.321C168.613 133.915 165.021 135.592 162.962 139.077C160.904 142.554 161.149 146.519 163.523 147.925Z" fill="#131B20"/>
<path d="M156.979 170.627L174.622 119.669" stroke="#131B20" stroke-miterlimit="10" stroke-linecap="round"/>
<path d="M239.282 74.1621C238.695 74.7561 237.88 75.1229 236.986 75.1229C235.208 75.1229 233.763 73.673 233.763 71.8911C233.763 71.2797 233.938 70.7032 234.236 70.2228C236.478 71.2885 238.169 72.8781 239.282 74.1534V74.1621Z" fill="#131B20"/>
</g>
</g>
<defs>
<clipPath id="clip0_79_1521">
<rect width="433.274" height="432.935" fill="white" transform="translate(35.0608 4.62802)"/>
</clipPath>
</defs>
</svg>
