<svg width="430" height="437" viewBox="0 0 430 437" fill="none" xmlns="http://www.w3.org/2000/svg">
<path d="M35.8793 121.046C45.7529 111.18 41.9589 91.3932 27.4051 76.8507C12.8513 62.3083 -6.95113 58.5172 -16.8248 68.3832C-26.6985 78.2491 -22.9044 98.036 -8.3506 112.578C6.20322 127.121 26.0056 130.912 35.8793 121.046Z" fill="#393939"/>
<path d="M375.078 343.38C426.582 291.916 413.095 195 344.954 126.912C276.813 58.8243 179.821 45.3477 128.317 96.8115C76.813 148.275 90.3002 245.191 158.441 313.279C226.583 381.367 323.574 394.844 375.078 343.38Z" fill="#F5F6FA"/>
<path d="M14.8116 263.976C14.8116 264.608 14.3005 265.123 13.6635 265.123C13.0266 265.123 12.5154 264.612 12.5154 263.976C12.5154 263.34 13.0266 262.829 13.6635 262.829C14.3005 262.829 14.8116 263.34 14.8116 263.976Z" fill="#393939"/>
<path d="M22.3739 263.976C22.3739 264.608 21.8627 265.123 21.2258 265.123C20.5888 265.123 20.0776 264.612 20.0776 263.976C20.0776 263.34 20.5888 262.829 21.2258 262.829C21.8627 262.829 22.3739 263.34 22.3739 263.976Z" fill="#393939"/>
<path d="M14.8116 271.374C14.8116 272.007 14.3005 272.521 13.6635 272.521C13.0266 272.521 12.5154 272.011 12.5154 271.374C12.5154 270.738 13.0266 270.227 13.6635 270.227C14.3005 270.227 14.8116 270.738 14.8116 271.374Z" fill="#393939"/>
<path d="M22.3739 271.374C22.3739 272.007 21.8627 272.521 21.2258 272.521C20.5888 272.521 20.0776 272.011 20.0776 271.374C20.0776 270.738 20.5888 270.227 21.2258 270.227C21.8627 270.227 22.3739 270.738 22.3739 271.374Z" fill="#393939"/>
<path d="M30.2648 263.976C30.2648 264.608 29.7536 265.123 29.1166 265.123C28.4797 265.123 27.9685 264.612 27.9685 263.976C27.9685 263.34 28.4797 262.829 29.1166 262.829C29.7536 262.829 30.2648 263.34 30.2648 263.976Z" fill="#393939"/>
<path d="M37.827 263.976C37.827 264.608 37.3158 265.123 36.6789 265.123C36.0419 265.123 35.5308 264.612 35.5308 263.976C35.5308 263.34 36.0419 262.829 36.6789 262.829C37.3158 262.829 37.827 263.34 37.827 263.976Z" fill="#393939"/>
<path d="M29.1208 272.521C29.7549 272.521 30.2689 272.008 30.2689 271.374C30.2689 270.741 29.7549 270.227 29.1208 270.227C28.4867 270.227 27.9727 270.741 27.9727 271.374C27.9727 272.008 28.4867 272.521 29.1208 272.521Z" fill="#393939"/>
<path d="M36.6828 272.521C37.3169 272.521 37.8309 272.008 37.8309 271.374C37.8309 270.741 37.3169 270.227 36.6828 270.227C36.0487 270.227 35.5347 270.741 35.5347 271.374C35.5347 272.008 36.0487 272.521 36.6828 272.521Z" fill="#393939"/>
<path d="M45.7218 263.976C45.7218 264.608 45.2106 265.123 44.5737 265.123C43.9367 265.123 43.4255 264.612 43.4255 263.976C43.4255 263.34 43.9367 262.829 44.5737 262.829C45.2106 262.829 45.7218 263.34 45.7218 263.976Z" fill="#393939"/>
<path d="M53.284 263.976C53.284 264.608 52.7728 265.123 52.1359 265.123C51.499 265.123 50.9878 264.612 50.9878 263.976C50.9878 263.34 51.499 262.829 52.1359 262.829C52.7728 262.829 53.284 263.34 53.284 263.976Z" fill="#393939"/>
<path d="M44.5737 272.521C45.2078 272.521 45.7218 272.008 45.7218 271.374C45.7218 270.741 45.2078 270.227 44.5737 270.227C43.9396 270.227 43.4255 270.741 43.4255 271.374C43.4255 272.008 43.9396 272.521 44.5737 272.521Z" fill="#393939"/>
<path d="M52.1359 272.521C52.77 272.521 53.284 272.008 53.284 271.374C53.284 270.741 52.77 270.227 52.1359 270.227C51.5018 270.227 50.9878 270.741 50.9878 271.374C50.9878 272.008 51.5018 272.521 52.1359 272.521Z" fill="#393939"/>
<path d="M14.8116 278.854C14.8116 279.486 14.3005 280.001 13.6635 280.001C13.0266 280.001 12.5154 279.49 12.5154 278.854C12.5154 278.217 13.0266 277.706 13.6635 277.706C14.3005 277.706 14.8116 278.217 14.8116 278.854Z" fill="#393939"/>
<path d="M22.3739 278.854C22.3739 279.486 21.8627 280.001 21.2258 280.001C20.5888 280.001 20.0776 279.49 20.0776 278.854C20.0776 278.217 20.5888 277.706 21.2258 277.706C21.8627 277.706 22.3739 278.217 22.3739 278.854Z" fill="#393939"/>
<path d="M14.8116 286.252C14.8116 286.884 14.3005 287.399 13.6635 287.399C13.0266 287.399 12.5154 286.888 12.5154 286.252C12.5154 285.615 13.0266 285.104 13.6635 285.104C14.3005 285.104 14.8116 285.615 14.8116 286.252Z" fill="#393939"/>
<path d="M22.3739 286.252C22.3739 286.884 21.8627 287.399 21.2258 287.399C20.5888 287.399 20.0776 286.888 20.0776 286.252C20.0776 285.615 20.5888 285.104 21.2258 285.104C21.8627 285.104 22.3739 285.615 22.3739 286.252Z" fill="#393939"/>
<path d="M29.121 280.001C29.7551 280.001 30.2692 279.487 30.2692 278.854C30.2692 278.22 29.7551 277.706 29.121 277.706C28.4869 277.706 27.9729 278.22 27.9729 278.854C27.9729 279.487 28.4869 280.001 29.121 280.001Z" fill="#393939"/>
<path d="M36.6828 280.001C37.3169 280.001 37.8309 279.487 37.8309 278.854C37.8309 278.22 37.3169 277.706 36.6828 277.706C36.0487 277.706 35.5347 278.22 35.5347 278.854C35.5347 279.487 36.0487 280.001 36.6828 280.001Z" fill="#393939"/>
<path d="M30.2648 286.252C30.2648 286.884 29.7536 287.399 29.1166 287.399C28.4797 287.399 27.9685 286.888 27.9685 286.252C27.9685 285.615 28.4797 285.104 29.1166 285.104C29.7536 285.104 30.2648 285.615 30.2648 286.252Z" fill="#393939"/>
<path d="M37.827 286.252C37.827 286.884 37.3158 287.399 36.6789 287.399C36.0419 287.399 35.5308 286.888 35.5308 286.252C35.5308 285.615 36.0419 285.104 36.6789 285.104C37.3158 285.104 37.827 285.615 37.827 286.252Z" fill="#393939"/>
<path d="M44.5737 280.001C45.2078 280.001 45.7218 279.487 45.7218 278.854C45.7218 278.22 45.2078 277.706 44.5737 277.706C43.9396 277.706 43.4255 278.22 43.4255 278.854C43.4255 279.487 43.9396 280.001 44.5737 280.001Z" fill="#393939"/>
<path d="M52.1359 280.001C52.77 280.001 53.284 279.487 53.284 278.854C53.284 278.22 52.77 277.706 52.1359 277.706C51.5018 277.706 50.9878 278.22 50.9878 278.854C50.9878 279.487 51.5018 280.001 52.1359 280.001Z" fill="#393939"/>
<path d="M45.7218 286.252C45.7218 286.884 45.2106 287.399 44.5737 287.399C43.9367 287.399 43.4255 286.888 43.4255 286.252C43.4255 285.615 43.9367 285.104 44.5737 285.104C45.2106 285.104 45.7218 285.615 45.7218 286.252Z" fill="#393939"/>
<path d="M53.284 286.252C53.284 286.884 52.7728 287.399 52.1359 287.399C51.499 287.399 50.9878 286.888 50.9878 286.252C50.9878 285.615 51.499 285.104 52.1359 285.104C52.7728 285.104 53.284 285.615 53.284 286.252Z" fill="#393939"/>
<path d="M14.8116 293.735C14.8116 294.367 14.3005 294.882 13.6635 294.882C13.0266 294.882 12.5154 294.372 12.5154 293.735C12.5154 293.099 13.0266 292.588 13.6635 292.588C14.3005 292.588 14.8116 293.099 14.8116 293.735Z" fill="#393939"/>
<path d="M22.3739 293.735C22.3739 294.367 21.8627 294.882 21.2258 294.882C20.5888 294.882 20.0776 294.372 20.0776 293.735C20.0776 293.099 20.5888 292.588 21.2258 292.588C21.8627 292.588 22.3739 293.099 22.3739 293.735Z" fill="#393939"/>
<path d="M14.8116 301.133C14.8116 301.766 14.3005 302.28 13.6635 302.28C13.0266 302.28 12.5154 301.77 12.5154 301.133C12.5154 300.497 13.0266 299.986 13.6635 299.986C14.3005 299.986 14.8116 300.497 14.8116 301.133Z" fill="#393939"/>
<path d="M22.3739 301.133C22.3739 301.766 21.8627 302.28 21.2258 302.28C20.5888 302.28 20.0776 301.77 20.0776 301.133C20.0776 300.497 20.5888 299.986 21.2258 299.986C21.8627 299.986 22.3739 300.497 22.3739 301.133Z" fill="#393939"/>
<path d="M30.2648 293.735C30.2648 294.367 29.7536 294.882 29.1166 294.882C28.4797 294.882 27.9685 294.372 27.9685 293.735C27.9685 293.099 28.4797 292.588 29.1166 292.588C29.7536 292.588 30.2648 293.099 30.2648 293.735Z" fill="#393939"/>
<path d="M37.827 293.735C37.827 294.367 37.3158 294.882 36.6789 294.882C36.0419 294.882 35.5308 294.372 35.5308 293.735C35.5308 293.099 36.0419 292.588 36.6789 292.588C37.3158 292.588 37.827 293.099 37.827 293.735Z" fill="#393939"/>
<path d="M30.2648 301.133C30.2648 301.766 29.7536 302.28 29.1166 302.28C28.4797 302.28 27.9685 301.77 27.9685 301.133C27.9685 300.497 28.4797 299.986 29.1166 299.986C29.7536 299.986 30.2648 300.497 30.2648 301.133Z" fill="#393939"/>
<path d="M37.827 301.133C37.827 301.766 37.3158 302.28 36.6789 302.28C36.0419 302.28 35.5308 301.77 35.5308 301.133C35.5308 300.497 36.0419 299.986 36.6789 299.986C37.3158 299.986 37.827 300.497 37.827 301.133Z" fill="#393939"/>
<path d="M45.7218 293.735C45.7218 294.367 45.2106 294.882 44.5737 294.882C43.9367 294.882 43.4255 294.372 43.4255 293.735C43.4255 293.099 43.9367 292.588 44.5737 292.588C45.2106 292.588 45.7218 293.099 45.7218 293.735Z" fill="#393939"/>
<path d="M53.284 293.735C53.284 294.367 52.7728 294.882 52.1359 294.882C51.499 294.882 50.9878 294.372 50.9878 293.735C50.9878 293.099 51.499 292.588 52.1359 292.588C52.7728 292.588 53.284 293.099 53.284 293.735Z" fill="#393939"/>
<path d="M45.7218 301.133C45.7218 301.766 45.2106 302.28 44.5737 302.28C43.9367 302.28 43.4255 301.77 43.4255 301.133C43.4255 300.497 43.9367 299.986 44.5737 299.986C45.2106 299.986 45.7218 300.497 45.7218 301.133Z" fill="#393939"/>
<path d="M53.284 301.133C53.284 301.766 52.7728 302.28 52.1359 302.28C51.499 302.28 50.9878 301.77 50.9878 301.133C50.9878 300.497 51.499 299.986 52.1359 299.986C52.7728 299.986 53.284 300.497 53.284 301.133Z" fill="#393939"/>
<path d="M61.2682 263.976C61.2682 264.608 60.757 265.123 60.1201 265.123C59.4831 265.123 58.9719 264.612 58.9719 263.976C58.9719 263.34 59.4831 262.829 60.1201 262.829C60.757 262.829 61.2682 263.34 61.2682 263.976Z" fill="#393939"/>
<path d="M68.8304 263.976C68.8304 264.608 68.3192 265.123 67.6823 265.123C67.0453 265.123 66.5342 264.612 66.5342 263.976C66.5342 263.34 67.0453 262.829 67.6823 262.829C68.3192 262.829 68.8304 263.34 68.8304 263.976Z" fill="#393939"/>
<path d="M60.1242 272.521C60.7583 272.521 61.2723 272.008 61.2723 271.374C61.2723 270.741 60.7583 270.227 60.1242 270.227C59.4901 270.227 58.9761 270.741 58.9761 271.374C58.9761 272.008 59.4901 272.521 60.1242 272.521Z" fill="#393939"/>
<path d="M67.6862 272.521C68.3203 272.521 68.8343 272.008 68.8343 271.374C68.8343 270.741 68.3203 270.227 67.6862 270.227C67.0521 270.227 66.5381 270.741 66.5381 271.374C66.5381 272.008 67.0521 272.521 67.6862 272.521Z" fill="#393939"/>
<path d="M76.7252 263.976C76.7252 264.608 76.214 265.123 75.5771 265.123C74.9401 265.123 74.429 264.612 74.429 263.976C74.429 263.34 74.9401 262.829 75.5771 262.829C76.214 262.829 76.7252 263.34 76.7252 263.976Z" fill="#393939"/>
<path d="M84.2874 263.976C84.2874 264.608 83.7763 265.123 83.1393 265.123C82.5024 265.123 81.9912 264.612 81.9912 263.976C81.9912 263.34 82.5024 262.829 83.1393 262.829C83.7763 262.829 84.2874 263.34 84.2874 263.976Z" fill="#393939"/>
<path d="M75.5771 272.521C76.2112 272.521 76.7252 272.008 76.7252 271.374C76.7252 270.741 76.2112 270.227 75.5771 270.227C74.943 270.227 74.429 270.741 74.429 271.374C74.429 272.008 74.943 272.521 75.5771 272.521Z" fill="#393939"/>
<path d="M83.1393 272.521C83.7734 272.521 84.2874 272.008 84.2874 271.374C84.2874 270.741 83.7734 270.227 83.1393 270.227C82.5053 270.227 81.9912 270.741 81.9912 271.374C81.9912 272.008 82.5053 272.521 83.1393 272.521Z" fill="#393939"/>
<path d="M92.1783 263.976C92.1783 264.608 91.6672 265.123 91.0302 265.123C90.3933 265.123 89.8821 264.612 89.8821 263.976C89.8821 263.34 90.3933 262.829 91.0302 262.829C91.6672 262.829 92.1783 263.34 92.1783 263.976Z" fill="#393939"/>
<path d="M99.7406 263.976C99.7406 264.608 99.2294 265.123 98.5924 265.123C97.9555 265.123 97.4443 264.612 97.4443 263.976C97.4443 263.34 97.9555 262.829 98.5924 262.829C99.2294 262.829 99.7406 263.34 99.7406 263.976Z" fill="#393939"/>
<path d="M91.0343 272.521C91.6684 272.521 92.1825 272.008 92.1825 271.374C92.1825 270.741 91.6684 270.227 91.0343 270.227C90.4002 270.227 89.8862 270.741 89.8862 271.374C89.8862 272.008 90.4002 272.521 91.0343 272.521Z" fill="#393939"/>
<path d="M98.5964 272.521C99.2305 272.521 99.7445 272.008 99.7445 271.374C99.7445 270.741 99.2305 270.227 98.5964 270.227C97.9623 270.227 97.4482 270.741 97.4482 271.374C97.4482 272.008 97.9623 272.521 98.5964 272.521Z" fill="#393939"/>
<path d="M60.1244 280.001C60.7585 280.001 61.2726 279.487 61.2726 278.854C61.2726 278.22 60.7585 277.706 60.1244 277.706C59.4903 277.706 58.9763 278.22 58.9763 278.854C58.9763 279.487 59.4903 280.001 60.1244 280.001Z" fill="#393939"/>
<path d="M67.6862 280.001C68.3203 280.001 68.8343 279.487 68.8343 278.854C68.8343 278.22 68.3203 277.706 67.6862 277.706C67.0521 277.706 66.5381 278.22 66.5381 278.854C66.5381 279.487 67.0521 280.001 67.6862 280.001Z" fill="#393939"/>
<path d="M61.2682 286.252C61.2682 286.884 60.757 287.399 60.1201 287.399C59.4831 287.399 58.9719 286.888 58.9719 286.252C58.9719 285.615 59.4831 285.104 60.1201 285.104C60.757 285.104 61.2682 285.615 61.2682 286.252Z" fill="#393939"/>
<path d="M68.8304 286.252C68.8304 286.884 68.3192 287.399 67.6823 287.399C67.0453 287.399 66.5342 286.888 66.5342 286.252C66.5342 285.615 67.0453 285.104 67.6823 285.104C68.3192 285.104 68.8304 285.615 68.8304 286.252Z" fill="#393939"/>
<path d="M75.5771 280.001C76.2112 280.001 76.7252 279.487 76.7252 278.854C76.7252 278.22 76.2112 277.706 75.5771 277.706C74.943 277.706 74.429 278.22 74.429 278.854C74.429 279.487 74.943 280.001 75.5771 280.001Z" fill="#393939"/>
<path d="M83.1393 280.001C83.7734 280.001 84.2874 279.487 84.2874 278.854C84.2874 278.22 83.7734 277.706 83.1393 277.706C82.5053 277.706 81.9912 278.22 81.9912 278.854C81.9912 279.487 82.5053 280.001 83.1393 280.001Z" fill="#393939"/>
<path d="M76.7252 286.252C76.7252 286.884 76.214 287.399 75.5771 287.399C74.9401 287.399 74.429 286.888 74.429 286.252C74.429 285.615 74.9401 285.104 75.5771 285.104C76.214 285.104 76.7252 285.615 76.7252 286.252Z" fill="#393939"/>
<path d="M84.2874 286.252C84.2874 286.884 83.7763 287.399 83.1393 287.399C82.5024 287.399 81.9912 286.888 81.9912 286.252C81.9912 285.615 82.5024 285.104 83.1393 285.104C83.7763 285.104 84.2874 285.615 84.2874 286.252Z" fill="#393939"/>
<path d="M91.0346 280.001C91.6687 280.001 92.1827 279.487 92.1827 278.854C92.1827 278.22 91.6687 277.706 91.0346 277.706C90.4005 277.706 89.8865 278.22 89.8865 278.854C89.8865 279.487 90.4005 280.001 91.0346 280.001Z" fill="#393939"/>
<path d="M98.5964 280.001C99.2305 280.001 99.7445 279.487 99.7445 278.854C99.7445 278.22 99.2305 277.706 98.5964 277.706C97.9623 277.706 97.4482 278.22 97.4482 278.854C97.4482 279.487 97.9623 280.001 98.5964 280.001Z" fill="#393939"/>
<path d="M92.1783 286.252C92.1783 286.884 91.6672 287.399 91.0302 287.399C90.3933 287.399 89.8821 286.888 89.8821 286.252C89.8821 285.615 90.3933 285.104 91.0302 285.104C91.6672 285.104 92.1783 285.615 92.1783 286.252Z" fill="#393939"/>
<path d="M99.7406 286.252C99.7406 286.884 99.2294 287.399 98.5924 287.399C97.9555 287.399 97.4443 286.888 97.4443 286.252C97.4443 285.615 97.9555 285.104 98.5924 285.104C99.2294 285.104 99.7406 285.615 99.7406 286.252Z" fill="#393939"/>
<path d="M61.2682 293.735C61.2682 294.367 60.757 294.882 60.1201 294.882C59.4831 294.882 58.9719 294.372 58.9719 293.735C58.9719 293.099 59.4831 292.588 60.1201 292.588C60.757 292.588 61.2682 293.099 61.2682 293.735Z" fill="#393939"/>
<path d="M68.8304 293.735C68.8304 294.367 68.3192 294.882 67.6823 294.882C67.0453 294.882 66.5342 294.372 66.5342 293.735C66.5342 293.099 67.0453 292.588 67.6823 292.588C68.3192 292.588 68.8304 293.099 68.8304 293.735Z" fill="#393939"/>
<path d="M61.2682 301.133C61.2682 301.766 60.757 302.28 60.1201 302.28C59.4831 302.28 58.9719 301.77 58.9719 301.133C58.9719 300.497 59.4831 299.986 60.1201 299.986C60.757 299.986 61.2682 300.497 61.2682 301.133Z" fill="#393939"/>
<path d="M68.8304 301.133C68.8304 301.766 68.3192 302.28 67.6823 302.28C67.0453 302.28 66.5342 301.77 66.5342 301.133C66.5342 300.497 67.0453 299.986 67.6823 299.986C68.3192 299.986 68.8304 300.497 68.8304 301.133Z" fill="#393939"/>
<path d="M76.7252 293.735C76.7252 294.367 76.214 294.882 75.5771 294.882C74.9401 294.882 74.429 294.372 74.429 293.735C74.429 293.099 74.9401 292.588 75.5771 292.588C76.214 292.588 76.7252 293.099 76.7252 293.735Z" fill="#393939"/>
<path d="M84.2874 293.735C84.2874 294.367 83.7763 294.882 83.1393 294.882C82.5024 294.882 81.9912 294.372 81.9912 293.735C81.9912 293.099 82.5024 292.588 83.1393 292.588C83.7763 292.588 84.2874 293.099 84.2874 293.735Z" fill="#393939"/>
<path d="M76.7252 301.133C76.7252 301.766 76.214 302.28 75.5771 302.28C74.9401 302.28 74.429 301.77 74.429 301.133C74.429 300.497 74.9401 299.986 75.5771 299.986C76.214 299.986 76.7252 300.497 76.7252 301.133Z" fill="#393939"/>
<path d="M84.2874 301.133C84.2874 301.766 83.7763 302.28 83.1393 302.28C82.5024 302.28 81.9912 301.77 81.9912 301.133C81.9912 300.497 82.5024 299.986 83.1393 299.986C83.7763 299.986 84.2874 300.497 84.2874 301.133Z" fill="#393939"/>
<path d="M92.1783 293.735C92.1783 294.367 91.6672 294.882 91.0302 294.882C90.3933 294.882 89.8821 294.372 89.8821 293.735C89.8821 293.099 90.3933 292.588 91.0302 292.588C91.6672 292.588 92.1783 293.099 92.1783 293.735Z" fill="#393939"/>
<path d="M99.7406 293.735C99.7406 294.367 99.2294 294.882 98.5924 294.882C97.9555 294.882 97.4443 294.372 97.4443 293.735C97.4443 293.099 97.9555 292.588 98.5924 292.588C99.2294 292.588 99.7406 293.099 99.7406 293.735Z" fill="#393939"/>
<path d="M92.1783 301.133C92.1783 301.766 91.6672 302.28 91.0302 302.28C90.3933 302.28 89.8821 301.77 89.8821 301.133C89.8821 300.497 90.3933 299.986 91.0302 299.986C91.6672 299.986 92.1783 300.497 92.1783 301.133Z" fill="#393939"/>
<path d="M99.7406 301.133C99.7406 301.766 99.2294 302.28 98.5924 302.28C97.9555 302.28 97.4443 301.77 97.4443 301.133C97.4443 300.497 97.9555 299.986 98.5924 299.986C99.2294 299.986 99.7406 300.497 99.7406 301.133Z" fill="#393939"/>
<path d="M14.8116 308.864C14.8116 309.496 14.3005 310.011 13.6635 310.011C13.0266 310.011 12.5154 309.5 12.5154 308.864C12.5154 308.227 13.0266 307.717 13.6635 307.717C14.3005 307.717 14.8116 308.227 14.8116 308.864Z" fill="#393939"/>
<path d="M22.3739 308.864C22.3739 309.496 21.8627 310.011 21.2258 310.011C20.5888 310.011 20.0776 309.5 20.0776 308.864C20.0776 308.227 20.5888 307.717 21.2258 307.717C21.8627 307.717 22.3739 308.227 22.3739 308.864Z" fill="#393939"/>
<path d="M14.8116 316.262C14.8116 316.894 14.3005 317.409 13.6635 317.409C13.0266 317.409 12.5154 316.899 12.5154 316.262C12.5154 315.626 13.0266 315.115 13.6635 315.115C14.3005 315.115 14.8116 315.626 14.8116 316.262Z" fill="#393939"/>
<path d="M22.3739 316.262C22.3739 316.894 21.8627 317.409 21.2258 317.409C20.5888 317.409 20.0776 316.899 20.0776 316.262C20.0776 315.626 20.5888 315.115 21.2258 315.115C21.8627 315.115 22.3739 315.626 22.3739 316.262Z" fill="#393939"/>
<path d="M30.2648 308.864C30.2648 309.496 29.7536 310.011 29.1166 310.011C28.4797 310.011 27.9685 309.5 27.9685 308.864C27.9685 308.227 28.4797 307.717 29.1166 307.717C29.7536 307.717 30.2648 308.227 30.2648 308.864Z" fill="#393939"/>
<path d="M37.827 308.864C37.827 309.496 37.3158 310.011 36.6789 310.011C36.0419 310.011 35.5308 309.5 35.5308 308.864C35.5308 308.227 36.0419 307.717 36.6789 307.717C37.3158 307.717 37.827 308.227 37.827 308.864Z" fill="#393939"/>
<path d="M30.2648 316.262C30.2648 316.894 29.7536 317.409 29.1166 317.409C28.4797 317.409 27.9685 316.899 27.9685 316.262C27.9685 315.626 28.4797 315.115 29.1166 315.115C29.7536 315.115 30.2648 315.626 30.2648 316.262Z" fill="#393939"/>
<path d="M37.827 316.262C37.827 316.894 37.3158 317.409 36.6789 317.409C36.0419 317.409 35.5308 316.899 35.5308 316.262C35.5308 315.626 36.0419 315.115 36.6789 315.115C37.3158 315.115 37.827 315.626 37.827 316.262Z" fill="#393939"/>
<path d="M45.7218 308.864C45.7218 309.496 45.2106 310.011 44.5737 310.011C43.9367 310.011 43.4255 309.5 43.4255 308.864C43.4255 308.227 43.9367 307.717 44.5737 307.717C45.2106 307.717 45.7218 308.227 45.7218 308.864Z" fill="#393939"/>
<path d="M53.284 308.864C53.284 309.496 52.7728 310.011 52.1359 310.011C51.499 310.011 50.9878 309.5 50.9878 308.864C50.9878 308.227 51.499 307.717 52.1359 307.717C52.7728 307.717 53.284 308.227 53.284 308.864Z" fill="#393939"/>
<path d="M45.7218 316.262C45.7218 316.894 45.2106 317.409 44.5737 317.409C43.9367 317.409 43.4255 316.899 43.4255 316.262C43.4255 315.626 43.9367 315.115 44.5737 315.115C45.2106 315.115 45.7218 315.626 45.7218 316.262Z" fill="#393939"/>
<path d="M53.284 316.262C53.284 316.894 52.7728 317.409 52.1359 317.409C51.499 317.409 50.9878 316.899 50.9878 316.262C50.9878 315.626 51.499 315.115 52.1359 315.115C52.7728 315.115 53.284 315.626 53.284 316.262Z" fill="#393939"/>
<path d="M14.8116 323.741C14.8116 324.374 14.3005 324.889 13.6635 324.889C13.0266 324.889 12.5154 324.378 12.5154 323.741C12.5154 323.105 13.0266 322.594 13.6635 322.594C14.3005 322.594 14.8116 323.105 14.8116 323.741Z" fill="#393939"/>
<path d="M22.3739 323.741C22.3739 324.374 21.8627 324.889 21.2258 324.889C20.5888 324.889 20.0776 324.378 20.0776 323.741C20.0776 323.105 20.5888 322.594 21.2258 322.594C21.8627 322.594 22.3739 323.105 22.3739 323.741Z" fill="#393939"/>
<path d="M14.8116 331.14C14.8116 331.772 14.3005 332.287 13.6635 332.287C13.0266 332.287 12.5154 331.776 12.5154 331.14C12.5154 330.503 13.0266 329.992 13.6635 329.992C14.3005 329.992 14.8116 330.503 14.8116 331.14Z" fill="#393939"/>
<path d="M22.3739 331.14C22.3739 331.772 21.8627 332.287 21.2258 332.287C20.5888 332.287 20.0776 331.776 20.0776 331.14C20.0776 330.503 20.5888 329.992 21.2258 329.992C21.8627 329.992 22.3739 330.503 22.3739 331.14Z" fill="#393939"/>
<path d="M29.1205 324.889C29.7546 324.889 30.2687 324.375 30.2687 323.741C30.2687 323.108 29.7546 322.594 29.1205 322.594C28.4864 322.594 27.9724 323.108 27.9724 323.741C27.9724 324.375 28.4864 324.889 29.1205 324.889Z" fill="#393939"/>
<path d="M36.6828 324.889C37.3169 324.889 37.8309 324.375 37.8309 323.741C37.8309 323.108 37.3169 322.594 36.6828 322.594C36.0487 322.594 35.5347 323.108 35.5347 323.741C35.5347 324.375 36.0487 324.889 36.6828 324.889Z" fill="#393939"/>
<path d="M29.1205 332.287C29.7546 332.287 30.2687 331.773 30.2687 331.14C30.2687 330.506 29.7546 329.992 29.1205 329.992C28.4864 329.992 27.9724 330.506 27.9724 331.14C27.9724 331.773 28.4864 332.287 29.1205 332.287Z" fill="#393939"/>
<path d="M36.6828 332.287C37.3169 332.287 37.8309 331.773 37.8309 331.14C37.8309 330.506 37.3169 329.992 36.6828 329.992C36.0487 329.992 35.5347 330.506 35.5347 331.14C35.5347 331.773 36.0487 332.287 36.6828 332.287Z" fill="#393939"/>
<path d="M44.5737 324.889C45.2078 324.889 45.7218 324.375 45.7218 323.741C45.7218 323.108 45.2078 322.594 44.5737 322.594C43.9396 322.594 43.4255 323.108 43.4255 323.741C43.4255 324.375 43.9396 324.889 44.5737 324.889Z" fill="#393939"/>
<path d="M52.1359 324.889C52.77 324.889 53.284 324.375 53.284 323.741C53.284 323.108 52.77 322.594 52.1359 322.594C51.5018 322.594 50.9878 323.108 50.9878 323.741C50.9878 324.375 51.5018 324.889 52.1359 324.889Z" fill="#393939"/>
<path d="M44.5737 332.287C45.2078 332.287 45.7218 331.773 45.7218 331.14C45.7218 330.506 45.2078 329.992 44.5737 329.992C43.9396 329.992 43.4255 330.506 43.4255 331.14C43.4255 331.773 43.9396 332.287 44.5737 332.287Z" fill="#393939"/>
<path d="M52.1359 332.287C52.77 332.287 53.284 331.773 53.284 331.14C53.284 330.506 52.77 329.992 52.1359 329.992C51.5018 329.992 50.9878 330.506 50.9878 331.14C50.9878 331.773 51.5018 332.287 52.1359 332.287Z" fill="#393939"/>
<path d="M14.8116 338.619C14.8116 339.251 14.3005 339.766 13.6635 339.766C13.0266 339.766 12.5154 339.255 12.5154 338.619C12.5154 337.982 13.0266 337.472 13.6635 337.472C14.3005 337.472 14.8116 337.982 14.8116 338.619Z" fill="#393939"/>
<path d="M22.3739 338.619C22.3739 339.251 21.8627 339.766 21.2258 339.766C20.5888 339.766 20.0776 339.255 20.0776 338.619C20.0776 337.982 20.5888 337.472 21.2258 337.472C21.8627 337.472 22.3739 337.982 22.3739 338.619Z" fill="#393939"/>
<path d="M14.8116 346.017C14.8116 346.649 14.3005 347.164 13.6635 347.164C13.0266 347.164 12.5154 346.654 12.5154 346.017C12.5154 345.381 13.0266 344.87 13.6635 344.87C14.3005 344.87 14.8116 345.381 14.8116 346.017Z" fill="#393939"/>
<path d="M22.3739 346.017C22.3739 346.649 21.8627 347.164 21.2258 347.164C20.5888 347.164 20.0776 346.654 20.0776 346.017C20.0776 345.381 20.5888 344.87 21.2258 344.87C21.8627 344.87 22.3739 345.381 22.3739 346.017Z" fill="#393939"/>
<path d="M29.121 339.766C29.7551 339.766 30.2692 339.252 30.2692 338.619C30.2692 337.985 29.7551 337.472 29.121 337.472C28.4869 337.472 27.9729 337.985 27.9729 338.619C27.9729 339.252 28.4869 339.766 29.121 339.766Z" fill="#393939"/>
<path d="M36.6828 339.766C37.3169 339.766 37.8309 339.252 37.8309 338.619C37.8309 337.985 37.3169 337.472 36.6828 337.472C36.0487 337.472 35.5347 337.985 35.5347 338.619C35.5347 339.252 36.0487 339.766 36.6828 339.766Z" fill="#393939"/>
<path d="M30.2648 346.017C30.2648 346.649 29.7536 347.164 29.1166 347.164C28.4797 347.164 27.9685 346.654 27.9685 346.017C27.9685 345.381 28.4797 344.87 29.1166 344.87C29.7536 344.87 30.2648 345.381 30.2648 346.017Z" fill="#393939"/>
<path d="M37.827 346.017C37.827 346.649 37.3158 347.164 36.6789 347.164C36.0419 347.164 35.5308 346.654 35.5308 346.017C35.5308 345.381 36.0419 344.87 36.6789 344.87C37.3158 344.87 37.827 345.381 37.827 346.017Z" fill="#393939"/>
<path d="M44.5737 339.766C45.2078 339.766 45.7218 339.252 45.7218 338.619C45.7218 337.985 45.2078 337.472 44.5737 337.472C43.9396 337.472 43.4255 337.985 43.4255 338.619C43.4255 339.252 43.9396 339.766 44.5737 339.766Z" fill="#393939"/>
<path d="M52.1359 339.766C52.77 339.766 53.284 339.252 53.284 338.619C53.284 337.985 52.77 337.472 52.1359 337.472C51.5018 337.472 50.9878 337.985 50.9878 338.619C50.9878 339.252 51.5018 339.766 52.1359 339.766Z" fill="#393939"/>
<path d="M45.7218 346.017C45.7218 346.649 45.2106 347.164 44.5737 347.164C43.9367 347.164 43.4255 346.654 43.4255 346.017C43.4255 345.381 43.9367 344.87 44.5737 344.87C45.2106 344.87 45.7218 345.381 45.7218 346.017Z" fill="#393939"/>
<path d="M53.284 346.017C53.284 346.649 52.7728 347.164 52.1359 347.164C51.499 347.164 50.9878 346.654 50.9878 346.017C50.9878 345.381 51.499 344.87 52.1359 344.87C52.7728 344.87 53.284 345.381 53.284 346.017Z" fill="#393939"/>
<path d="M61.2682 308.864C61.2682 309.496 60.757 310.011 60.1201 310.011C59.4831 310.011 58.9719 309.5 58.9719 308.864C58.9719 308.227 59.4831 307.717 60.1201 307.717C60.757 307.717 61.2682 308.227 61.2682 308.864Z" fill="#393939"/>
<path d="M68.8304 308.864C68.8304 309.496 68.3192 310.011 67.6823 310.011C67.0453 310.011 66.5342 309.5 66.5342 308.864C66.5342 308.227 67.0453 307.717 67.6823 307.717C68.3192 307.717 68.8304 308.227 68.8304 308.864Z" fill="#393939"/>
<path d="M61.2682 316.262C61.2682 316.894 60.757 317.409 60.1201 317.409C59.4831 317.409 58.9719 316.899 58.9719 316.262C58.9719 315.626 59.4831 315.115 60.1201 315.115C60.757 315.115 61.2682 315.626 61.2682 316.262Z" fill="#393939"/>
<path d="M68.8304 316.262C68.8304 316.894 68.3192 317.409 67.6823 317.409C67.0453 317.409 66.5342 316.899 66.5342 316.262C66.5342 315.626 67.0453 315.115 67.6823 315.115C68.3192 315.115 68.8304 315.626 68.8304 316.262Z" fill="#393939"/>
<path d="M76.7252 308.864C76.7252 309.496 76.214 310.011 75.5771 310.011C74.9401 310.011 74.429 309.5 74.429 308.864C74.429 308.227 74.9401 307.717 75.5771 307.717C76.214 307.717 76.7252 308.227 76.7252 308.864Z" fill="#393939"/>
<path d="M84.2874 308.864C84.2874 309.496 83.7763 310.011 83.1393 310.011C82.5024 310.011 81.9912 309.5 81.9912 308.864C81.9912 308.227 82.5024 307.717 83.1393 307.717C83.7763 307.717 84.2874 308.227 84.2874 308.864Z" fill="#393939"/>
<path d="M76.7252 316.262C76.7252 316.894 76.214 317.409 75.5771 317.409C74.9401 317.409 74.429 316.899 74.429 316.262C74.429 315.626 74.9401 315.115 75.5771 315.115C76.214 315.115 76.7252 315.626 76.7252 316.262Z" fill="#393939"/>
<path d="M84.2874 316.262C84.2874 316.894 83.7763 317.409 83.1393 317.409C82.5024 317.409 81.9912 316.899 81.9912 316.262C81.9912 315.626 82.5024 315.115 83.1393 315.115C83.7763 315.115 84.2874 315.626 84.2874 316.262Z" fill="#393939"/>
<path d="M92.1783 308.864C92.1783 309.496 91.6672 310.011 91.0302 310.011C90.3933 310.011 89.8821 309.5 89.8821 308.864C89.8821 308.227 90.3933 307.717 91.0302 307.717C91.6672 307.717 92.1783 308.227 92.1783 308.864Z" fill="#393939"/>
<path d="M99.7406 308.864C99.7406 309.496 99.2294 310.011 98.5924 310.011C97.9555 310.011 97.4443 309.5 97.4443 308.864C97.4443 308.227 97.9555 307.717 98.5924 307.717C99.2294 307.717 99.7406 308.227 99.7406 308.864Z" fill="#393939"/>
<path d="M92.1783 316.262C92.1783 316.894 91.6672 317.409 91.0302 317.409C90.3933 317.409 89.8821 316.899 89.8821 316.262C89.8821 315.626 90.3933 315.115 91.0302 315.115C91.6672 315.115 92.1783 315.626 92.1783 316.262Z" fill="#393939"/>
<path d="M99.7406 316.262C99.7406 316.894 99.2294 317.409 98.5924 317.409C97.9555 317.409 97.4443 316.899 97.4443 316.262C97.4443 315.626 97.9555 315.115 98.5924 315.115C99.2294 315.115 99.7406 315.626 99.7406 316.262Z" fill="#393939"/>
<path d="M60.1242 324.889C60.7583 324.889 61.2723 324.375 61.2723 323.741C61.2723 323.108 60.7583 322.594 60.1242 322.594C59.4901 322.594 58.9761 323.108 58.9761 323.741C58.9761 324.375 59.4901 324.889 60.1242 324.889Z" fill="#393939"/>
<path d="M67.6865 324.889C68.3206 324.889 68.8346 324.375 68.8346 323.741C68.8346 323.108 68.3206 322.594 67.6865 322.594C67.0524 322.594 66.5383 323.108 66.5383 323.741C66.5383 324.375 67.0524 324.889 67.6865 324.889Z" fill="#393939"/>
<path d="M60.1242 332.287C60.7583 332.287 61.2723 331.773 61.2723 331.14C61.2723 330.506 60.7583 329.992 60.1242 329.992C59.4901 329.992 58.9761 330.506 58.9761 331.14C58.9761 331.773 59.4901 332.287 60.1242 332.287Z" fill="#393939"/>
<path d="M67.6865 332.287C68.3206 332.287 68.8346 331.773 68.8346 331.14C68.8346 330.506 68.3206 329.992 67.6865 329.992C67.0524 329.992 66.5383 330.506 66.5383 331.14C66.5383 331.773 67.0524 332.287 67.6865 332.287Z" fill="#393939"/>
<path d="M75.5771 324.889C76.2112 324.889 76.7252 324.375 76.7252 323.741C76.7252 323.108 76.2112 322.594 75.5771 322.594C74.943 322.594 74.429 323.108 74.429 323.741C74.429 324.375 74.943 324.889 75.5771 324.889Z" fill="#393939"/>
<path d="M83.1393 324.889C83.7734 324.889 84.2874 324.375 84.2874 323.741C84.2874 323.108 83.7734 322.594 83.1393 322.594C82.5053 322.594 81.9912 323.108 81.9912 323.741C81.9912 324.375 82.5053 324.889 83.1393 324.889Z" fill="#393939"/>
<path d="M75.5771 332.287C76.2112 332.287 76.7252 331.773 76.7252 331.14C76.7252 330.506 76.2112 329.992 75.5771 329.992C74.943 329.992 74.429 330.506 74.429 331.14C74.429 331.773 74.943 332.287 75.5771 332.287Z" fill="#393939"/>
<path d="M83.1393 332.287C83.7734 332.287 84.2874 331.773 84.2874 331.14C84.2874 330.506 83.7734 329.992 83.1393 329.992C82.5053 329.992 81.9912 330.506 81.9912 331.14C81.9912 331.773 82.5053 332.287 83.1393 332.287Z" fill="#393939"/>
<path d="M91.0343 324.889C91.6684 324.889 92.1825 324.375 92.1825 323.741C92.1825 323.108 91.6684 322.594 91.0343 322.594C90.4002 322.594 89.8862 323.108 89.8862 323.741C89.8862 324.375 90.4002 324.889 91.0343 324.889Z" fill="#393939"/>
<path d="M98.5966 324.889C99.2307 324.889 99.7448 324.375 99.7448 323.741C99.7448 323.108 99.2307 322.594 98.5966 322.594C97.9625 322.594 97.4485 323.108 97.4485 323.741C97.4485 324.375 97.9625 324.889 98.5966 324.889Z" fill="#393939"/>
<path d="M91.0343 332.287C91.6684 332.287 92.1825 331.773 92.1825 331.14C92.1825 330.506 91.6684 329.992 91.0343 329.992C90.4002 329.992 89.8862 330.506 89.8862 331.14C89.8862 331.773 90.4002 332.287 91.0343 332.287Z" fill="#393939"/>
<path d="M98.5966 332.287C99.2307 332.287 99.7448 331.773 99.7448 331.14C99.7448 330.506 99.2307 329.992 98.5966 329.992C97.9625 329.992 97.4485 330.506 97.4485 331.14C97.4485 331.773 97.9625 332.287 98.5966 332.287Z" fill="#393939"/>
<path d="M60.1244 339.766C60.7585 339.766 61.2726 339.252 61.2726 338.619C61.2726 337.985 60.7585 337.472 60.1244 337.472C59.4903 337.472 58.9763 337.985 58.9763 338.619C58.9763 339.252 59.4903 339.766 60.1244 339.766Z" fill="#393939"/>
<path d="M67.6862 339.766C68.3203 339.766 68.8343 339.252 68.8343 338.619C68.8343 337.985 68.3203 337.472 67.6862 337.472C67.0521 337.472 66.5381 337.985 66.5381 338.619C66.5381 339.252 67.0521 339.766 67.6862 339.766Z" fill="#393939"/>
<path d="M61.2682 346.017C61.2682 346.649 60.757 347.164 60.1201 347.164C59.4831 347.164 58.9719 346.654 58.9719 346.017C58.9719 345.381 59.4831 344.87 60.1201 344.87C60.757 344.87 61.2682 345.381 61.2682 346.017Z" fill="#393939"/>
<path d="M68.8304 346.017C68.8304 346.649 68.3192 347.164 67.6823 347.164C67.0453 347.164 66.5342 346.654 66.5342 346.017C66.5342 345.381 67.0453 344.87 67.6823 344.87C68.3192 344.87 68.8304 345.381 68.8304 346.017Z" fill="#393939"/>
<path d="M75.5771 339.766C76.2112 339.766 76.7252 339.252 76.7252 338.619C76.7252 337.985 76.2112 337.472 75.5771 337.472C74.943 337.472 74.429 337.985 74.429 338.619C74.429 339.252 74.943 339.766 75.5771 339.766Z" fill="#393939"/>
<path d="M83.1393 339.766C83.7734 339.766 84.2874 339.252 84.2874 338.619C84.2874 337.985 83.7734 337.472 83.1393 337.472C82.5053 337.472 81.9912 337.985 81.9912 338.619C81.9912 339.252 82.5053 339.766 83.1393 339.766Z" fill="#393939"/>
<path d="M76.7252 346.017C76.7252 346.649 76.214 347.164 75.5771 347.164C74.9401 347.164 74.429 346.654 74.429 346.017C74.429 345.381 74.9401 344.87 75.5771 344.87C76.214 344.87 76.7252 345.381 76.7252 346.017Z" fill="#393939"/>
<path d="M84.2874 346.017C84.2874 346.649 83.7763 347.164 83.1393 347.164C82.5024 347.164 81.9912 346.654 81.9912 346.017C81.9912 345.381 82.5024 344.87 83.1393 344.87C83.7763 344.87 84.2874 345.381 84.2874 346.017Z" fill="#393939"/>
<path d="M91.0346 339.766C91.6687 339.766 92.1827 339.252 92.1827 338.619C92.1827 337.985 91.6687 337.472 91.0346 337.472C90.4005 337.472 89.8865 337.985 89.8865 338.619C89.8865 339.252 90.4005 339.766 91.0346 339.766Z" fill="#393939"/>
<path d="M98.5964 339.766C99.2305 339.766 99.7445 339.252 99.7445 338.619C99.7445 337.985 99.2305 337.472 98.5964 337.472C97.9623 337.472 97.4482 337.985 97.4482 338.619C97.4482 339.252 97.9623 339.766 98.5964 339.766Z" fill="#393939"/>
<path d="M92.1783 346.017C92.1783 346.649 91.6672 347.164 91.0302 347.164C90.3933 347.164 89.8821 346.654 89.8821 346.017C89.8821 345.381 90.3933 344.87 91.0302 344.87C91.6672 344.87 92.1783 345.381 92.1783 346.017Z" fill="#393939"/>
<path d="M99.7406 346.017C99.7406 346.649 99.2294 347.164 98.5924 347.164C97.9555 347.164 97.4443 346.654 97.4443 346.017C97.4443 345.381 97.9555 344.87 98.5924 344.87C99.2294 344.87 99.7406 345.381 99.7406 346.017Z" fill="#393939"/>
<path d="M326.067 75.4657C326.067 76.0981 325.556 76.613 324.919 76.613C324.282 76.613 323.771 76.1022 323.771 75.4657C323.771 74.8293 324.282 74.3185 324.919 74.3185C325.556 74.3185 326.067 74.8293 326.067 75.4657Z" fill="#393939"/>
<path d="M333.629 75.4657C333.629 76.0981 333.118 76.613 332.481 76.613C331.844 76.613 331.333 76.1022 331.333 75.4657C331.333 74.8293 331.844 74.3185 332.481 74.3185C333.118 74.3185 333.629 74.8293 333.629 75.4657Z" fill="#393939"/>
<path d="M326.067 82.8639C326.067 83.4963 325.556 84.0112 324.919 84.0112C324.282 84.0112 323.771 83.5004 323.771 82.8639C323.771 82.2275 324.282 81.7167 324.919 81.7167C325.556 81.7167 326.067 82.2275 326.067 82.8639Z" fill="#393939"/>
<path d="M333.629 82.8639C333.629 83.4963 333.118 84.0112 332.481 84.0112C331.844 84.0112 331.333 83.5004 331.333 82.8639C331.333 82.2275 331.844 81.7167 332.481 81.7167C333.118 81.7167 333.629 82.2275 333.629 82.8639Z" fill="#393939"/>
<path d="M341.524 75.4657C341.524 76.0981 341.013 76.613 340.376 76.613C339.739 76.613 339.228 76.1022 339.228 75.4657C339.228 74.8293 339.739 74.3185 340.376 74.3185C341.013 74.3185 341.524 74.8293 341.524 75.4657Z" fill="#393939"/>
<path d="M349.087 75.4657C349.087 76.0981 348.575 76.613 347.938 76.613C347.301 76.613 346.79 76.1022 346.79 75.4657C346.79 74.8293 347.301 74.3185 347.938 74.3185C348.575 74.3185 349.087 74.8293 349.087 75.4657Z" fill="#393939"/>
<path d="M341.524 82.8639C341.524 83.4963 341.013 84.0112 340.376 84.0112C339.739 84.0112 339.228 83.5004 339.228 82.8639C339.228 82.2275 339.739 81.7167 340.376 81.7167C341.013 81.7167 341.524 82.2275 341.524 82.8639Z" fill="#393939"/>
<path d="M349.087 82.8639C349.087 83.4963 348.575 84.0112 347.938 84.0112C347.301 84.0112 346.79 83.5004 346.79 82.8639C346.79 82.2275 347.301 81.7167 347.938 81.7167C348.575 81.7167 349.087 82.2275 349.087 82.8639Z" fill="#393939"/>
<path d="M356.977 75.4657C356.977 76.0981 356.466 76.613 355.829 76.613C355.192 76.613 354.681 76.1022 354.681 75.4657C354.681 74.8293 355.192 74.3185 355.829 74.3185C356.466 74.3185 356.977 74.8293 356.977 75.4657Z" fill="#393939"/>
<path d="M364.54 75.4657C364.54 76.0981 364.029 76.613 363.392 76.613C362.755 76.613 362.243 76.1022 362.243 75.4657C362.243 74.8293 362.755 74.3185 363.392 74.3185C364.029 74.3185 364.54 74.8293 364.54 75.4657Z" fill="#393939"/>
<path d="M356.977 82.8639C356.977 83.4963 356.466 84.0112 355.829 84.0112C355.192 84.0112 354.681 83.5004 354.681 82.8639C354.681 82.2275 355.192 81.7167 355.829 81.7167C356.466 81.7167 356.977 82.2275 356.977 82.8639Z" fill="#393939"/>
<path d="M364.54 82.8639C364.54 83.4963 364.029 84.0112 363.392 84.0112C362.755 84.0112 362.243 83.5004 362.243 82.8639C362.243 82.2275 362.755 81.7167 363.392 81.7167C364.029 81.7167 364.54 82.2275 364.54 82.8639Z" fill="#393939"/>
<path d="M326.067 90.3432C326.067 90.9756 325.556 91.4904 324.919 91.4904C324.282 91.4904 323.771 90.9797 323.771 90.3432C323.771 89.7068 324.282 89.196 324.919 89.196C325.556 89.196 326.067 89.7068 326.067 90.3432Z" fill="#393939"/>
<path d="M333.629 90.3432C333.629 90.9756 333.118 91.4904 332.481 91.4904C331.844 91.4904 331.333 90.9797 331.333 90.3432C331.333 89.7068 331.844 89.196 332.481 89.196C333.118 89.196 333.629 89.7068 333.629 90.3432Z" fill="#393939"/>
<path d="M326.067 97.7414C326.067 98.3738 325.556 98.8886 324.919 98.8886C324.282 98.8886 323.771 98.3779 323.771 97.7414C323.771 97.105 324.282 96.5942 324.919 96.5942C325.556 96.5942 326.067 97.105 326.067 97.7414Z" fill="#393939"/>
<path d="M333.629 97.7414C333.629 98.3738 333.118 98.8886 332.481 98.8886C331.844 98.8886 331.333 98.3779 331.333 97.7414C331.333 97.105 331.844 96.5942 332.481 96.5942C333.118 96.5942 333.629 97.105 333.629 97.7414Z" fill="#393939"/>
<path d="M341.524 90.3432C341.524 90.9756 341.013 91.4904 340.376 91.4904C339.739 91.4904 339.228 90.9797 339.228 90.3432C339.228 89.7068 339.739 89.196 340.376 89.196C341.013 89.196 341.524 89.7068 341.524 90.3432Z" fill="#393939"/>
<path d="M349.087 90.3432C349.087 90.9756 348.575 91.4904 347.938 91.4904C347.301 91.4904 346.79 90.9797 346.79 90.3432C346.79 89.7068 347.301 89.196 347.938 89.196C348.575 89.196 349.087 89.7068 349.087 90.3432Z" fill="#393939"/>
<path d="M341.524 97.7414C341.524 98.3738 341.013 98.8886 340.376 98.8886C339.739 98.8886 339.228 98.3779 339.228 97.7414C339.228 97.105 339.739 96.5942 340.376 96.5942C341.013 96.5942 341.524 97.105 341.524 97.7414Z" fill="#393939"/>
<path d="M349.087 97.7414C349.087 98.3738 348.575 98.8886 347.938 98.8886C347.301 98.8886 346.79 98.3779 346.79 97.7414C346.79 97.105 347.301 96.5942 347.938 96.5942C348.575 96.5942 349.087 97.105 349.087 97.7414Z" fill="#393939"/>
<path d="M356.977 90.3432C356.977 90.9756 356.466 91.4904 355.829 91.4904C355.192 91.4904 354.681 90.9797 354.681 90.3432C354.681 89.7068 355.192 89.196 355.829 89.196C356.466 89.196 356.977 89.7068 356.977 90.3432Z" fill="#393939"/>
<path d="M364.54 90.3432C364.54 90.9756 364.029 91.4904 363.392 91.4904C362.755 91.4904 362.243 90.9797 362.243 90.3432C362.243 89.7068 362.755 89.196 363.392 89.196C364.029 89.196 364.54 89.7068 364.54 90.3432Z" fill="#393939"/>
<path d="M355.833 98.8886C356.468 98.8886 356.982 98.375 356.982 97.7414C356.982 97.1078 356.468 96.5942 355.833 96.5942C355.199 96.5942 354.685 97.1078 354.685 97.7414C354.685 98.375 355.199 98.8886 355.833 98.8886Z" fill="#393939"/>
<path d="M363.395 98.8886C364.03 98.8886 364.544 98.375 364.544 97.7414C364.544 97.1078 364.03 96.5942 363.395 96.5942C362.761 96.5942 362.247 97.1078 362.247 97.7414C362.247 98.375 362.761 98.8886 363.395 98.8886Z" fill="#393939"/>
<path d="M326.067 105.225C326.067 105.857 325.556 106.372 324.919 106.372C324.282 106.372 323.771 105.861 323.771 105.225C323.771 104.588 324.282 104.078 324.919 104.078C325.556 104.078 326.067 104.588 326.067 105.225Z" fill="#393939"/>
<path d="M333.629 105.225C333.629 105.857 333.118 106.372 332.481 106.372C331.844 106.372 331.333 105.861 331.333 105.225C331.333 104.588 331.844 104.078 332.481 104.078C333.118 104.078 333.629 104.588 333.629 105.225Z" fill="#393939"/>
<path d="M326.067 112.623C326.067 113.255 325.556 113.77 324.919 113.77C324.282 113.77 323.771 113.259 323.771 112.623C323.771 111.986 324.282 111.476 324.919 111.476C325.556 111.476 326.067 111.986 326.067 112.623Z" fill="#393939"/>
<path d="M333.629 112.623C333.629 113.255 333.118 113.77 332.481 113.77C331.844 113.77 331.333 113.259 331.333 112.623C331.333 111.986 331.844 111.476 332.481 111.476C333.118 111.476 333.629 111.986 333.629 112.623Z" fill="#393939"/>
<path d="M341.524 105.225C341.524 105.857 341.013 106.372 340.376 106.372C339.739 106.372 339.228 105.861 339.228 105.225C339.228 104.588 339.739 104.078 340.376 104.078C341.013 104.078 341.524 104.588 341.524 105.225Z" fill="#393939"/>
<path d="M349.087 105.225C349.087 105.857 348.575 106.372 347.938 106.372C347.301 106.372 346.79 105.861 346.79 105.225C346.79 104.588 347.301 104.078 347.938 104.078C348.575 104.078 349.087 104.588 349.087 105.225Z" fill="#393939"/>
<path d="M341.524 112.623C341.524 113.255 341.013 113.77 340.376 113.77C339.739 113.77 339.228 113.259 339.228 112.623C339.228 111.986 339.739 111.476 340.376 111.476C341.013 111.476 341.524 111.986 341.524 112.623Z" fill="#393939"/>
<path d="M349.087 112.623C349.087 113.255 348.575 113.77 347.938 113.77C347.301 113.77 346.79 113.259 346.79 112.623C346.79 111.986 347.301 111.476 347.938 111.476C348.575 111.476 349.087 111.986 349.087 112.623Z" fill="#393939"/>
<path d="M355.834 106.372C356.468 106.372 356.982 105.858 356.982 105.225C356.982 104.591 356.468 104.078 355.834 104.078C355.2 104.078 354.686 104.591 354.686 105.225C354.686 105.858 355.2 106.372 355.834 106.372Z" fill="#393939"/>
<path d="M363.395 106.372C364.03 106.372 364.544 105.858 364.544 105.225C364.544 104.591 364.03 104.078 363.395 104.078C362.761 104.078 362.247 104.591 362.247 105.225C362.247 105.858 362.761 106.372 363.395 106.372Z" fill="#393939"/>
<path d="M356.977 112.623C356.977 113.255 356.466 113.77 355.829 113.77C355.192 113.77 354.681 113.259 354.681 112.623C354.681 111.986 355.192 111.476 355.829 111.476C356.466 111.476 356.977 111.986 356.977 112.623Z" fill="#393939"/>
<path d="M364.54 112.623C364.54 113.255 364.029 113.77 363.392 113.77C362.755 113.77 362.243 113.259 362.243 112.623C362.243 111.986 362.755 111.476 363.392 111.476C364.029 111.476 364.54 111.986 364.54 112.623Z" fill="#393939"/>
<path d="M372.528 75.4657C372.528 76.0981 372.016 76.613 371.38 76.613C370.743 76.613 370.231 76.1022 370.231 75.4657C370.231 74.8293 370.743 74.3185 371.38 74.3185C372.016 74.3185 372.528 74.8293 372.528 75.4657Z" fill="#393939"/>
<path d="M380.09 75.4657C380.09 76.0981 379.579 76.613 378.942 76.613C378.305 76.613 377.794 76.1022 377.794 75.4657C377.794 74.8293 378.305 74.3185 378.942 74.3185C379.579 74.3185 380.09 74.8293 380.09 75.4657Z" fill="#393939"/>
<path d="M372.528 82.8639C372.528 83.4963 372.016 84.0112 371.38 84.0112C370.743 84.0112 370.231 83.5004 370.231 82.8639C370.231 82.2275 370.743 81.7167 371.38 81.7167C372.016 81.7167 372.528 82.2275 372.528 82.8639Z" fill="#393939"/>
<path d="M380.09 82.8639C380.09 83.4963 379.579 84.0112 378.942 84.0112C378.305 84.0112 377.794 83.5004 377.794 82.8639C377.794 82.2275 378.305 81.7167 378.942 81.7167C379.579 81.7167 380.09 82.2275 380.09 82.8639Z" fill="#393939"/>
<path d="M387.981 75.4657C387.981 76.0981 387.47 76.613 386.833 76.613C386.196 76.613 385.685 76.1022 385.685 75.4657C385.685 74.8293 386.196 74.3185 386.833 74.3185C387.47 74.3185 387.981 74.8293 387.981 75.4657Z" fill="#393939"/>
<path d="M395.543 75.4657C395.543 76.0981 395.032 76.613 394.395 76.613C393.758 76.613 393.247 76.1022 393.247 75.4657C393.247 74.8293 393.758 74.3185 394.395 74.3185C395.032 74.3185 395.543 74.8293 395.543 75.4657Z" fill="#393939"/>
<path d="M387.981 82.8639C387.981 83.4963 387.47 84.0112 386.833 84.0112C386.196 84.0112 385.685 83.5004 385.685 82.8639C385.685 82.2275 386.196 81.7167 386.833 81.7167C387.47 81.7167 387.981 82.2275 387.981 82.8639Z" fill="#393939"/>
<path d="M395.543 82.8639C395.543 83.4963 395.032 84.0112 394.395 84.0112C393.758 84.0112 393.247 83.5004 393.247 82.8639C393.247 82.2275 393.758 81.7167 394.395 81.7167C395.032 81.7167 395.543 82.2275 395.543 82.8639Z" fill="#393939"/>
<path d="M403.438 75.4657C403.438 76.0981 402.927 76.613 402.29 76.613C401.653 76.613 401.142 76.1022 401.142 75.4657C401.142 74.8293 401.653 74.3185 402.29 74.3185C402.927 74.3185 403.438 74.8293 403.438 75.4657Z" fill="#393939"/>
<path d="M411 75.4657C411 76.0981 410.489 76.613 409.852 76.613C409.215 76.613 408.704 76.1022 408.704 75.4657C408.704 74.8293 409.215 74.3185 409.852 74.3185C410.489 74.3185 411 74.8293 411 75.4657Z" fill="#393939"/>
<path d="M403.438 82.8639C403.438 83.4963 402.927 84.0112 402.29 84.0112C401.653 84.0112 401.142 83.5004 401.142 82.8639C401.142 82.2275 401.653 81.7167 402.29 81.7167C402.927 81.7167 403.438 82.2275 403.438 82.8639Z" fill="#393939"/>
<path d="M411 82.8639C411 83.4963 410.489 84.0112 409.852 84.0112C409.215 84.0112 408.704 83.5004 408.704 82.8639C408.704 82.2275 409.215 81.7167 409.852 81.7167C410.489 81.7167 411 82.2275 411 82.8639Z" fill="#393939"/>
<path d="M372.528 90.3432C372.528 90.9756 372.016 91.4904 371.38 91.4904C370.743 91.4904 370.231 90.9797 370.231 90.3432C370.231 89.7068 370.743 89.196 371.38 89.196C372.016 89.196 372.528 89.7068 372.528 90.3432Z" fill="#393939"/>
<path d="M380.09 90.3432C380.09 90.9756 379.579 91.4904 378.942 91.4904C378.305 91.4904 377.794 90.9797 377.794 90.3432C377.794 89.7068 378.305 89.196 378.942 89.196C379.579 89.196 380.09 89.7068 380.09 90.3432Z" fill="#393939"/>
<path d="M372.528 97.7414C372.528 98.3738 372.016 98.8886 371.38 98.8886C370.743 98.8886 370.231 98.3779 370.231 97.7414C370.231 97.105 370.743 96.5942 371.38 96.5942C372.016 96.5942 372.528 97.105 372.528 97.7414Z" fill="#393939"/>
<path d="M380.09 97.7414C380.09 98.3738 379.579 98.8886 378.942 98.8886C378.305 98.8886 377.794 98.3779 377.794 97.7414C377.794 97.105 378.305 96.5942 378.942 96.5942C379.579 96.5942 380.09 97.105 380.09 97.7414Z" fill="#393939"/>
<path d="M387.981 90.3432C387.981 90.9756 387.47 91.4904 386.833 91.4904C386.196 91.4904 385.685 90.9797 385.685 90.3432C385.685 89.7068 386.196 89.196 386.833 89.196C387.47 89.196 387.981 89.7068 387.981 90.3432Z" fill="#393939"/>
<path d="M395.543 90.3432C395.543 90.9756 395.032 91.4904 394.395 91.4904C393.758 91.4904 393.247 90.9797 393.247 90.3432C393.247 89.7068 393.758 89.196 394.395 89.196C395.032 89.196 395.543 89.7068 395.543 90.3432Z" fill="#393939"/>
<path d="M386.837 98.8886C387.471 98.8886 387.985 98.375 387.985 97.7414C387.985 97.1078 387.471 96.5942 386.837 96.5942C386.203 96.5942 385.689 97.1078 385.689 97.7414C385.689 98.375 386.203 98.8886 386.837 98.8886Z" fill="#393939"/>
<path d="M394.399 98.8886C395.033 98.8886 395.547 98.375 395.547 97.7414C395.547 97.1078 395.033 96.5942 394.399 96.5942C393.765 96.5942 393.251 97.1078 393.251 97.7414C393.251 98.375 393.765 98.8886 394.399 98.8886Z" fill="#393939"/>
<path d="M403.438 90.3432C403.438 90.9756 402.927 91.4904 402.29 91.4904C401.653 91.4904 401.142 90.9797 401.142 90.3432C401.142 89.7068 401.653 89.196 402.29 89.196C402.927 89.196 403.438 89.7068 403.438 90.3432Z" fill="#393939"/>
<path d="M411 90.3432C411 90.9756 410.489 91.4904 409.852 91.4904C409.215 91.4904 408.704 90.9797 408.704 90.3432C408.704 89.7068 409.215 89.196 409.852 89.196C410.489 89.196 411 89.7068 411 90.3432Z" fill="#393939"/>
<path d="M402.29 98.8886C402.924 98.8886 403.438 98.375 403.438 97.7414C403.438 97.1078 402.924 96.5942 402.29 96.5942C401.656 96.5942 401.142 97.1078 401.142 97.7414C401.142 98.375 401.656 98.8886 402.29 98.8886Z" fill="#393939"/>
<path d="M409.852 98.8886C410.486 98.8886 411 98.375 411 97.7414C411 97.1078 410.486 96.5942 409.852 96.5942C409.218 96.5942 408.704 97.1078 408.704 97.7414C408.704 98.375 409.218 98.8886 409.852 98.8886Z" fill="#393939"/>
<path d="M372.528 105.225C372.528 105.857 372.016 106.372 371.38 106.372C370.743 106.372 370.231 105.861 370.231 105.225C370.231 104.588 370.743 104.078 371.38 104.078C372.016 104.078 372.528 104.588 372.528 105.225Z" fill="#393939"/>
<path d="M380.09 105.225C380.09 105.857 379.579 106.372 378.942 106.372C378.305 106.372 377.794 105.861 377.794 105.225C377.794 104.588 378.305 104.078 378.942 104.078C379.579 104.078 380.09 104.588 380.09 105.225Z" fill="#393939"/>
<path d="M372.528 112.623C372.528 113.255 372.016 113.77 371.38 113.77C370.743 113.77 370.231 113.259 370.231 112.623C370.231 111.987 370.743 111.476 371.38 111.476C372.016 111.476 372.528 111.987 372.528 112.623Z" fill="#393939"/>
<path d="M380.09 112.623C380.09 113.255 379.579 113.77 378.942 113.77C378.305 113.77 377.794 113.259 377.794 112.623C377.794 111.987 378.305 111.476 378.942 111.476C379.579 111.476 380.09 111.987 380.09 112.623Z" fill="#393939"/>
<path d="M386.837 106.372C387.471 106.372 387.985 105.858 387.985 105.225C387.985 104.591 387.471 104.078 386.837 104.078C386.203 104.078 385.689 104.591 385.689 105.225C385.689 105.858 386.203 106.372 386.837 106.372Z" fill="#393939"/>
<path d="M394.399 106.372C395.033 106.372 395.547 105.858 395.547 105.225C395.547 104.591 395.033 104.078 394.399 104.078C393.765 104.078 393.251 104.591 393.251 105.225C393.251 105.858 393.765 106.372 394.399 106.372Z" fill="#393939"/>
<path d="M387.981 112.623C387.981 113.255 387.47 113.77 386.833 113.77C386.196 113.77 385.685 113.259 385.685 112.623C385.685 111.987 386.196 111.476 386.833 111.476C387.47 111.476 387.981 111.987 387.981 112.623Z" fill="#393939"/>
<path d="M395.543 112.623C395.543 113.255 395.032 113.77 394.395 113.77C393.758 113.77 393.247 113.259 393.247 112.623C393.247 111.987 393.758 111.476 394.395 111.476C395.032 111.476 395.543 111.987 395.543 112.623Z" fill="#393939"/>
<path d="M402.29 106.372C402.924 106.372 403.438 105.858 403.438 105.225C403.438 104.591 402.924 104.078 402.29 104.078C401.656 104.078 401.142 104.591 401.142 105.225C401.142 105.858 401.656 106.372 402.29 106.372Z" fill="#393939"/>
<path d="M409.852 106.372C410.486 106.372 411 105.858 411 105.225C411 104.591 410.486 104.078 409.852 104.078C409.218 104.078 408.704 104.591 408.704 105.225C408.704 105.858 409.218 106.372 409.852 106.372Z" fill="#393939"/>
<path d="M403.438 112.623C403.438 113.255 402.927 113.77 402.29 113.77C401.653 113.77 401.142 113.259 401.142 112.623C401.142 111.987 401.653 111.476 402.29 111.476C402.927 111.476 403.438 111.987 403.438 112.623Z" fill="#393939"/>
<path d="M411 112.623C411 113.255 410.489 113.77 409.852 113.77C409.215 113.77 408.704 113.259 408.704 112.623C408.704 111.987 409.215 111.476 409.852 111.476C410.489 111.476 411 111.987 411 112.623Z" fill="#393939"/>
<path d="M326.067 120.354C326.067 120.986 325.556 121.501 324.919 121.501C324.282 121.501 323.771 120.99 323.771 120.354C323.771 119.717 324.282 119.206 324.919 119.206C325.556 119.206 326.067 119.717 326.067 120.354Z" fill="#393939"/>
<path d="M333.629 120.354C333.629 120.986 333.118 121.501 332.481 121.501C331.844 121.501 331.333 120.99 331.333 120.354C331.333 119.717 331.844 119.206 332.481 119.206C333.118 119.206 333.629 119.717 333.629 120.354Z" fill="#393939"/>
<path d="M326.067 127.752C326.067 128.384 325.556 128.899 324.919 128.899C324.282 128.899 323.771 128.388 323.771 127.752C323.771 127.115 324.282 126.605 324.919 126.605C325.556 126.605 326.067 127.115 326.067 127.752Z" fill="#393939"/>
<path d="M333.629 127.752C333.629 128.384 333.118 128.899 332.481 128.899C331.844 128.899 331.333 128.388 331.333 127.752C331.333 127.115 331.844 126.605 332.481 126.605C333.118 126.605 333.629 127.115 333.629 127.752Z" fill="#393939"/>
<path d="M341.524 120.354C341.524 120.986 341.013 121.501 340.376 121.501C339.739 121.501 339.228 120.99 339.228 120.354C339.228 119.717 339.739 119.206 340.376 119.206C341.013 119.206 341.524 119.717 341.524 120.354Z" fill="#393939"/>
<path d="M349.087 120.354C349.087 120.986 348.575 121.501 347.938 121.501C347.301 121.501 346.79 120.99 346.79 120.354C346.79 119.717 347.301 119.206 347.938 119.206C348.575 119.206 349.087 119.717 349.087 120.354Z" fill="#393939"/>
<path d="M341.524 127.752C341.524 128.384 341.013 128.899 340.376 128.899C339.739 128.899 339.228 128.388 339.228 127.752C339.228 127.115 339.739 126.605 340.376 126.605C341.013 126.605 341.524 127.115 341.524 127.752Z" fill="#393939"/>
<path d="M349.087 127.752C349.087 128.384 348.575 128.899 347.938 128.899C347.301 128.899 346.79 128.388 346.79 127.752C346.79 127.115 347.301 126.605 347.938 126.605C348.575 126.605 349.087 127.115 349.087 127.752Z" fill="#393939"/>
<path d="M355.834 121.501C356.468 121.501 356.982 120.987 356.982 120.354C356.982 119.72 356.468 119.206 355.834 119.206C355.2 119.206 354.686 119.72 354.686 120.354C354.686 120.987 355.2 121.501 355.834 121.501Z" fill="#393939"/>
<path d="M363.395 121.501C364.03 121.501 364.544 120.987 364.544 120.354C364.544 119.72 364.03 119.206 363.395 119.206C362.761 119.206 362.247 119.72 362.247 120.354C362.247 120.987 362.761 121.501 363.395 121.501Z" fill="#393939"/>
<path d="M356.977 127.752C356.977 128.384 356.466 128.899 355.829 128.899C355.192 128.899 354.681 128.388 354.681 127.752C354.681 127.115 355.192 126.605 355.829 126.605C356.466 126.605 356.977 127.115 356.977 127.752Z" fill="#393939"/>
<path d="M364.54 127.752C364.54 128.384 364.029 128.899 363.392 128.899C362.755 128.899 362.243 128.388 362.243 127.752C362.243 127.115 362.755 126.605 363.392 126.605C364.029 126.605 364.54 127.115 364.54 127.752Z" fill="#393939"/>
<path d="M326.067 135.231C326.067 135.863 325.556 136.378 324.919 136.378C324.282 136.378 323.771 135.868 323.771 135.231C323.771 134.595 324.282 134.084 324.919 134.084C325.556 134.084 326.067 134.595 326.067 135.231Z" fill="#393939"/>
<path d="M333.629 135.231C333.629 135.863 333.118 136.378 332.481 136.378C331.844 136.378 331.333 135.868 331.333 135.231C331.333 134.595 331.844 134.084 332.481 134.084C333.118 134.084 333.629 134.595 333.629 135.231Z" fill="#393939"/>
<path d="M326.067 142.629C326.067 143.262 325.556 143.777 324.919 143.777C324.282 143.777 323.771 143.266 323.771 142.629C323.771 141.993 324.282 141.482 324.919 141.482C325.556 141.482 326.067 141.993 326.067 142.629Z" fill="#393939"/>
<path d="M333.629 142.629C333.629 143.262 333.118 143.777 332.481 143.777C331.844 143.777 331.333 143.266 331.333 142.629C331.333 141.993 331.844 141.482 332.481 141.482C333.118 141.482 333.629 141.993 333.629 142.629Z" fill="#393939"/>
<path d="M341.524 135.231C341.524 135.863 341.013 136.378 340.376 136.378C339.739 136.378 339.228 135.868 339.228 135.231C339.228 134.595 339.739 134.084 340.376 134.084C341.013 134.084 341.524 134.595 341.524 135.231Z" fill="#393939"/>
<path d="M349.087 135.231C349.087 135.863 348.575 136.378 347.938 136.378C347.301 136.378 346.79 135.868 346.79 135.231C346.79 134.595 347.301 134.084 347.938 134.084C348.575 134.084 349.087 134.595 349.087 135.231Z" fill="#393939"/>
<path d="M341.524 142.629C341.524 143.262 341.013 143.777 340.376 143.777C339.739 143.777 339.228 143.266 339.228 142.629C339.228 141.993 339.739 141.482 340.376 141.482C341.013 141.482 341.524 141.993 341.524 142.629Z" fill="#393939"/>
<path d="M349.087 142.629C349.087 143.262 348.575 143.777 347.938 143.777C347.301 143.777 346.79 143.266 346.79 142.629C346.79 141.993 347.301 141.482 347.938 141.482C348.575 141.482 349.087 141.993 349.087 142.629Z" fill="#393939"/>
<path d="M356.977 135.231C356.977 135.863 356.466 136.378 355.829 136.378C355.192 136.378 354.681 135.868 354.681 135.231C354.681 134.595 355.192 134.084 355.829 134.084C356.466 134.084 356.977 134.595 356.977 135.231Z" fill="#393939"/>
<path d="M364.54 135.231C364.54 135.863 364.029 136.378 363.392 136.378C362.755 136.378 362.243 135.868 362.243 135.231C362.243 134.595 362.755 134.084 363.392 134.084C364.029 134.084 364.54 134.595 364.54 135.231Z" fill="#393939"/>
<path d="M356.977 142.629C356.977 143.262 356.466 143.777 355.829 143.777C355.192 143.777 354.681 143.266 354.681 142.629C354.681 141.993 355.192 141.482 355.829 141.482C356.466 141.482 356.977 141.993 356.977 142.629Z" fill="#393939"/>
<path d="M364.54 142.629C364.54 143.262 364.029 143.777 363.392 143.777C362.755 143.777 362.243 143.266 362.243 142.629C362.243 141.993 362.755 141.482 363.392 141.482C364.029 141.482 364.54 141.993 364.54 142.629Z" fill="#393939"/>
<path d="M326.067 150.109C326.067 150.741 325.556 151.256 324.919 151.256C324.282 151.256 323.771 150.745 323.771 150.109C323.771 149.472 324.282 148.961 324.919 148.961C325.556 148.961 326.067 149.472 326.067 150.109Z" fill="#393939"/>
<path d="M333.629 150.109C333.629 150.741 333.118 151.256 332.481 151.256C331.844 151.256 331.333 150.745 331.333 150.109C331.333 149.472 331.844 148.961 332.481 148.961C333.118 148.961 333.629 149.472 333.629 150.109Z" fill="#393939"/>
<path d="M326.067 157.507C326.067 158.139 325.556 158.654 324.919 158.654C324.282 158.654 323.771 158.143 323.771 157.507C323.771 156.87 324.282 156.36 324.919 156.36C325.556 156.36 326.067 156.87 326.067 157.507Z" fill="#393939"/>
<path d="M333.629 157.507C333.629 158.139 333.118 158.654 332.481 158.654C331.844 158.654 331.333 158.143 331.333 157.507C331.333 156.87 331.844 156.36 332.481 156.36C333.118 156.36 333.629 156.87 333.629 157.507Z" fill="#393939"/>
<path d="M341.524 150.109C341.524 150.741 341.013 151.256 340.376 151.256C339.739 151.256 339.228 150.745 339.228 150.109C339.228 149.472 339.739 148.961 340.376 148.961C341.013 148.961 341.524 149.472 341.524 150.109Z" fill="#393939"/>
<path d="M349.087 150.109C349.087 150.741 348.575 151.256 347.938 151.256C347.301 151.256 346.79 150.745 346.79 150.109C346.79 149.472 347.301 148.961 347.938 148.961C348.575 148.961 349.087 149.472 349.087 150.109Z" fill="#393939"/>
<path d="M341.524 157.507C341.524 158.139 341.013 158.654 340.376 158.654C339.739 158.654 339.228 158.143 339.228 157.507C339.228 156.87 339.739 156.36 340.376 156.36C341.013 156.36 341.524 156.87 341.524 157.507Z" fill="#393939"/>
<path d="M349.087 157.507C349.087 158.139 348.575 158.654 347.938 158.654C347.301 158.654 346.79 158.143 346.79 157.507C346.79 156.87 347.301 156.36 347.938 156.36C348.575 156.36 349.087 156.87 349.087 157.507Z" fill="#393939"/>
<path d="M356.977 150.109C356.977 150.741 356.466 151.256 355.829 151.256C355.192 151.256 354.681 150.745 354.681 150.109C354.681 149.472 355.192 148.961 355.829 148.961C356.466 148.961 356.977 149.472 356.977 150.109Z" fill="#393939"/>
<path d="M364.54 150.109C364.54 150.741 364.029 151.256 363.392 151.256C362.755 151.256 362.243 150.745 362.243 150.109C362.243 149.472 362.755 148.961 363.392 148.961C364.029 148.961 364.54 149.472 364.54 150.109Z" fill="#393939"/>
<path d="M355.833 158.654C356.468 158.654 356.982 158.14 356.982 157.507C356.982 156.873 356.468 156.36 355.833 156.36C355.199 156.36 354.685 156.873 354.685 157.507C354.685 158.14 355.199 158.654 355.833 158.654Z" fill="#393939"/>
<path d="M363.395 158.654C364.03 158.654 364.544 158.14 364.544 157.507C364.544 156.873 364.03 156.36 363.395 156.36C362.761 156.36 362.247 156.873 362.247 157.507C362.247 158.14 362.761 158.654 363.395 158.654Z" fill="#393939"/>
<path d="M372.528 120.354C372.528 120.986 372.016 121.501 371.38 121.501C370.743 121.501 370.231 120.99 370.231 120.354C370.231 119.717 370.743 119.206 371.38 119.206C372.016 119.206 372.528 119.717 372.528 120.354Z" fill="#393939"/>
<path d="M380.09 120.354C380.09 120.986 379.579 121.501 378.942 121.501C378.305 121.501 377.794 120.99 377.794 120.354C377.794 119.717 378.305 119.206 378.942 119.206C379.579 119.206 380.09 119.717 380.09 120.354Z" fill="#393939"/>
<path d="M372.528 127.752C372.528 128.384 372.016 128.899 371.38 128.899C370.743 128.899 370.231 128.388 370.231 127.752C370.231 127.115 370.743 126.605 371.38 126.605C372.016 126.605 372.528 127.115 372.528 127.752Z" fill="#393939"/>
<path d="M380.09 127.752C380.09 128.384 379.579 128.899 378.942 128.899C378.305 128.899 377.794 128.388 377.794 127.752C377.794 127.115 378.305 126.605 378.942 126.605C379.579 126.605 380.09 127.115 380.09 127.752Z" fill="#393939"/>
<path d="M386.837 121.501C387.471 121.501 387.985 120.987 387.985 120.354C387.985 119.72 387.471 119.206 386.837 119.206C386.203 119.206 385.689 119.72 385.689 120.354C385.689 120.987 386.203 121.501 386.837 121.501Z" fill="#393939"/>
<path d="M394.399 121.501C395.033 121.501 395.547 120.987 395.547 120.354C395.547 119.72 395.033 119.206 394.399 119.206C393.765 119.206 393.251 119.72 393.251 120.354C393.251 120.987 393.765 121.501 394.399 121.501Z" fill="#393939"/>
<path d="M387.981 127.752C387.981 128.384 387.47 128.899 386.833 128.899C386.196 128.899 385.685 128.388 385.685 127.752C385.685 127.115 386.196 126.605 386.833 126.605C387.47 126.605 387.981 127.115 387.981 127.752Z" fill="#393939"/>
<path d="M395.543 127.752C395.543 128.384 395.032 128.899 394.395 128.899C393.758 128.899 393.247 128.388 393.247 127.752C393.247 127.115 393.758 126.605 394.395 126.605C395.032 126.605 395.543 127.115 395.543 127.752Z" fill="#393939"/>
<path d="M402.29 121.501C402.924 121.501 403.438 120.987 403.438 120.354C403.438 119.72 402.924 119.206 402.29 119.206C401.656 119.206 401.142 119.72 401.142 120.354C401.142 120.987 401.656 121.501 402.29 121.501Z" fill="#393939"/>
<path d="M409.852 121.501C410.486 121.501 411 120.987 411 120.354C411 119.72 410.486 119.206 409.852 119.206C409.218 119.206 408.704 119.72 408.704 120.354C408.704 120.987 409.218 121.501 409.852 121.501Z" fill="#393939"/>
<path d="M403.438 127.752C403.438 128.384 402.927 128.899 402.29 128.899C401.653 128.899 401.142 128.388 401.142 127.752C401.142 127.115 401.653 126.605 402.29 126.605C402.927 126.605 403.438 127.115 403.438 127.752Z" fill="#393939"/>
<path d="M411 127.752C411 128.384 410.489 128.899 409.852 128.899C409.215 128.899 408.704 128.388 408.704 127.752C408.704 127.115 409.215 126.605 409.852 126.605C410.489 126.605 411 127.115 411 127.752Z" fill="#393939"/>
<path d="M372.528 135.231C372.528 135.863 372.016 136.378 371.38 136.378C370.743 136.378 370.231 135.868 370.231 135.231C370.231 134.595 370.743 134.084 371.38 134.084C372.016 134.084 372.528 134.595 372.528 135.231Z" fill="#393939"/>
<path d="M380.09 135.231C380.09 135.863 379.579 136.378 378.942 136.378C378.305 136.378 377.794 135.868 377.794 135.231C377.794 134.595 378.305 134.084 378.942 134.084C379.579 134.084 380.09 134.595 380.09 135.231Z" fill="#393939"/>
<path d="M372.528 142.629C372.528 143.262 372.016 143.777 371.38 143.777C370.743 143.777 370.231 143.266 370.231 142.629C370.231 141.993 370.743 141.482 371.38 141.482C372.016 141.482 372.528 141.993 372.528 142.629Z" fill="#393939"/>
<path d="M380.09 142.629C380.09 143.262 379.579 143.777 378.942 143.777C378.305 143.777 377.794 143.266 377.794 142.629C377.794 141.993 378.305 141.482 378.942 141.482C379.579 141.482 380.09 141.993 380.09 142.629Z" fill="#393939"/>
<path d="M387.981 135.231C387.981 135.863 387.47 136.378 386.833 136.378C386.196 136.378 385.685 135.868 385.685 135.231C385.685 134.595 386.196 134.084 386.833 134.084C387.47 134.084 387.981 134.595 387.981 135.231Z" fill="#393939"/>
<path d="M395.543 135.231C395.543 135.863 395.032 136.378 394.395 136.378C393.758 136.378 393.247 135.868 393.247 135.231C393.247 134.595 393.758 134.084 394.395 134.084C395.032 134.084 395.543 134.595 395.543 135.231Z" fill="#393939"/>
<path d="M387.981 142.629C387.981 143.262 387.47 143.777 386.833 143.777C386.196 143.777 385.685 143.266 385.685 142.629C385.685 141.993 386.196 141.482 386.833 141.482C387.47 141.482 387.981 141.993 387.981 142.629Z" fill="#393939"/>
<path d="M395.543 142.629C395.543 143.262 395.032 143.777 394.395 143.777C393.758 143.777 393.247 143.266 393.247 142.629C393.247 141.993 393.758 141.482 394.395 141.482C395.032 141.482 395.543 141.993 395.543 142.629Z" fill="#393939"/>
<path d="M403.438 135.231C403.438 135.863 402.927 136.378 402.29 136.378C401.653 136.378 401.142 135.868 401.142 135.231C401.142 134.595 401.653 134.084 402.29 134.084C402.927 134.084 403.438 134.595 403.438 135.231Z" fill="#393939"/>
<path d="M411 135.231C411 135.863 410.489 136.378 409.852 136.378C409.215 136.378 408.704 135.868 408.704 135.231C408.704 134.595 409.215 134.084 409.852 134.084C410.489 134.084 411 134.595 411 135.231Z" fill="#393939"/>
<path d="M403.438 142.629C403.438 143.262 402.927 143.777 402.29 143.777C401.653 143.777 401.142 143.266 401.142 142.629C401.142 141.993 401.653 141.482 402.29 141.482C402.927 141.482 403.438 141.993 403.438 142.629Z" fill="#393939"/>
<path d="M411 142.629C411 143.262 410.489 143.777 409.852 143.777C409.215 143.777 408.704 143.266 408.704 142.629C408.704 141.993 409.215 141.482 409.852 141.482C410.489 141.482 411 141.993 411 142.629Z" fill="#393939"/>
<path d="M372.528 150.109C372.528 150.741 372.016 151.256 371.38 151.256C370.743 151.256 370.231 150.745 370.231 150.109C370.231 149.472 370.743 148.961 371.38 148.961C372.016 148.961 372.528 149.472 372.528 150.109Z" fill="#393939"/>
<path d="M380.09 150.109C380.09 150.741 379.579 151.256 378.942 151.256C378.305 151.256 377.794 150.745 377.794 150.109C377.794 149.472 378.305 148.961 378.942 148.961C379.579 148.961 380.09 149.472 380.09 150.109Z" fill="#393939"/>
<path d="M372.528 157.507C372.528 158.139 372.016 158.654 371.38 158.654C370.743 158.654 370.231 158.143 370.231 157.507C370.231 156.87 370.743 156.36 371.38 156.36C372.016 156.36 372.528 156.87 372.528 157.507Z" fill="#393939"/>
<path d="M380.09 157.507C380.09 158.139 379.579 158.654 378.942 158.654C378.305 158.654 377.794 158.143 377.794 157.507C377.794 156.87 378.305 156.36 378.942 156.36C379.579 156.36 380.09 156.87 380.09 157.507Z" fill="#393939"/>
<path d="M387.981 150.109C387.981 150.741 387.47 151.256 386.833 151.256C386.196 151.256 385.685 150.745 385.685 150.109C385.685 149.472 386.196 148.961 386.833 148.961C387.47 148.961 387.981 149.472 387.981 150.109Z" fill="#393939"/>
<path d="M395.543 150.109C395.543 150.741 395.032 151.256 394.395 151.256C393.758 151.256 393.247 150.745 393.247 150.109C393.247 149.472 393.758 148.961 394.395 148.961C395.032 148.961 395.543 149.472 395.543 150.109Z" fill="#393939"/>
<path d="M386.837 158.654C387.471 158.654 387.985 158.14 387.985 157.507C387.985 156.873 387.471 156.36 386.837 156.36C386.203 156.36 385.689 156.873 385.689 157.507C385.689 158.14 386.203 158.654 386.837 158.654Z" fill="#393939"/>
<path d="M394.399 158.654C395.033 158.654 395.547 158.14 395.547 157.507C395.547 156.873 395.033 156.36 394.399 156.36C393.765 156.36 393.251 156.873 393.251 157.507C393.251 158.14 393.765 158.654 394.399 158.654Z" fill="#393939"/>
<path d="M403.438 150.109C403.438 150.741 402.927 151.256 402.29 151.256C401.653 151.256 401.142 150.745 401.142 150.109C401.142 149.472 401.653 148.961 402.29 148.961C402.927 148.961 403.438 149.472 403.438 150.109Z" fill="#393939"/>
<path d="M411 150.109C411 150.741 410.489 151.256 409.852 151.256C409.215 151.256 408.704 150.745 408.704 150.109C408.704 149.472 409.215 148.961 409.852 148.961C410.489 148.961 411 149.472 411 150.109Z" fill="#393939"/>
<path d="M402.29 158.654C402.924 158.654 403.438 158.14 403.438 157.507C403.438 156.873 402.924 156.36 402.29 156.36C401.656 156.36 401.142 156.873 401.142 157.507C401.142 158.14 401.656 158.654 402.29 158.654Z" fill="#393939"/>
<path d="M409.852 158.654C410.486 158.654 411 158.14 411 157.507C411 156.873 410.486 156.36 409.852 156.36C409.218 156.36 408.704 156.873 408.704 157.507C408.704 158.14 409.218 158.654 409.852 158.654Z" fill="#393939"/>
<path d="M89.5858 220.912C83.8938 223.316 79.8977 228.951 79.8977 235.514C79.8977 244.266 86.9974 251.361 95.7564 251.361C97.3265 251.361 98.8438 251.134 100.272 250.708" stroke="#FFD300" stroke-width="10" stroke-miterlimit="10"/>
<path d="M77.0092 381.687C77.0092 382.724 76.1694 383.563 75.1308 383.563C74.0922 383.563 73.2524 382.724 73.2524 381.687C73.2524 380.649 74.0922 379.81 75.1308 379.81C76.1694 379.81 77.0092 380.649 77.0092 381.687Z" fill="#393939"/>
<path d="M89.4033 381.687C89.4033 382.724 88.5635 383.563 87.5249 383.563C86.4863 383.563 85.6465 382.724 85.6465 381.687C85.6465 380.649 86.4863 379.81 87.5249 379.81C88.5635 379.81 89.4033 380.649 89.4033 381.687Z" fill="#393939"/>
<path d="M77.0092 393.812C77.0092 394.849 76.1694 395.688 75.1308 395.688C74.0922 395.688 73.2524 394.849 73.2524 393.812C73.2524 392.774 74.0922 391.935 75.1308 391.935C76.1694 391.935 77.0092 392.774 77.0092 393.812Z" fill="#393939"/>
<path d="M89.4033 393.812C89.4033 394.849 88.5635 395.688 87.5249 395.688C86.4863 395.688 85.6465 394.849 85.6465 393.812C85.6465 392.774 86.4863 391.935 87.5249 391.935C88.5635 391.935 89.4033 392.774 89.4033 393.812Z" fill="#393939"/>
<path d="M391.551 195.171C391.551 196.209 390.711 197.048 389.672 197.048C388.634 197.048 387.794 196.209 387.794 195.171C387.794 194.133 388.634 193.294 389.672 193.294C390.711 193.294 391.551 194.133 391.551 195.171Z" fill="#393939"/>
<path d="M403.945 195.171C403.945 196.209 403.105 197.048 402.066 197.048C401.028 197.048 400.188 196.209 400.188 195.171C400.188 194.133 401.028 193.294 402.066 193.294C403.105 193.294 403.945 194.133 403.945 195.171Z" fill="#393939"/>
<path d="M391.551 207.296C391.551 208.333 390.711 209.173 389.672 209.173C388.634 209.173 387.794 208.333 387.794 207.296C387.794 206.258 388.634 205.419 389.672 205.419C390.711 205.419 391.551 206.258 391.551 207.296Z" fill="#393939"/>
<path d="M403.945 207.296C403.945 208.333 403.105 209.173 402.066 209.173C401.028 209.173 400.188 208.333 400.188 207.296C400.188 206.258 401.028 205.419 402.066 205.419C403.105 205.419 403.945 206.258 403.945 207.296Z" fill="#393939"/>
<path d="M366.627 382.265C372.836 382.265 377.869 377.236 377.869 371.032C377.869 364.828 372.836 359.799 366.627 359.799C360.419 359.799 355.385 364.828 355.385 371.032C355.385 377.236 360.419 382.265 366.627 382.265Z" fill="#FFD300"/>
<path d="M21.433 83.168C27.6418 83.168 32.6749 78.1388 32.6749 71.9349C32.6749 65.731 27.6418 60.7018 21.433 60.7018C15.2243 60.7018 10.1912 65.731 10.1912 71.9349C10.1912 78.1388 15.2243 83.168 21.433 83.168Z" fill="#FFD300"/>
<path d="M35.7009 226.596C40.4111 226.596 44.2247 222.781 44.2247 218.079C44.2247 213.372 40.407 209.562 35.7009 209.562C30.9908 209.562 27.1772 213.376 27.1772 218.079C27.1772 222.785 30.9949 226.596 35.7009 226.596V226.596Z" stroke="#131B20" stroke-width="1.7" stroke-miterlimit="10" stroke-linecap="round"/>
<path d="M303.612 62.5057V76.1144" stroke="#393939" stroke-width="1.7" stroke-miterlimit="10" stroke-linecap="round"/>
<path d="M310.383 69.3121H296.763" stroke="#393939" stroke-width="1.7" stroke-miterlimit="10" stroke-linecap="round"/>
<path d="M425.109 380.773C428.035 380.773 430.407 378.403 430.407 375.479C430.407 372.555 428.035 370.185 425.109 370.185C422.182 370.185 419.81 372.555 419.81 375.479C419.81 378.403 422.182 380.773 425.109 380.773Z" stroke="#131B20" stroke-width="1.7" stroke-miterlimit="10" stroke-linecap="round"/>
<path d="M76.3072 152.869C79.2334 152.869 81.6056 150.499 81.6056 147.575C81.6056 144.651 79.2334 142.281 76.3072 142.281C73.381 142.281 71.0088 144.651 71.0088 147.575C71.0088 150.499 73.381 152.869 76.3072 152.869Z" stroke="#393939" stroke-width="1.7" stroke-miterlimit="10" stroke-linecap="round"/>
<path d="M274.884 315.439L288.646 326.79L302.403 315.439L316.16 326.79L329.917 315.439L343.678 326.79" stroke="white" stroke-width="1.7" stroke-miterlimit="10" stroke-linecap="round"/>
<path d="M422.317 336.51C427.334 336.51 431.401 332.446 431.401 327.433C431.401 322.42 427.334 318.357 422.317 318.357C417.301 318.357 413.234 322.42 413.234 327.433C413.234 332.446 417.301 336.51 422.317 336.51Z" stroke="#FFD117" stroke-width="10" stroke-miterlimit="10"/>
<path d="M375.078 343.38C426.582 291.916 413.095 195 344.954 126.912C276.813 58.8243 179.821 45.3477 128.317 96.8114C76.813 148.275 90.3002 245.191 158.441 313.279C226.583 381.367 323.574 394.844 375.078 343.38Z" fill="#393939"/>
<g clip-path="url(#clip0_564_12460)">
<mask id="mask0_564_12460" style="mask-type:alpha" maskUnits="userSpaceOnUse" x="97" y="65" width="310" height="310">
<path d="M375.078 343.38C426.582 291.916 413.095 195 344.954 126.912C276.813 58.8243 179.821 45.3477 128.317 96.8114C76.813 148.275 90.3002 245.191 158.441 313.279C226.583 381.367 323.574 394.844 375.078 343.38Z" fill="#F5F6FA"/>
</mask>
<g mask="url(#mask0_564_12460)">
<path d="M345.804 215.476L344.457 230.106L340.149 276.965C339.274 286.439 331.341 293.715 321.83 293.726C318.518 293.733 314.859 293.681 310.976 293.535C297.812 293.04 282.126 291.462 268.992 287.332C268.992 287.332 231.755 294.987 188.528 291.433C187.808 291.374 187.075 291.311 186.351 291.248C169.576 289.728 156.292 276.405 154.628 259.652L150.861 221.767L150.227 215.384C147.565 188.59 168.672 165.379 195.604 165.49L206.204 165.53L216.464 165.577L225.708 165.615L278.798 165.831L290.549 165.876L300.769 165.917C327.418 166.02 348.249 188.95 345.804 215.479V215.476Z" fill="white"/>
<path d="M312.757 256.315H184.95V397H312.757V256.315Z" fill="#FFD300"/>
<path d="M312.502 303.074L187.925 295.749L190.394 291.858L206.202 165.53L218.245 165.577L213.649 210.265L284.656 210.755L278.798 165.829L290.549 165.876L310.976 293.537L312.502 303.074Z" fill="#F0C806"/>
<path d="M344.633 228.091L340.147 276.968C339.272 286.442 331.339 293.717 321.827 293.728C318.515 293.735 314.857 293.683 310.973 293.537C297.81 293.042 282.124 291.464 268.99 287.334C268.99 287.334 231.753 294.989 188.525 291.435C187.806 291.376 187.073 291.313 186.349 291.25C169.574 289.731 156.289 276.408 154.625 259.654L151.466 227.902L198.417 227.309L196.78 250.259L220.289 242.424C229.736 239.276 239.751 238.215 249.647 239.314L302.042 245.133L300.756 227.543L344.626 228.091H344.633Z" fill="#FF9845"/>
<path d="M252.993 240.852L239.391 265.486L223.946 254.843L196.809 249.823L226.12 238.303C229.142 236.911 232.484 236.362 235.791 236.715L251.732 238.424C252.899 238.55 253.562 239.822 252.993 240.85V240.852Z" fill="black"/>
<path d="M283.071 243.242L293.972 231.356C294.972 230.265 296.139 229.339 297.432 228.615L304.7 224.535C306.611 223.462 309.033 224.17 310.065 226.104C311.019 227.891 310.447 230.112 308.752 231.218L306.627 232.606L313.238 230.789C314.762 230.697 316.17 231.614 316.701 233.046C317.414 234.973 316.305 237.095 314.315 237.608L309.303 239.957L314.556 240.832C316.141 241.095 317.283 242.493 317.229 244.099C317.162 246.034 315.406 247.466 313.496 247.145L283.077 243.242H283.071Z" fill="black"/>
<path d="M268.992 287.334L223.946 254.845L196.785 250.259" stroke="#131B20" stroke-width="2" stroke-miterlimit="10" stroke-linecap="round"/>
<path d="M306.622 232.603L301.338 234.638L293.535 243.291" stroke="#131B20" stroke-width="2" stroke-miterlimit="10" stroke-linecap="round"/>
<path d="M309.296 239.955L304.385 240.609L299.386 244.876" stroke="#131B20" stroke-width="2" stroke-miterlimit="10" stroke-linecap="round"/>
<path d="M235.501 98.3532C235.501 98.3532 228.189 102.11 228.207 105.529C228.222 108.855 230.705 108.733 230.705 108.733C230.705 108.733 225.972 111.647 228.09 116.352C230.208 121.058 264.684 118 271.155 114.824C277.627 111.647 269.86 107.294 269.86 107.294C269.86 107.294 276.801 100.824 266.919 97.8833C257.036 94.9426 235.503 98.3532 235.503 98.3532H235.501Z" fill="black"/>
<path d="M232.268 165.753L237.559 121.499L263.294 120.669L265.887 166.256C267.121 173.734 246.429 192.812 232.27 165.753H232.268Z" fill="#FF9845"/>
<path d="M238.562 100.132L237.329 134.961L257.167 136.209C260.339 136.4 263.375 133.65 263.285 130.473L264.072 104.63C263.937 99.8055 263.638 96.4287 258.86 97.1301L238.559 100.136L238.562 100.132Z" fill="#FF9845"/>
<path d="M238.096 121.939C237.107 125.572 233.608 127.785 230.284 126.879C226.959 125.973 225.065 122.294 226.057 118.659C227.046 115.026 230.545 112.814 233.869 113.72C237.192 114.626 239.088 118.304 238.096 121.939Z" fill="#FF9845"/>
<path d="M247.356 108.585C247.412 109.603 246.857 110.462 246.117 110.503C245.377 110.543 244.73 109.752 244.676 108.733C244.619 107.715 245.175 106.856 245.915 106.815C246.654 106.775 247.302 107.566 247.356 108.585Z" fill="#131B20"/>
<path d="M259.82 108.659C259.795 109.677 259.175 110.489 258.432 110.471C257.69 110.453 257.11 109.612 257.135 108.592C257.16 107.573 257.78 106.762 258.522 106.779C259.264 106.797 259.845 107.638 259.82 108.659Z" fill="#131B20"/>
<path d="M262.314 105.024C262.104 105.795 260.856 105.415 259.285 104.988C257.711 104.558 256.404 104.244 256.616 103.472C256.825 102.701 258.273 102.422 259.847 102.852C261.421 103.281 262.527 104.253 262.316 105.026L262.314 105.024Z" fill="#131B20"/>
<path d="M241.392 105.066C241.579 105.844 242.836 105.503 244.421 105.12C246.007 104.74 247.322 104.464 247.135 103.686C246.949 102.908 245.512 102.587 243.924 102.969C242.339 103.351 241.204 104.288 241.39 105.066H241.392Z" fill="#131B20"/>
<path d="M251.545 109.864L254.333 116.269C254.635 116.964 254.178 117.735 253.414 117.82L251.624 118.025" stroke="#131B20" stroke-width="2" stroke-miterlimit="10" stroke-linecap="round"/>
<path d="M229.279 118.234C229.423 118.331 232.351 120.141 233.257 120.7C233.381 120.777 233.37 120.952 233.244 121.022L229.871 122.951" stroke="#131B20" stroke-width="2" stroke-miterlimit="10" stroke-linecap="round"/>
<path d="M263.287 120.669C264.277 124.302 267.775 126.514 271.099 125.608C274.425 124.702 276.318 121.024 275.326 117.389C274.337 113.756 270.838 111.543 267.515 112.45C264.189 113.356 262.296 117.034 263.287 120.669V120.669Z" fill="#FF9845"/>
<path d="M272.104 116.964C271.96 117.061 269.032 118.87 268.126 119.43C268.002 119.507 268.014 119.682 268.14 119.752L271.513 121.681" stroke="#131B20" stroke-width="2" stroke-miterlimit="10" stroke-linecap="round"/>
<path d="M239.994 130.829C239.994 130.829 248.01 141.762 261.207 131.53C261.207 131.53 259.687 141.703 251.39 142.223C243.095 142.742 239.994 130.829 239.994 130.829V130.829Z" fill="#131B20"/>
<path d="M233.441 99.6234C233.441 99.3716 235.492 120.449 235.492 120.195C235.492 119.941 238.02 119.437 238.02 119.437L238.44 97.8653L234.667 96.4062L233.441 99.6211V99.6234Z" fill="black"/>
<path d="M263.723 94.6908L263.555 118.284L265.83 118.369L269.433 98.859L263.723 94.6908Z" fill="black"/>
<path d="M232.836 99.6954C232.836 99.6954 236.021 93.2227 249.933 92.0132C264.351 90.7587 269.574 99.1176 269.574 99.1176C269.574 99.1176 265.358 104.032 258.812 102.461C252.267 100.889 250.14 101.103 242.26 103.36C239.214 104.232 232.834 99.6954 232.834 99.6954H232.836Z" fill="#FFD300"/>
<path d="M232.837 99.6953C232.837 99.6953 230.568 78.7936 251.676 78.018C271.504 77.2873 269.574 99.1176 269.574 99.1176L232.837 99.6953V99.6953Z" fill="#FFD300"/>
<path d="M245.813 122.076L257.052 121.843C257.052 121.843 255.413 127.344 251.433 127.11C247.452 126.876 245.813 122.076 245.813 122.076Z" fill="white"/>
<path d="M233.441 99.6234C233.441 99.6234 249.251 88.1462 269.577 99.1176" stroke="#131B20" stroke-width="2" stroke-miterlimit="10" stroke-linecap="round"/>
<path d="M249.033 88.0113C249.033 89.6998 250.169 91.0689 251.57 91.0689C252.971 91.0689 254.106 89.6998 254.106 88.0113C254.106 86.3229 252.971 84.9538 251.57 84.9538C250.169 84.9538 249.033 86.3229 249.033 88.0113Z" fill="#131B20"/>
<path d="M273.518 241.187V225.991H226.509V237.248" stroke="white" stroke-width="2" stroke-miterlimit="10" stroke-linecap="round"/>
<path d="M224.978 166.106C228.261 185.598 242.568 188.505 250.989 188.403C258.835 188.309 273.716 183.073 273.518 166.279" stroke="white" stroke-width="2" stroke-miterlimit="10" stroke-linecap="round"/>
<path d="M150.312 218.174L198.574 217.596" stroke="white" stroke-width="2" stroke-miterlimit="10" stroke-linecap="round"/>
<path d="M299.618 217.846L345.705 217.925" stroke="white" stroke-width="2" stroke-miterlimit="10" stroke-linecap="round"/>
</g>
</g>
<defs>
<clipPath id="clip0_564_12460">
<rect width="433.274" height="432.935" fill="white" transform="translate(35.0608 3.62805)"/>
</clipPath>
</defs>
</svg>
